<svg xmlns="http://www.w3.org/2000/svg" viewBox="0 0 99.94 100.47"><defs><style>.cls-1{isolation:isolate;}.cls-2{fill:#fff;mix-blend-mode:color-burn;}</style></defs><g class="cls-1"><g id="Capa_2" data-name="Capa 2"><g id="Capa_1-2" data-name="Capa 1"><path class="cls-2" d="M57.24,64.46a6.33,6.33,0,0,1,1.54-1.88,5.75,5.75,0,0,1,2.15-1.15,6.29,6.29,0,0,1,2.1-.24,7.13,7.13,0,0,1,2.25.52,10,10,0,0,0,1.27.43,2.48,2.48,0,0,0,1.35,0,2.24,2.24,0,0,0,.77-.39,3.33,3.33,0,0,0,.73-.82,2.55,2.55,0,0,0,.39-1,2.38,2.38,0,0,0-.09-1.06,2.87,2.87,0,0,0-.55-1,3.31,3.31,0,0,0-1-.77,9.61,9.61,0,0,0-4.08-1.23,12.77,12.77,0,0,0-4.41.46,11.7,11.7,0,0,0-4.14,2.12,12,12,0,0,0-2.93,3.4,11.47,11.47,0,0,0-1.41,4.25,11.08,11.08,0,0,0,.36,4.63h0a.11.11,0,0,1,0,0,11.34,11.34,0,0,0,2.13,4.11,11.5,11.5,0,0,0,3.44,2.82,11.88,11.88,0,0,0,8.9.92,11.94,11.94,0,0,0,4-2,10.18,10.18,0,0,0,2.81-3.23,3.72,3.72,0,0,0,.38-1.17,2.93,2.93,0,0,0-.06-1.11,2.57,2.57,0,0,0-.47-1,2.37,2.37,0,0,0-.84-.66,3.48,3.48,0,0,0-1.07-.32,2.32,2.32,0,0,0-.89.07,2.59,2.59,0,0,0-1.16.69,8.79,8.79,0,0,0-.83,1,6.26,6.26,0,0,1-1.62,1.69,7.75,7.75,0,0,1-2.15.95,5.36,5.36,0,0,1-2.42.09,6.79,6.79,0,0,1-2.24-.87,6.88,6.88,0,0,1-1.78-1.58,5.75,5.75,0,0,1-1.08-2l0,0a5.87,5.87,0,0,1-.17-2.43A6.76,6.76,0,0,1,57.24,64.46Z"/><path class="cls-2" d="M98.88,38.16c-.1-.41-.16-.73-.21-1s0-.31,0-.41h0c-.13-.49-.28-1-.43-1.46-.06-.17-.1-.33-.15-.5s-.07-.18-.1-.28c-.18-.56-.36-1.12-.57-1.67A50,50,0,0,0,85.8,14.76a49.06,49.06,0,0,0-6.52-5.52,49.94,49.94,0,0,0-13-6.63v0h0l-1.05-.34c-1.18-.37-2.39-.7-3.61-1-.28-.07-.56-.12-.84-.18l-.09,0-.22-.05c-.7-.14-1.4-.27-2.11-.39l-.3-.05-.15,0C57.2.47,56.47.38,55.74.3L55.12.24l-1-.09-.79,0-.74,0-.4,0-1.8,0h-.18A50.25,50.25,0,0,0,3.58,31.53a1.58,1.58,0,0,0-.09.31l-.32.8c-.22.59-.43,1.18-.62,1.79l0,0v0A50.43,50.43,0,0,0,.74,41.49s0,0,0,.08A50.56,50.56,0,0,0,0,51.78c0,.67.05,1.34.11,2v.08l0-.09A49.71,49.71,0,0,0,1.64,63c0,.11.09.23.13.35.09.31.16.62.25.92a14.51,14.51,0,0,0,6.57,7.61c4.64,2.38,10.73,2.19,21.61.73C36,71.87,40.78,70.28,41.93,66a8,8,0,0,0,.27-2.2l.07-.33h.08c.06-.32.14-.63.22-.94A20.13,20.13,0,0,1,49,52l-.13,0,.28-.25.59-.48.66-.48c.29-.21.59-.41.89-.6l.66-.4.6-.34.79-.4.54-.25c.4-.18.8-.34,1.2-.49l.52-.18.43-.13,0,0a20.55,20.55,0,0,1,4.53-.9h.38c.39,0,.78-.05,1.18-.05h.35c.35,0,.7,0,1.05.05h.17l.8.08.48.06.7.12.51.1.64.14.52.13.57.17.59.19q.51.16,1,.36l.67.28.18.09.34.16.5.24.24.12.66.37.24.14a20.25,20.25,0,0,1,3.91,3l.11.1c.22.23.44.45.65.69s.17.18.25.28l.48.57c.16.19.32.39.47.6s.35.48.52.73l.29.42c1.44,1.81,2.53,3.19,4.86,3h0a15.61,15.61,0,0,0,5.93-2.2C97.49,53.05,100,50,99.94,45A32,32,0,0,0,98.88,38.16Z"/><path class="cls-2" d="M97.48,64.28C97,61.68,94,61.56,89,62.83c-7.32,1.87-6.09,5-7.58,10.1h0A20.19,20.19,0,0,1,65.47,87.18l-.16,0a19.62,19.62,0,0,1-3.28.27,20.1,20.1,0,0,1-14-5.66l.05,0a19.2,19.2,0,0,1-2.28-2.65l-.08,0c-.14-.21-.3-.41-.44-.62h0a1.31,1.31,0,0,0-.11-.12,4.76,4.76,0,0,0-.54-.56,2.09,2.09,0,0,0-.22-.2,5.54,5.54,0,0,0-.77-.54.18.18,0,0,0-.07,0h0c-2.68-1.56-7.09-1.79-12.59-1.26-5.66.55-17.33,2.65-16.84,7.76h0c0,.07,0,.14,0,.22s0,.22.07.34,0,.18.09.27a2.75,2.75,0,0,0,.17.45,1.86,1.86,0,0,0,.1.2,5.16,5.16,0,0,0,.37.63l0,.06a10,10,0,0,0,.61.8,50.54,50.54,0,0,0,9.88,7.35l0,0-.06,0a49.65,49.65,0,0,0,20.66,6.4c1.07.09,2.14.14,3.23.16a50.25,50.25,0,0,0,47-30.35h0s0,0,0-.06.13-.28.19-.43c1-2.51,1.27-4.29,1-5.5Z"/></g></g></g></svg>