<svg xmlns="http://www.w3.org/2000/svg" xmlns:xlink="http://www.w3.org/1999/xlink" viewBox="0 0 99.94 100.47"><defs><style>.cls-1{isolation:isolate;}.cls-2{fill:#fff;}.cls-3{fill:url(#Degradado_sin_nombre_8);}.cls-4{fill:url(#linear-gradient);}.cls-5{fill:#fff7f5;mix-blend-mode:overlay;}.cls-11,.cls-16,.cls-5,.cls-9{opacity:0.5;}.cls-10,.cls-11,.cls-12,.cls-13,.cls-14,.cls-16,.cls-6,.cls-7,.cls-9{mix-blend-mode:color-burn;}.cls-6{fill:url(#linear-gradient-2);}.cls-7{fill:url(#linear-gradient-3);}.cls-8{fill:none;}.cls-9{fill:url(#linear-gradient-4);}.cls-10,.cls-12,.cls-13,.cls-14{opacity:0.65;}.cls-10{fill:url(#linear-gradient-5);}.cls-11{fill:url(#linear-gradient-6);}.cls-12{fill:url(#linear-gradient-7);}.cls-13{fill:url(#linear-gradient-8);}.cls-14{fill:url(#linear-gradient-9);}.cls-15{fill:#000027;}.cls-16{fill:url(#linear-gradient-10);}</style><linearGradient id="Degradado_sin_nombre_8" x1="9.15" y1="20.66" x2="96.25" y2="70.21" gradientUnits="userSpaceOnUse"><stop offset="0.02" stop-color="#78f7f4"/><stop offset="0.14" stop-color="#80bff1"/><stop offset="0.25" stop-color="#878dee"/><stop offset="0.37" stop-color="#8d61eb"/><stop offset="0.49" stop-color="#923ee9"/><stop offset="0.61" stop-color="#9623e7"/><stop offset="0.74" stop-color="#990fe6"/><stop offset="0.86" stop-color="#9a04e5"/><stop offset="0.99" stop-color="#9b00e5"/></linearGradient><linearGradient id="linear-gradient" x1="-2.94" y1="41.91" x2="84.16" y2="91.46" gradientUnits="userSpaceOnUse"><stop offset="0" stop-color="#78f7f4"/><stop offset="0.12" stop-color="#80bff1"/><stop offset="0.24" stop-color="#878dee"/><stop offset="0.36" stop-color="#8d61eb"/><stop offset="0.48" stop-color="#923ee9"/><stop offset="0.61" stop-color="#9623e7"/><stop offset="0.73" stop-color="#990fe6"/><stop offset="0.86" stop-color="#9a04e5"/><stop offset="0.99" stop-color="#9b00e5"/></linearGradient><linearGradient id="linear-gradient-2" x1="12.81" y1="31.02" x2="100.47" y2="31.02" gradientUnits="userSpaceOnUse"><stop offset="0" stop-color="#fff7f5"/><stop offset="0.16" stop-color="#f9eff3"/><stop offset="0.41" stop-color="#e7d8ed"/><stop offset="0.73" stop-color="#cbb4e4"/><stop offset="1" stop-color="#ae8edb"/></linearGradient><linearGradient id="linear-gradient-3" x1="12.81" y1="81.25" x2="100.47" y2="81.25" xlink:href="#linear-gradient-2"/><linearGradient id="linear-gradient-4" x1="0.74" y1="30.38" x2="86.41" y2="30.38" gradientUnits="userSpaceOnUse"><stop offset="0" stop-color="#b046e7"/><stop offset="0.04" stop-color="#ad4aea"/><stop offset="0.18" stop-color="#a853f0"/><stop offset="0.43" stop-color="#a755f2"/><stop offset="0.66" stop-color="#a141eb"/><stop offset="0.97" stop-color="#9820e0"/></linearGradient><linearGradient id="linear-gradient-5" x1="25.46" y1="82.29" x2="100.44" y2="82.29" xlink:href="#linear-gradient-4"/><linearGradient id="linear-gradient-6" x1="3.47" y1="22.14" x2="70.38" y2="22.14" xlink:href="#linear-gradient-4"/><linearGradient id="linear-gradient-7" x1="0.1" y1="40.54" x2="97.93" y2="40.54" xlink:href="#linear-gradient-4"/><linearGradient id="linear-gradient-8" x1="0.1" y1="62.67" x2="97.93" y2="62.67" xlink:href="#linear-gradient-4"/><linearGradient id="linear-gradient-9" x1="0.1" y1="82.84" x2="97.93" y2="82.84" xlink:href="#linear-gradient-4"/><linearGradient id="linear-gradient-10" x1="0.74" y1="49.03" x2="49" y2="49.03" xlink:href="#linear-gradient-4"/></defs><g class="cls-1"><g id="Capa_2" data-name="Capa 2"><g id="Capa_1-2" data-name="Capa 1"><path class="cls-2" d="M56.63,69.23a5.75,5.75,0,0,0,1.08,2,6.88,6.88,0,0,0,1.78,1.58,6.79,6.79,0,0,0,2.24.87,5.36,5.36,0,0,0,2.42-.09,7.75,7.75,0,0,0,2.15-.95A6.26,6.26,0,0,0,67.92,71a8.79,8.79,0,0,1,.83-1,2.59,2.59,0,0,1,1.16-.69,2.32,2.32,0,0,1,.89-.07,3.48,3.48,0,0,1,1.07.32,2.37,2.37,0,0,1,.84.66,2.57,2.57,0,0,1,.47,1,2.93,2.93,0,0,1,.06,1.11,3.48,3.48,0,0,1-.38,1.17,10.18,10.18,0,0,1-2.81,3.23,11.94,11.94,0,0,1-4,2,11.88,11.88,0,0,1-8.9-.92,11.5,11.5,0,0,1-3.44-2.82,11.34,11.34,0,0,1-2.13-4.11.11.11,0,0,0,0,0h0a11.08,11.08,0,0,1-.36-4.63,11.47,11.47,0,0,1,1.41-4.25,12,12,0,0,1,2.93-3.4,11.7,11.7,0,0,1,4.14-2.12,12.77,12.77,0,0,1,4.41-.46,9.61,9.61,0,0,1,4.08,1.23,3.31,3.31,0,0,1,1,.77,2.87,2.87,0,0,1,.55,1,2.38,2.38,0,0,1,.09,1.06,2.55,2.55,0,0,1-.39,1,3.33,3.33,0,0,1-.73.82,2.24,2.24,0,0,1-.77.39,2.48,2.48,0,0,1-1.35,0,10,10,0,0,1-1.27-.43A7.13,7.13,0,0,0,63,61.19a6.29,6.29,0,0,0-2.1.24,5.75,5.75,0,0,0-2.15,1.15,6.33,6.33,0,0,0-1.54,1.88,6.76,6.76,0,0,0-.76,2.31,5.87,5.87,0,0,0,.17,2.43Z"/><path class="cls-3" d="M30.2,72.65C36,71.87,40.78,70.28,41.93,66a8,8,0,0,0,.27-2.2l.27-1.28A20.14,20.14,0,0,1,79,56.39c2.31,2.91,3.73,4.72,10.84.84,10.67-5.81,11.33-9.52,9.07-19.06a9.91,9.91,0,0,1-.26-1.43c-.36-1.32-.78-2.62-1.25-3.89A50.47,50.47,0,0,0,79.28,9.25a50.25,50.25,0,0,0-13-6.63l-1.05-.34A50.29,50.29,0,0,0,3.18,32.64c-.23.59-.44,1.18-.63,1.79A50,50,0,0,0,.76,41.49,51.29,51.29,0,0,0,0,51.78c0,.67.05,1.34.11,2A48.91,48.91,0,0,0,2,64.31a14.51,14.51,0,0,0,6.57,7.61C13.23,74.3,19.32,74.11,30.2,72.65Z"/><path class="cls-4" d="M89,62.84c-7.32,1.87-6.09,5-7.58,10.1h0a20.16,20.16,0,0,1-36.1,5.62h0C43.1,75.69,37.9,75.15,31,75.82c-6.65.64-21.62,3.43-15.37,10.73a51,51,0,0,0,9.88,7.36,49.71,49.71,0,0,0,23.86,6.55,50.25,50.25,0,0,0,47-30.35.5.5,0,0,1,0-.37C99.43,62.09,96.31,61,89,62.84Z"/><path class="cls-5" d="M62,47.15A20.11,20.11,0,0,1,77,53.79C87.42,50,94.86,43.28,98.68,37.21c0-.19-.05-.34-.06-.46-.36-1.32-.78-2.63-1.25-3.9A50.47,50.47,0,0,0,79.28,9.25a50.25,50.25,0,0,0-13-6.63l-1.05-.34A50.29,50.29,0,0,0,3.18,32.64c-.23.59-.44,1.18-.63,1.79A50,50,0,0,0,.76,41.49,51.29,51.29,0,0,0,0,51.78c7.14-7.75,21.87-3.13,40.79,2.4,1.68.49,3.33.9,5,1.25A20.12,20.12,0,0,1,62,47.15Z"/><path class="cls-6" d="M79,56.38c2.31,2.91,3.73,4.72,10.84.84,10.67-5.81,11.33-9.52,9.07-19.06a9.63,9.63,0,0,1-.25-1.38c-.38-1.33-.78-2.66-1.26-3.94A49.62,49.62,0,0,0,85.8,14.76a49.06,49.06,0,0,0-6.52-5.52,49.94,49.94,0,0,0-13-6.63c2.75,9.75,6.6,28.48,1.88,45.49A20.16,20.16,0,0,1,79,56.38Z"/><path class="cls-7" d="M96.41,69.73c3-7.65-.1-8.77-7.42-6.9s-6.09,5-7.58,10.1h0a20.16,20.16,0,0,1-36.1,5.62h0a5.69,5.69,0,0,0-1.71-1.47C36,80.63,26.29,83,14.13,83.58a5.55,5.55,0,0,0,1.47,3,50.75,50.75,0,0,0,9.89,7.36,49.64,49.64,0,0,0,23.86,6.56,50.25,50.25,0,0,0,47-30.35A.5.5,0,0,1,96.41,69.73Z"/><path class="cls-8" d="M21.42,83.07c2.81.67,5.39-.06,5.76-1.62s-1.6-3.38-4.41-4l-.31-.05A22.21,22.21,0,0,0,17,79.5C17.05,80.94,18.89,82.47,21.42,83.07Z"/><path class="cls-8" d="M11.22,30.63c.68-.48.66-1.7-.06-2.7S9.31,26.49,8.63,27s-.66,1.69,0,2.7S10.53,31.12,11.22,30.63Z"/><path class="cls-8" d="M13.48,54.28c-2.21-1.28-4.76-1-5.68.58s.12,3.93,2.34,5.21,4.75,1,5.68-.58S15.69,55.56,13.48,54.28Z"/><path class="cls-8" d="M33.55,83.38c-1.48-.14-2.74.41-2.81,1.23s1.05,1.61,2.53,1.75,2.74-.42,2.81-1.24S35,83.52,33.55,83.38Z"/><path class="cls-8" d="M36.91,55.16c-1,.34-1.65,1.21-1.4,2a1.75,1.75,0,0,0,2.29.71c1-.34,1.64-1.21,1.4-2A1.75,1.75,0,0,0,36.91,55.16Z"/><path class="cls-8" d="M72.34,46.41c2.52-1.68,3.72-4.32,2.68-5.89s-4-1.5-6.47.17S64.82,45,65.87,46.58,69.81,48.08,72.34,46.41Z"/><path class="cls-8" d="M34.44,24.17c4.89-.25,7.46.26,14.91-2.31s19-16.2,7.46-18.52-27,5.23-27,5.23S5.89,20.06,15.41,29.32,29.55,24.43,34.44,24.17Z"/><path class="cls-8" d="M35.16,29.73C33,31.24,32,33.66,33.06,35.14s3.63,1.45,5.81-.06S42,31.15,41,29.67,37.33,28.22,35.16,29.73Z"/><path class="cls-8" d="M26,35.05c-1.47.29-2.5,1.32-2.31,2.32s1.54,1.58,3,1.3,2.51-1.32,2.31-2.32S27.51,34.77,26,35.05Z"/><path class="cls-8" d="M65.08,14.58c1,.11,2-1.33,2.2-3.2s-.48-3.48-1.5-3.59-2,1.33-2.2,3.21S64.06,14.47,65.08,14.58Z"/><path class="cls-8" d="M65.24,89.29c-2,1.15-3,3.06-2.34,4.26s2.86,1.24,4.85.09,3-3,2.35-4.25S67.24,88.14,65.24,89.29Z"/><path class="cls-8" d="M57.82,95.45c-1,.57-1.51,1.51-1.17,2.11s1.43.61,2.41,0,1.51-1.51,1.17-2.11S58.81,94.88,57.82,95.45Z"/><path class="cls-9" d="M74.65,51.52a6.27,6.27,0,0,0,4-5.23c.52-5-.17-3.26,5-15.26,3.67-8.58,2.88-13.92,2.13-16.26a49.82,49.82,0,0,0-6.52-5.52c7.27,10-.55,23.47-7.27,26.58-7,3.26-11,5-13.89,9.78a11.67,11.67,0,0,1-2.1,2.5,20.1,20.1,0,0,1,18.65,3.41Zm-6.1-10.83C71.07,39,74,38.94,75,40.52s-.16,4.21-2.68,5.89-5.42,1.75-6.47.17S66,42.36,68.55,40.69Z"/><path class="cls-10" d="M97.53,64.11c-5.34,18-21.13,22.7-27.09,22a9.13,9.13,0,0,0-1,0,19.91,19.91,0,0,1-4.57,1.17c-4.58,2.18-9.22,6.84-16.76,9.42-5.7,2-15.1-.25-22.61-2.8a49.67,49.67,0,0,0,23.86,6.56A50.22,50.22,0,0,0,96.56,69.61C97.54,67.1,97.83,65.32,97.53,64.11ZM59.06,97.6c-1,.57-2.06.55-2.41,0s.18-1.54,1.17-2.11,2.07-.55,2.41,0S60.05,97,59.06,97.6Zm8.69-4c-2,1.15-4.16,1.11-4.85-.09s.35-3.11,2.34-4.26,4.17-1.1,4.86.1S69.75,92.49,67.75,93.64Z"/><path class="cls-11" d="M4.59,33.6c5.33,1.38,6.7-2.74,9.79,2.75s5.49,11.48,17.49,5.31A8.65,8.65,0,0,1,37,39.6c9.09.17,4.63-6.17,8.23-10.63S55.36,24.69,62,23c4.79-1.23,10.2-6.95,7.71-14.07a12.23,12.23,0,0,0-9-7.81A50.29,50.29,0,0,0,3.58,31.53,1.55,1.55,0,0,0,4.59,33.6Zm59-22.6c.19-1.88,1.18-3.31,2.2-3.21s1.69,1.71,1.5,3.59-1.18,3.31-2.2,3.2S63.38,12.87,63.58,11ZM26.73,38.67c-1.47.28-2.82-.3-3-1.3s.84-2,2.31-2.32,2.82.3,3,1.3S28.2,38.39,26.73,38.67Zm12.14-3.59c-2.18,1.51-4.78,1.54-5.81.06s-.08-3.9,2.1-5.41,4.77-1.54,5.8-.06S41.05,33.57,38.87,35.08ZM29.81,8.57S45.24,1,56.81,3.34s0,16-7.46,18.52-10,2.06-14.91,2.31-9.52,14.41-19,5.15S29.81,8.57,29.81,8.57ZM8.63,27c.68-.49,1.82-.06,2.53.95s.74,2.22.06,2.7-1.82.06-2.54-.95S7.94,27.46,8.63,27Z"/><path class="cls-12" d="M83.88,59.44c1.36-4.38,4.46-6.07,8.33-7,5.15-1.2,6.87-4.63,5-13-.91-4-.51-5.83.16-6.58a49.94,49.94,0,0,0-5.83-11.21l-.16.13c8.06,20.06-.17,29-5.32,30.86a23.56,23.56,0,0,0-7,3.67l.06.1C80.5,58.19,81.59,59.56,83.88,59.44Z"/><path class="cls-13" d="M8.09,71.57C4.84,66.31,1.72,58.4.1,53.77A49.71,49.71,0,0,0,1.64,63,15.48,15.48,0,0,0,8.09,71.57Z"/><path class="cls-14" d="M45.81,79.12c-3.23,2.29-9.17.53-13.94-2.31a17.93,17.93,0,0,0-1.74-.89,53.9,53.9,0,0,0-7.67,1.43l.31.05c2.81.67,4.78,2.48,4.41,4s-2.95,2.29-5.76,1.62c-2.53-.6-4.37-2.13-4.44-3.57a5.66,5.66,0,0,0-2.57,2.7C24.9,94,42.94,89.67,45.75,84.7a9.48,9.48,0,0,1,2.34-2.93A19.2,19.2,0,0,1,45.81,79.12ZM33.27,86.36c-1.48-.14-2.61-.92-2.53-1.75s1.33-1.37,2.81-1.23,2.61.92,2.53,1.74S34.75,86.5,33.27,86.36Z"/><path class="cls-15" d="M79.07,56.4,79,56.3h0Z"/><path class="cls-16" d="M45.07,53c-3.09.34-5.83-1.55-10,.68a22.61,22.61,0,0,1-7.88,2.57c-19.14,0-23.66-15-24.72-21.81A50.43,50.43,0,0,0,.74,41.49C2.6,57.72,9.54,62.6,12.32,62.75c3.09.17,9.94-3.43,17-1,4.12,1.41,9,2.34,13,1.72h0c.06-.32.14-.63.22-.94A20.13,20.13,0,0,1,49,52,19.88,19.88,0,0,1,45.07,53ZM15.82,59.49c-.93,1.6-3.47,1.86-5.68.58S6.88,56.46,7.8,54.86s3.47-1.86,5.68-.58S16.74,57.89,15.82,59.49Zm22-1.67a1.75,1.75,0,0,1-2.29-.71c-.25-.74.38-1.61,1.4-2a1.75,1.75,0,0,1,2.29.71C39.44,56.61,38.82,57.48,37.8,57.82Z"/></g></g></g></svg>