<svg xmlns="http://www.w3.org/2000/svg" viewBox="0 0 667.65 135.18"><defs><style>.cls-1{isolation:isolate;}.cls-2{font-size:117.07px;font-family:AristotelicaDisplayTrial-DmBd, Aristotelica Display Trial;}.cls-2,.cls-7{fill:#fff;}.cls-3{letter-spacing:0em;}.cls-4{letter-spacing:0em;}.cls-5{letter-spacing:0em;}.cls-6,.cls-7{mix-blend-mode:color-burn;}</style></defs><g class="cls-1"><g id="Capa_2" data-name="Capa 2"><g id="Capa_1-2" data-name="Capa 1"><text class="cls-2" transform="translate(125.05 96.02)">m<tspan class="cls-3" x="84.81" y="0">e</tspan><tspan class="cls-4" x="145.57" y="0">t</tspan><tspan class="cls-5" x="200.71" y="0">acloud</tspan></text><g class="cls-6"><path class="cls-7" d="M53.73,92.2A11.53,11.53,0,0,0,57.17,95a12.11,12.11,0,0,0,12.88-1,10,10,0,0,0,2.81-3.23,3.56,3.56,0,0,0,.38-1.17,2.89,2.89,0,0,0-.06-1.1,2.61,2.61,0,0,0-.47-1,2.37,2.37,0,0,0-.84-.66,3.44,3.44,0,0,0-1.07-.31,2.32,2.32,0,0,0-.89.07,2.51,2.51,0,0,0-1.16.69,9.6,9.6,0,0,0-.83,1A6,6,0,0,1,66.3,90a7.48,7.48,0,0,1-2.15,1,5.36,5.36,0,0,1-2.42.08,6.81,6.81,0,0,1-4-2.44,5.75,5.75,0,0,1-1.08-2l0,0a5.91,5.91,0,0,1-.17-2.44,6.9,6.9,0,0,1,.76-2.31,6.59,6.59,0,0,1,1.54-1.88,5.87,5.87,0,0,1,2.15-1.14,6.57,6.57,0,0,1,2.1-.25,7.42,7.42,0,0,1,2.25.52,8.25,8.25,0,0,0,1.27.44,2.58,2.58,0,0,0,1.35,0,2.47,2.47,0,0,0,.77-.4,3.46,3.46,0,0,0,.73-.81,2.55,2.55,0,0,0,.39-1,2.43,2.43,0,0,0-.09-1.07,2.92,2.92,0,0,0-.55-1,3.51,3.51,0,0,0-1-.78,9.74,9.74,0,0,0-4.08-1.22,12.53,12.53,0,0,0-4.41.46,11.54,11.54,0,0,0-4.14,2.12,12,12,0,0,0-2.93,3.4,11.49,11.49,0,0,0-1.41,4.24,11.12,11.12,0,0,0,.36,4.64h0a.13.13,0,0,1,0,.06A11.37,11.37,0,0,0,53.73,92.2Z"/><path class="cls-7" d="M30.2,90c5.75-.77,10.58-2.36,11.73-6.66a8,8,0,0,0,.27-2.2l.07-.34h.08c.06-.31.14-.62.22-.93A20.2,20.2,0,0,1,49,69.39l-.13,0,.28-.24c.2-.16.39-.33.59-.48s.44-.33.66-.48.59-.41.89-.6l.66-.41.6-.33.79-.4.54-.26q.6-.26,1.2-.48l.52-.18.43-.13,0,0a20.43,20.43,0,0,1,4.53-.89l.38,0c.39,0,.78,0,1.18,0h.35c.35,0,.7,0,1.05,0l.17,0c.27,0,.53,0,.8.08l.48.06c.23,0,.47.07.7.12l.51.09.64.15.52.13.57.17.59.18c.34.12.67.24,1,.37l.67.28.18.08.34.16c.17.08.34.16.5.25l.24.12.66.36.24.15a19.82,19.82,0,0,1,3.91,3l.11.11c.22.22.44.45.65.68l.25.29q.24.27.48.57c.16.19.32.39.47.59s.35.49.52.74l.29.42c1.44,1.81,2.53,3.19,4.86,3h0a15.61,15.61,0,0,0,5.93-2.2c7.68-4.18,10.17-7.27,10.13-12.22a32.64,32.64,0,0,0-1.06-6.85c-.1-.41-.16-.74-.21-1s0-.31,0-.42h0c-.13-.49-.28-1-.43-1.46-.06-.17-.1-.34-.15-.5l-.11-.3c-.17-.55-.36-1.11-.56-1.65A50.3,50.3,0,0,0,66.29,20h0c-.35-.12-.7-.24-1.05-.34-1.18-.37-2.39-.7-3.61-1-.28-.07-.56-.12-.84-.18l-.09,0-.22,0c-.7-.14-1.4-.28-2.11-.39l-.3-.05-.15,0c-.72-.11-1.45-.2-2.18-.28l-.62-.06-1-.09-.79-.05-.74,0-.4,0c-.6,0-1.2,0-1.8,0h-.18A50.25,50.25,0,0,0,3.58,48.89a1.71,1.71,0,0,0-.09.3c-.1.27-.21.54-.32.81-.22.59-.43,1.18-.62,1.78l0,0v0A50.3,50.3,0,0,0,.74,58.84s0,.06,0,.09A50.56,50.56,0,0,0,0,69.14c0,.67.05,1.33.1,2a.28.28,0,0,1,0,.09l0-.09a49.6,49.6,0,0,0,1.54,9.26c0,.12.09.24.13.35.09.31.16.62.25.93a14.51,14.51,0,0,0,6.57,7.61C13.23,91.66,19.32,91.47,30.2,90Z"/><path class="cls-7" d="M97.48,81.63C97,79,94,78.92,89,80.19c-7.32,1.87-6.1,5-7.58,10.09h0a20.16,20.16,0,0,1-15.92,14.25l-.16,0a20.74,20.74,0,0,1-3.28.27,20.1,20.1,0,0,1-14-5.66l.05,0a19.81,19.81,0,0,1-2.28-2.65l-.08,0c-.15-.2-.3-.4-.44-.61h0s-.08-.07-.11-.11a5.79,5.79,0,0,0-.54-.57L44.42,95a5.59,5.59,0,0,0-.77-.55l-.07,0h0c-2.68-1.56-7.09-1.79-12.59-1.26-5.66.55-17.33,2.65-16.84,7.75h0c0,.08,0,.15,0,.22s0,.23.07.35,0,.18.09.27a3,3,0,0,0,.17.44,2,2,0,0,0,.1.21,7.3,7.3,0,0,0,.37.63.21.21,0,0,0,0,.06,9.25,9.25,0,0,0,.6.8,50.94,50.94,0,0,0,9.88,7.35l0,0-.06,0a49.8,49.8,0,0,0,20.66,6.4c1.07.09,2.14.14,3.23.16a50.25,50.25,0,0,0,47-30.35h0s0,0,0,0l.19-.43c1-2.51,1.27-4.3,1-5.5C97.51,81.52,97.5,81.58,97.48,81.63Z"/></g></g></g></g></svg>