<svg xmlns="http://www.w3.org/2000/svg" xmlns:xlink="http://www.w3.org/1999/xlink" viewBox="0 0 667.65 135.18"><defs><style>.cls-1{isolation:isolate;}.cls-2{font-size:117.07px;font-family:AristotelicaDisplayTrial-DmBd, Aristotelica Display Trial;}.cls-2,.cls-6{fill:#fff;}.cls-3{letter-spacing:0em;}.cls-4{letter-spacing:0em;}.cls-5{letter-spacing:0em;}.cls-7{fill:url(#Degradado_sin_nombre_8);}.cls-8{fill:url(#linear-gradient);}.cls-9{fill:#fff7f5;mix-blend-mode:overlay;}.cls-13,.cls-15,.cls-20,.cls-9{opacity:0.5;}.cls-10,.cls-11,.cls-13,.cls-14,.cls-15,.cls-16,.cls-17,.cls-18,.cls-20{mix-blend-mode:color-burn;}.cls-10{fill:url(#linear-gradient-2);}.cls-11{fill:url(#linear-gradient-3);}.cls-12{fill:none;}.cls-13{fill:url(#linear-gradient-4);}.cls-14,.cls-16,.cls-17,.cls-18{opacity:0.65;}.cls-14{fill:url(#linear-gradient-5);}.cls-15{fill:url(#linear-gradient-6);}.cls-16{fill:url(#linear-gradient-7);}.cls-17{fill:url(#linear-gradient-8);}.cls-18{fill:url(#linear-gradient-9);}.cls-19{fill:#000027;}.cls-20{fill:url(#linear-gradient-10);}</style><linearGradient id="Degradado_sin_nombre_8" x1="9.15" y1="38.02" x2="96.25" y2="87.56" gradientUnits="userSpaceOnUse"><stop offset="0.02" stop-color="#78f7f4"/><stop offset="0.14" stop-color="#80bff1"/><stop offset="0.25" stop-color="#878dee"/><stop offset="0.37" stop-color="#8d61eb"/><stop offset="0.49" stop-color="#923ee9"/><stop offset="0.61" stop-color="#9623e7"/><stop offset="0.74" stop-color="#990fe6"/><stop offset="0.86" stop-color="#9a04e5"/><stop offset="0.99" stop-color="#9b00e5"/></linearGradient><linearGradient id="linear-gradient" x1="-2.94" y1="59.26" x2="84.16" y2="108.81" gradientUnits="userSpaceOnUse"><stop offset="0" stop-color="#78f7f4"/><stop offset="0.12" stop-color="#80bff1"/><stop offset="0.24" stop-color="#878dee"/><stop offset="0.36" stop-color="#8d61eb"/><stop offset="0.48" stop-color="#923ee9"/><stop offset="0.61" stop-color="#9623e7"/><stop offset="0.73" stop-color="#990fe6"/><stop offset="0.86" stop-color="#9a04e5"/><stop offset="0.99" stop-color="#9b00e5"/></linearGradient><linearGradient id="linear-gradient-2" x1="12.81" y1="48.38" x2="100.47" y2="48.38" gradientUnits="userSpaceOnUse"><stop offset="0" stop-color="#fff7f5"/><stop offset="0.16" stop-color="#f9eff3"/><stop offset="0.41" stop-color="#e7d8ed"/><stop offset="0.73" stop-color="#cbb4e4"/><stop offset="1" stop-color="#ae8edb"/></linearGradient><linearGradient id="linear-gradient-3" x1="12.81" y1="98.61" x2="100.47" y2="98.61" xlink:href="#linear-gradient-2"/><linearGradient id="linear-gradient-4" x1="0.74" y1="47.74" x2="86.41" y2="47.74" gradientUnits="userSpaceOnUse"><stop offset="0" stop-color="#b046e7"/><stop offset="0.04" stop-color="#ad4aea"/><stop offset="0.18" stop-color="#a853f0"/><stop offset="0.43" stop-color="#a755f2"/><stop offset="0.66" stop-color="#a141eb"/><stop offset="0.97" stop-color="#9820e0"/></linearGradient><linearGradient id="linear-gradient-5" x1="25.46" y1="99.65" x2="100.44" y2="99.65" xlink:href="#linear-gradient-4"/><linearGradient id="linear-gradient-6" x1="3.47" y1="39.49" x2="70.38" y2="39.49" xlink:href="#linear-gradient-4"/><linearGradient id="linear-gradient-7" x1="0.1" y1="57.9" x2="97.93" y2="57.9" xlink:href="#linear-gradient-4"/><linearGradient id="linear-gradient-8" x1="0.1" y1="80.03" x2="97.93" y2="80.03" xlink:href="#linear-gradient-4"/><linearGradient id="linear-gradient-9" x1="0.1" y1="100.19" x2="97.93" y2="100.19" xlink:href="#linear-gradient-4"/><linearGradient id="linear-gradient-10" x1="0.74" y1="66.39" x2="49" y2="66.39" xlink:href="#linear-gradient-4"/></defs><g class="cls-1"><g id="Capa_2" data-name="Capa 2"><g id="Capa_1-2" data-name="Capa 1"><text class="cls-2" transform="translate(125.05 96.02)">m<tspan class="cls-3" x="84.81" y="0">e</tspan><tspan class="cls-4" x="145.57" y="0">t</tspan><tspan class="cls-5" x="200.71" y="0">acloud</tspan></text><path class="cls-6" d="M56.63,86.59a5.75,5.75,0,0,0,1.08,2,6.81,6.81,0,0,0,4,2.44A5.36,5.36,0,0,0,64.15,91a7.48,7.48,0,0,0,2.15-1,6,6,0,0,0,1.62-1.69,9.6,9.6,0,0,1,.83-1,2.51,2.51,0,0,1,1.16-.69,2.32,2.32,0,0,1,.89-.07,3.44,3.44,0,0,1,1.07.31,2.37,2.37,0,0,1,.84.66,2.61,2.61,0,0,1,.47,1,2.89,2.89,0,0,1,.06,1.1,3.34,3.34,0,0,1-.38,1.17A10,10,0,0,1,70.05,94a12,12,0,0,1-4,2,11.88,11.88,0,0,1-8.9-.92,11.53,11.53,0,0,1-3.44-2.83,11.37,11.37,0,0,1-2.13-4.1.13.13,0,0,0,0-.06h0a11.12,11.12,0,0,1-.36-4.64,11.49,11.49,0,0,1,1.41-4.24,12,12,0,0,1,2.93-3.4,11.54,11.54,0,0,1,4.14-2.12,12.53,12.53,0,0,1,4.41-.46,9.74,9.74,0,0,1,4.08,1.22,3.51,3.51,0,0,1,1,.78,2.92,2.92,0,0,1,.55,1,2.43,2.43,0,0,1,.09,1.07,2.55,2.55,0,0,1-.39,1,3.46,3.46,0,0,1-.73.81,2.47,2.47,0,0,1-.77.4,2.58,2.58,0,0,1-1.35,0,8.64,8.64,0,0,1-1.27-.44A7.42,7.42,0,0,0,63,78.54a6.57,6.57,0,0,0-2.1.25,5.87,5.87,0,0,0-2.15,1.14,6.59,6.59,0,0,0-1.54,1.88,6.9,6.9,0,0,0-.76,2.31,5.91,5.91,0,0,0,.17,2.44Z"/><path class="cls-7" d="M30.2,90c5.75-.77,10.58-2.36,11.73-6.66a8,8,0,0,0,.27-2.2l.27-1.28A20.14,20.14,0,0,1,79,73.75c2.31,2.9,3.73,4.71,10.84.84,10.67-5.82,11.33-9.52,9.07-19.06a10.16,10.16,0,0,1-.26-1.43c-.36-1.32-.78-2.62-1.25-3.9A50.39,50.39,0,0,0,66.29,20c-.35-.12-.7-.24-1.05-.34A50.29,50.29,0,0,0,3.18,50c-.23.59-.44,1.18-.63,1.78A50.46,50.46,0,0,0,.76,58.85,51.29,51.29,0,0,0,0,69.14c0,.67.05,1.33.11,2A48.89,48.89,0,0,0,2,81.67a14.51,14.51,0,0,0,6.57,7.61C13.23,91.66,19.32,91.47,30.2,90Z"/><path class="cls-8" d="M89,80.2c-7.32,1.87-6.09,5-7.58,10.1h0a20.16,20.16,0,0,1-36.1,5.62h0C43.1,93,37.9,92.51,31,93.18c-6.65.64-21.62,3.43-15.37,10.73a50.94,50.94,0,0,0,9.88,7.35,49.72,49.72,0,0,0,23.86,6.56,50.25,50.25,0,0,0,47-30.35.49.49,0,0,1,0-.37C99.43,79.45,96.31,78.33,89,80.2Z"/><path class="cls-9" d="M62,64.51A20.11,20.11,0,0,1,77,71.15c10.45-3.81,17.89-10.51,21.71-16.59,0-.19-.05-.34-.06-.46-.36-1.32-.78-2.62-1.25-3.9A50.39,50.39,0,0,0,66.29,20c-.35-.12-.7-.24-1.05-.34A50.29,50.29,0,0,0,3.18,50c-.23.59-.44,1.18-.63,1.78A50.46,50.46,0,0,0,.76,58.85,51.29,51.29,0,0,0,0,69.14C7.16,61.39,21.89,66,40.81,71.53c1.68.5,3.33.91,5,1.26A20.12,20.12,0,0,1,62,64.51Z"/><path class="cls-10" d="M79,73.74c2.31,2.9,3.73,4.71,10.84.84,10.67-5.82,11.33-9.52,9.07-19.06a9.63,9.63,0,0,1-.25-1.38c-.38-1.34-.78-2.66-1.26-4A50.46,50.46,0,0,0,91.55,39a51.15,51.15,0,0,0-5.75-6.88A50.14,50.14,0,0,0,66.29,20c2.75,9.74,6.6,28.47,1.88,45.48A20.22,20.22,0,0,1,79,73.74Z"/><path class="cls-11" d="M96.41,87.08c3-7.65-.1-8.76-7.42-6.89s-6.09,5-7.58,10.09h0a20.16,20.16,0,0,1-36.1,5.63h0a5.84,5.84,0,0,0-1.71-1.47C36,98,26.29,100.32,14.13,100.93a5.55,5.55,0,0,0,1.47,2.95,50.4,50.4,0,0,0,9.89,7.37,50.14,50.14,0,0,0,70.89-23.8A.5.5,0,0,1,96.41,87.08Z"/><path class="cls-12" d="M21.42,100.43c2.81.67,5.39-.06,5.76-1.63s-1.6-3.37-4.41-4l-.31-.06A21.83,21.83,0,0,0,17,96.86C17.05,98.3,18.89,99.83,21.42,100.43Z"/><path class="cls-12" d="M11.22,48c.68-.49.66-1.7-.06-2.71s-1.85-1.43-2.53-1S8,46,8.68,47,10.53,48.47,11.22,48Z"/><path class="cls-12" d="M13.48,71.64c-2.21-1.28-4.76-1-5.68.58s.12,3.93,2.34,5.21,4.75,1,5.68-.58S15.69,72.92,13.48,71.64Z"/><path class="cls-12" d="M33.55,100.73c-1.48-.14-2.74.42-2.81,1.24s1.05,1.6,2.53,1.74,2.74-.41,2.81-1.24S35,100.87,33.55,100.73Z"/><path class="cls-12" d="M36.91,72.52c-1,.34-1.65,1.21-1.4,2a1.75,1.75,0,0,0,2.29.71c1-.34,1.64-1.21,1.4-2A1.75,1.75,0,0,0,36.91,72.52Z"/><path class="cls-12" d="M72.34,63.76c2.52-1.67,3.72-4.31,2.68-5.89s-4-1.5-6.47.18-3.73,4.31-2.68,5.89S69.81,65.44,72.34,63.76Z"/><path class="cls-12" d="M34.44,41.53c4.89-.26,7.46.26,14.91-2.31S68.39,23,56.81,20.7s-27,5.23-27,5.23S5.89,37.42,15.41,46.67,29.55,41.79,34.44,41.53Z"/><path class="cls-12" d="M35.16,47.08C33,48.59,32,51,33.06,52.49s3.63,1.46,5.81-.05S42,48.5,41,47,37.33,45.57,35.16,47.08Z"/><path class="cls-12" d="M26,52.41c-1.47.28-2.5,1.32-2.31,2.32s1.54,1.58,3,1.29,2.51-1.31,2.31-2.31S27.51,52.13,26,52.41Z"/><path class="cls-12" d="M65.08,31.94c1,.1,2-1.33,2.2-3.21s-.48-3.47-1.5-3.58-2,1.33-2.2,3.2S64.06,31.83,65.08,31.94Z"/><path class="cls-12" d="M65.24,106.65c-2,1.15-3,3-2.34,4.25s2.86,1.25,4.85.1,3-3.06,2.35-4.26S67.24,105.5,65.24,106.65Z"/><path class="cls-12" d="M57.82,112.8c-1,.57-1.51,1.52-1.17,2.11s1.43.62,2.41,0,1.51-1.52,1.17-2.11S58.81,112.23,57.82,112.8Z"/><path class="cls-13" d="M74.65,68.87a6.26,6.26,0,0,0,4-5.22c.52-5-.17-3.26,5-15.26,3.67-8.58,2.88-13.92,2.13-16.27a50.61,50.61,0,0,0-6.52-5.52c7.27,10-.55,23.47-7.27,26.59-7,3.26-11,5-13.89,9.77a11.67,11.67,0,0,1-2.1,2.5,20.33,20.33,0,0,1,6.14-.95A20.1,20.1,0,0,1,74.65,68.87Zm-6.1-10.82c2.52-1.68,5.42-1.76,6.47-.18s-.16,4.22-2.68,5.89-5.42,1.75-6.47.18S66,59.72,68.55,58.05Z"/><path class="cls-14" d="M97.53,81.47c-5.34,18-21.13,22.7-27.09,22a9.13,9.13,0,0,0-1,0,19.91,19.91,0,0,1-4.57,1.17c-4.58,2.17-9.22,6.84-16.76,9.41-5.7,2-15.1-.24-22.61-2.79A50.14,50.14,0,0,0,96.56,87C97.54,84.46,97.83,82.67,97.53,81.47ZM59.06,115c-1,.57-2.06.55-2.41,0s.18-1.54,1.17-2.11,2.07-.55,2.41,0S60.05,114.39,59.06,115Zm8.69-4c-2,1.15-4.16,1.11-4.85-.1s.35-3.1,2.34-4.25,4.17-1.11,4.86.09S69.75,109.85,67.75,111Z"/><path class="cls-15" d="M4.59,51c5.33,1.38,6.7-2.73,9.79,2.76S19.87,65.19,31.87,59A8.65,8.65,0,0,1,37,57c9.09.17,4.63-6.17,8.23-10.63s10.12-4.28,16.8-6c4.79-1.23,10.2-6.94,7.71-14.06a12.27,12.27,0,0,0-9-7.82A50.35,50.35,0,0,0,3.58,48.89,1.54,1.54,0,0,0,4.59,51Zm59-22.6c.19-1.87,1.18-3.31,2.2-3.2s1.69,1.71,1.5,3.58S66.1,32,65.08,31.94,63.38,30.23,63.58,28.35ZM26.73,56c-1.47.29-2.82-.29-3-1.29s.84-2,2.31-2.32,2.82.3,3,1.3S28.2,55.74,26.73,56Zm12.14-3.58c-2.18,1.51-4.78,1.53-5.81.05s-.08-3.9,2.1-5.41,4.77-1.53,5.8,0S41.05,50.93,38.87,52.44ZM29.81,25.93s15.43-7.54,27-5.23,0,15.94-7.46,18.52-10,2.05-14.91,2.31-9.52,14.4-19,5.14S29.81,25.93,29.81,25.93ZM8.63,44.33c.68-.48,1.82-.06,2.53,1s.74,2.22.06,2.71-1.82.06-2.54-1S7.94,44.82,8.63,44.33Z"/><path class="cls-16" d="M83.88,76.79c1.36-4.38,4.46-6.07,8.33-7,5.15-1.2,6.87-4.63,5-13-.91-4.06-.51-5.83.16-6.59A50.08,50.08,0,0,0,91.52,39l-.16.13c8.06,20.06-.17,29-5.32,30.86a23.54,23.54,0,0,0-7,3.66l.06.1C80.5,75.54,81.59,76.91,83.88,76.79Z"/><path class="cls-17" d="M8.09,88.93c-3.25-5.26-6.37-13.18-8-17.8a49.6,49.6,0,0,0,1.54,9.26A15.5,15.5,0,0,0,8.09,88.93Z"/><path class="cls-18" d="M45.81,96.48c-3.23,2.29-9.17.52-13.94-2.32a15.81,15.81,0,0,0-1.74-.88,53.78,53.78,0,0,0-7.67,1.42l.31.06c2.81.67,4.78,2.48,4.41,4s-2.95,2.3-5.76,1.63c-2.53-.6-4.37-2.13-4.44-3.57a5.68,5.68,0,0,0-2.57,2.69c10.49,11.8,28.53,7.48,31.34,2.5a9.55,9.55,0,0,1,2.34-2.92A19.2,19.2,0,0,1,45.81,96.48Zm-12.54,7.23c-1.48-.14-2.61-.92-2.53-1.74s1.33-1.38,2.81-1.24,2.61.92,2.53,1.74S34.75,103.85,33.27,103.71Z"/><path class="cls-19" d="M79.07,73.75l-.06-.1h0Z"/><path class="cls-20" d="M45.07,70.33c-3.09.35-5.83-1.54-10,.69a22.61,22.61,0,0,1-7.88,2.57c-19.14,0-23.66-15-24.72-21.81A50.65,50.65,0,0,0,.74,58.84C2.6,75.08,9.54,80,12.32,80.11c3.09.17,9.94-3.43,17-1,4.12,1.41,9,2.33,13,1.72h0c.06-.31.14-.62.22-.93A20.2,20.2,0,0,1,49,69.39,19.19,19.19,0,0,1,45.07,70.33ZM15.82,76.85c-.93,1.6-3.47,1.86-5.68.58S6.88,73.82,7.8,72.22s3.47-1.86,5.68-.58S16.74,75.25,15.82,76.85Zm22-1.67a1.75,1.75,0,0,1-2.29-.71c-.25-.74.38-1.61,1.4-2a1.75,1.75,0,0,1,2.29.71C39.44,74,38.82,74.84,37.8,75.18Z"/></g></g></g></svg>