<svg width="32" height="32" viewBox="0 0 32 32" fill="none" xmlns="http://www.w3.org/2000/svg">
<g clip-path="url(#clip0_647_152)">
<path d="M27.0903 5.81392C25.0154 4.86165 22.8258 4.182 20.5763 3.79192C20.556 3.78848 20.535 3.79145 20.5164 3.8004C20.4978 3.80936 20.4824 3.82386 20.4723 3.84192C20.1903 4.34192 19.8783 4.99592 19.6603 5.50792C17.2356 5.13993 14.7691 5.13993 12.3443 5.50792C12.1012 4.93756 11.8261 4.38134 11.5203 3.84192C11.5101 3.82406 11.4947 3.80972 11.4761 3.8008C11.4575 3.79187 11.4367 3.78878 11.4163 3.79192C9.16634 4.17992 6.97634 4.85992 4.90234 5.81392C4.88459 5.82069 4.86975 5.83341 4.86034 5.84992C0.712338 12.0479 -0.425662 18.0939 0.132338 24.0639C0.134338 24.0919 0.152338 24.1199 0.174338 24.1379C2.58979 25.9271 5.29152 27.2932 8.16434 28.1779C8.18462 28.1843 8.20642 28.1841 8.22656 28.1772C8.2467 28.1704 8.26414 28.1573 8.27634 28.1399C8.89234 27.2999 9.44034 26.4139 9.91234 25.4819C9.92218 25.4627 9.92554 25.4409 9.92194 25.4196C9.91834 25.3983 9.90795 25.3788 9.89234 25.3639C9.882 25.3542 9.86974 25.3467 9.85634 25.3419C8.99466 25.0108 8.16013 24.6129 7.36034 24.1519C7.338 24.1393 7.32139 24.1185 7.31394 24.0939C7.30649 24.0693 7.30878 24.0428 7.32034 24.0199C7.32714 24.005 7.33743 23.992 7.35034 23.9819C7.51834 23.8559 7.68634 23.7239 7.84634 23.5919C7.86047 23.5806 7.87743 23.5732 7.8954 23.5708C7.91336 23.5683 7.93166 23.5708 7.94834 23.5779C13.1863 25.9699 18.8563 25.9699 24.0303 23.5779C24.0476 23.5704 24.0666 23.5678 24.0853 23.5703C24.1039 23.5727 24.1216 23.5802 24.1363 23.5919C24.2963 23.7239 24.4643 23.8559 24.6323 23.9819C24.646 23.9919 24.6569 24.005 24.6642 24.0202C24.6714 24.0354 24.6748 24.0522 24.674 24.0691C24.6733 24.0859 24.6683 24.1023 24.6596 24.1168C24.6509 24.1312 24.6388 24.1433 24.6243 24.1519C23.8264 24.6171 22.9908 25.0145 22.1263 25.3399C22.1125 25.3449 22.1 25.3529 22.0897 25.3632C22.0793 25.3736 22.0713 25.3861 22.0663 25.3999C22.0617 25.4133 22.0599 25.4274 22.0609 25.4415C22.0619 25.4556 22.0658 25.4694 22.0723 25.4819C22.5523 26.4119 23.1023 27.2999 23.7063 28.1399C23.7185 28.1573 23.736 28.1704 23.7561 28.1772C23.7763 28.1841 23.7981 28.1843 23.8183 28.1779C26.696 27.296 29.4021 25.9297 31.8203 24.1379C31.8324 24.1295 31.8425 24.1185 31.8498 24.1057C31.8571 24.0929 31.8613 24.0786 31.8623 24.0639C32.5303 17.1619 30.7443 11.1659 27.1303 5.85192C27.1267 5.84314 27.1213 5.83522 27.1144 5.82868C27.1075 5.82213 27.0993 5.8171 27.0903 5.81392V5.81392ZM10.6943 20.4279C9.11634 20.4279 7.81834 18.9799 7.81834 17.2039C7.81834 15.4259 9.09234 13.9779 10.6943 13.9779C12.3083 13.9779 13.5943 15.4379 13.5703 17.2039C13.5703 18.9799 12.2963 20.4279 10.6943 20.4279ZM21.3263 20.4279C19.7503 20.4279 18.4503 18.9799 18.4503 17.2039C18.4503 15.4259 19.7243 13.9779 21.3263 13.9779C22.9403 13.9779 24.2283 15.4379 24.2023 17.2039C24.2023 18.9799 22.9403 20.4279 21.3263 20.4279Z" fill="white"/>
</g>
<defs>
<clipPath id="clip0_647_152">
<rect width="32" height="32" fill="white"/>
</clipPath>
</defs>
</svg>
