<svg width="32" height="32" viewBox="0 0 32 32" fill="none" xmlns="http://www.w3.org/2000/svg">
<g clip-path="url(#clip0_647_147)">
<path fill-rule="evenodd" clip-rule="evenodd" d="M9.40285 0.0955136C11.1091 0.0169666 11.6531 -0.000488281 15.9993 -0.000488281C20.3456 -0.000488281 20.8896 0.0184212 22.5944 0.0955136C24.2992 0.172606 25.4628 0.444612 26.481 0.838801C27.5472 1.24172 28.5145 1.87155 29.3145 2.68611C30.1291 3.48467 30.7575 4.45051 31.1589 5.51817C31.5546 6.53637 31.8251 7.70003 31.9037 9.40188C31.9822 11.111 31.9997 11.655 31.9997 15.9998C31.9997 20.3461 31.9808 20.8901 31.9037 22.5963C31.8266 24.2982 31.5546 25.4618 31.1589 26.48C30.7575 27.5478 30.128 28.5153 29.3145 29.315C28.5145 30.1296 27.5472 30.758 26.481 31.1594C25.4628 31.5551 24.2992 31.8256 22.5973 31.9042C20.8896 31.9827 20.3456 32.0002 15.9993 32.0002C11.6531 32.0002 11.1091 31.9813 9.40285 31.9042C7.701 31.8271 6.53734 31.5551 5.51914 31.1594C4.45136 30.7579 3.48392 30.1285 2.68417 29.315C1.87016 28.516 1.24023 27.549 0.838313 26.4815C0.444123 25.4633 0.173572 24.2996 0.0950254 22.5978C0.0164783 20.8887 -0.000976562 20.3447 -0.000976562 15.9998C-0.000976562 11.6536 0.0179329 11.1096 0.0950254 9.40479C0.172118 7.70003 0.444123 6.53637 0.838313 5.51817C1.24083 4.45063 1.87123 3.48367 2.68562 2.68466C3.48424 1.87082 4.45071 1.24091 5.51768 0.838801C6.53588 0.444612 7.69954 0.174061 9.4014 0.0955136H9.40285ZM22.4649 2.97557C20.7776 2.89848 20.2714 2.88248 15.9993 2.88248C11.7273 2.88248 11.2211 2.89848 9.53376 2.97557C7.973 3.04685 7.12644 3.30722 6.56207 3.52686C5.81587 3.81777 5.28204 4.16251 4.72203 4.72252C4.19117 5.23897 3.78264 5.86768 3.52637 6.56255C3.30673 7.12693 3.04636 7.97349 2.97508 9.53425C2.89799 11.2216 2.88199 11.7277 2.88199 15.9998C2.88199 20.2719 2.89799 20.7781 2.97508 22.4654C3.04636 24.0262 3.30673 24.8727 3.52637 25.4371C3.78237 26.131 4.19111 26.7608 4.72203 27.2772C5.2384 27.8081 5.86823 28.2168 6.56207 28.4728C7.12644 28.6925 7.973 28.9528 9.53376 29.0241C11.2211 29.1012 11.7258 29.1172 15.9993 29.1172C20.2729 29.1172 20.7776 29.1012 22.4649 29.0241C24.0257 28.9528 24.8723 28.6925 25.4366 28.4728C26.1828 28.1819 26.7167 27.8372 27.2767 27.2772C27.8076 26.7608 28.2163 26.131 28.4723 25.4371C28.692 24.8727 28.9523 24.0262 29.0236 22.4654C29.1007 20.7781 29.1167 20.2719 29.1167 15.9998C29.1167 11.7277 29.1007 11.2216 29.0236 9.53425C28.9523 7.97349 28.692 7.12693 28.4723 6.56255C28.1814 5.81636 27.8367 5.28253 27.2767 4.72252C26.7602 4.1917 26.1315 3.78317 25.4366 3.52686C24.8723 3.30722 24.0257 3.04685 22.4649 2.97557V2.97557ZM13.9557 20.9323C15.097 21.4074 16.3679 21.4715 17.5513 21.1137C18.7346 20.7559 19.7571 19.9983 20.444 18.9704C21.1308 17.9425 21.4395 16.708 21.3173 15.4778C21.1951 14.2476 20.6496 13.0979 19.774 12.2252C19.2158 11.6674 18.5408 11.2402 17.7977 10.9745C17.0546 10.7088 16.2618 10.6112 15.4764 10.6886C14.691 10.7661 13.9326 11.0167 13.2557 11.4225C12.5788 11.8282 12.0003 12.379 11.5619 13.0352C11.1234 13.6914 10.8359 14.4366 10.72 15.2172C10.6041 15.9978 10.6627 16.7945 10.8917 17.5497C11.1206 18.305 11.5141 19.0001 12.044 19.585C12.5738 20.1699 13.2267 20.63 13.9557 20.9323ZM10.184 10.1844C10.9476 9.42076 11.8543 8.81497 12.8521 8.40166C13.8499 7.98836 14.9193 7.77563 15.9993 7.77563C17.0794 7.77563 18.1488 7.98836 19.1466 8.40166C20.1444 8.81497 21.0511 9.42076 21.8147 10.1844C22.5784 10.9481 23.1842 11.8548 23.5975 12.8526C24.0108 13.8504 24.2236 14.9198 24.2236 15.9998C24.2236 17.0799 24.0108 18.1493 23.5975 19.1471C23.1842 20.1449 22.5784 21.0515 21.8147 21.8152C20.2724 23.3576 18.1805 24.224 15.9993 24.224C13.8182 24.224 11.7263 23.3576 10.184 21.8152C8.64162 20.2729 7.77514 18.181 7.77514 15.9998C7.77514 13.8186 8.64162 11.7268 10.184 10.1844V10.1844ZM26.0476 9.00042C26.2368 8.8219 26.3883 8.60722 26.4931 8.3691C26.5979 8.13097 26.6538 7.87424 26.6576 7.61411C26.6614 7.35398 26.613 7.09572 26.5152 6.85465C26.4174 6.61357 26.2722 6.39457 26.0882 6.2106C25.9043 6.02664 25.6853 5.88146 25.4442 5.78365C25.2031 5.68585 24.9449 5.63741 24.6847 5.6412C24.4246 5.64499 24.1679 5.70094 23.9297 5.80573C23.6916 5.91052 23.4769 6.06203 23.2984 6.25127C22.9512 6.61932 22.7611 7.1082 22.7685 7.61411C22.7759 8.12002 22.9801 8.60315 23.3379 8.96092C23.6957 9.31869 24.1788 9.52295 24.6847 9.53032C25.1906 9.5377 25.6795 9.34761 26.0476 9.00042V9.00042Z" fill="white"/>
</g>
<defs>
<clipPath id="clip0_647_147">
<rect width="32" height="32" fill="white"/>
</clipPath>
</defs>
</svg>
