<svg width="32" height="32" viewBox="0 0 32 32" fill="none" xmlns="http://www.w3.org/2000/svg">
<g clip-path="url(#clip0_1079_942)">
<path fill-rule="evenodd" clip-rule="evenodd" d="M9.40285 0.0960019C11.1091 0.0174549 11.6531 0 15.9993 0C20.3456 0 20.8896 0.0189095 22.5944 0.0960019C24.2992 0.173094 25.4628 0.4451 26.481 0.839289C27.5472 1.24221 28.5145 1.87204 29.3145 2.6866C30.1291 3.48516 30.7575 4.451 31.1589 5.51866C31.5546 6.53686 31.8251 7.70052 31.9037 9.40237C31.9822 11.1115 31.9997 11.6555 31.9997 16.0003C31.9997 20.3466 31.9808 20.8906 31.9037 22.5968C31.8266 24.2987 31.5546 25.4623 31.1589 26.4805C30.7575 27.5483 30.128 28.5158 29.3145 29.3155C28.5145 30.1301 27.5472 30.7585 26.481 31.1599C25.4628 31.5556 24.2992 31.8261 22.5973 31.9047C20.8896 31.9832 20.3456 32.0007 15.9993 32.0007C11.6531 32.0007 11.1091 31.9818 9.40285 31.9047C7.701 31.8276 6.53734 31.5556 5.51914 31.1599C4.45136 30.7584 3.48392 30.129 2.68417 29.3155C1.87016 28.5165 1.24023 27.5495 0.838313 26.482C0.444123 25.4638 0.173572 24.3001 0.0950254 22.5983C0.0164783 20.8892 -0.000976562 20.3452 -0.000976562 16.0003C-0.000976562 11.6541 0.0179329 11.1101 0.0950254 9.40528C0.172118 7.70052 0.444123 6.53686 0.838313 5.51866C1.24083 4.45112 1.87123 3.48416 2.68562 2.68515C3.48424 1.87131 4.45071 1.2414 5.51768 0.839289C6.53588 0.4451 7.69954 0.174549 9.4014 0.0960019H9.40285ZM22.4649 2.97606C20.7776 2.89897 20.2714 2.88297 15.9993 2.88297C11.7273 2.88297 11.2211 2.89897 9.53376 2.97606C7.973 3.04734 7.12644 3.30771 6.56207 3.52735C5.81587 3.81826 5.28204 4.163 4.72203 4.72301C4.19117 5.23946 3.78264 5.86817 3.52637 6.56304C3.30673 7.12742 3.04636 7.97398 2.97508 9.53474C2.89799 11.2221 2.88199 11.7282 2.88199 16.0003C2.88199 20.2724 2.89799 20.7786 2.97508 22.4659C3.04636 24.0267 3.30673 24.8732 3.52637 25.4376C3.78237 26.1315 4.19111 26.7613 4.72203 27.2777C5.2384 27.8086 5.86823 28.2173 6.56207 28.4733C7.12644 28.693 7.973 28.9533 9.53376 29.0246C11.2211 29.1017 11.7258 29.1177 15.9993 29.1177C20.2729 29.1177 20.7776 29.1017 22.4649 29.0246C24.0257 28.9533 24.8723 28.693 25.4366 28.4733C26.1828 28.1824 26.7167 27.8377 27.2767 27.2777C27.8076 26.7613 28.2163 26.1315 28.4723 25.4376C28.692 24.8732 28.9523 24.0267 29.0236 22.4659C29.1007 20.7786 29.1167 20.2724 29.1167 16.0003C29.1167 11.7282 29.1007 11.2221 29.0236 9.53474C28.9523 7.97398 28.692 7.12742 28.4723 6.56304C28.1814 5.81685 27.8367 5.28302 27.2767 4.72301C26.7602 4.19219 26.1315 3.78366 25.4366 3.52735C24.8723 3.30771 24.0257 3.04734 22.4649 2.97606ZM13.9557 20.9328C15.097 21.4079 16.3679 21.472 17.5513 21.1142C18.7346 20.7564 19.7571 19.9988 20.444 18.9709C21.1308 17.943 21.4395 16.7085 21.3173 15.4783C21.1951 14.2481 20.6496 13.0984 19.774 12.2257C19.2158 11.6679 18.5408 11.2407 17.7977 10.975C17.0546 10.7093 16.2618 10.6117 15.4764 10.6891C14.691 10.7666 13.9326 11.0172 13.2557 11.423C12.5788 11.8287 12.0003 12.3795 11.5619 13.0357C11.1234 13.6919 10.8359 14.4371 10.72 15.2177C10.6041 15.9983 10.6627 16.795 10.8917 17.5502C11.1206 18.3055 11.5141 19.0006 12.044 19.5855C12.5738 20.1704 13.2267 20.6305 13.9557 20.9328ZM10.184 10.1849C10.9476 9.42125 11.8543 8.81546 12.8521 8.40215C13.8499 7.98885 14.9193 7.77612 15.9993 7.77612C17.0794 7.77612 18.1488 7.98885 19.1466 8.40215C20.1444 8.81546 21.0511 9.42125 21.8147 10.1849C22.5784 10.9486 23.1842 11.8553 23.5975 12.8531C24.0108 13.8509 24.2236 14.9203 24.2236 16.0003C24.2236 17.0804 24.0108 18.1498 23.5975 19.1476C23.1842 20.1454 22.5784 21.052 21.8147 21.8157C20.2724 23.3581 18.1805 24.2245 15.9993 24.2245C13.8182 24.2245 11.7263 23.3581 10.184 21.8157C8.64162 20.2734 7.77514 18.1815 7.77514 16.0003C7.77514 13.8191 8.64162 11.7273 10.184 10.1849ZM26.0476 9.00091C26.2368 8.82239 26.3883 8.60771 26.4931 8.36959C26.5979 8.13146 26.6538 7.87473 26.6576 7.6146C26.6614 7.35447 26.613 7.09621 26.5152 6.85514C26.4174 6.61406 26.2722 6.39506 26.0882 6.21109C25.9043 6.02713 25.6853 5.88195 25.4442 5.78414C25.2031 5.68634 24.9449 5.6379 24.6847 5.64169C24.4246 5.64548 24.1679 5.70143 23.9297 5.80622C23.6916 5.91101 23.4769 6.06252 23.2984 6.25176C22.9512 6.61981 22.7611 7.10869 22.7685 7.6146C22.7759 8.12051 22.9801 8.60364 23.3379 8.96141C23.6957 9.31918 24.1788 9.52344 24.6847 9.53081C25.1906 9.53819 25.6795 9.3481 26.0476 9.00091Z" fill="black"/>
</g>
<defs>
<clipPath id="clip0_1079_942">
<rect width="32" height="32" fill="white"/>
</clipPath>
</defs>
</svg>
