<svg width="32" height="32" viewBox="0 0 32 32" fill="none" xmlns="http://www.w3.org/2000/svg">
<path d="M29.4458 6.05532L32 3.54894V3H23.1542L16.85 19.1021L9.67917 3H0.404167V3.54894L3.3875 7.23404C3.67917 7.50638 3.82917 7.90638 3.79167 8.30638V22.7872C3.88333 23.3106 3.72083 23.8426 3.3625 24.2213L0 28.4043V28.9447H9.525V28.3957L6.16667 24.2255C5.98673 24.039 5.85138 23.8125 5.77116 23.5638C5.69094 23.315 5.66802 23.0507 5.70417 22.7915V10.2638L14.0667 28.9532H15.0375L22.2292 10.2638V25.1532C22.2292 25.5447 22.2292 25.6255 21.9792 25.8851L19.3917 28.4511V29H31.9417V28.4511L29.4458 25.9447C29.2292 25.7745 29.1167 25.4894 29.1625 25.2128V6.78723C29.1409 6.65049 29.1559 6.51033 29.2057 6.38153C29.2556 6.25272 29.3385 6.14003 29.4458 6.05532V6.05532Z" fill="white"/>
</svg>
