<svg width="32" height="32" viewBox="0 0 32 32" fill="none" xmlns="http://www.w3.org/2000/svg">
<g clip-path="url(#clip0_647_157)">
<path d="M2.938 18.734C2.86 19.099 2.818 19.479 2.818 19.859C2.818 24.453 8.688 28.192 15.901 28.192C23.114 28.192 28.984 24.452 28.984 19.859C28.9844 19.4969 28.9479 19.1357 28.875 18.781L28.854 18.739C28.8294 18.6686 28.8173 18.5945 28.818 18.52C28.417 16.952 27.328 15.53 25.755 14.379C25.6957 14.3567 25.6396 14.3268 25.588 14.29C25.5556 14.2632 25.5259 14.2334 25.499 14.201C23.108 12.555 19.692 11.524 15.905 11.524C12.15 11.524 8.764 12.534 6.374 14.154C6.35586 14.1777 6.33467 14.1989 6.311 14.217C6.26063 14.2635 6.19998 14.2974 6.134 14.316C4.53 15.467 3.415 16.899 2.999 18.483C2.99659 18.562 2.97893 18.6397 2.947 18.712L2.938 18.734ZM15.969 25.984C13.578 25.984 11.896 25.468 10.818 24.39C10.7078 24.2772 10.6461 24.1257 10.6461 23.968C10.6461 23.8103 10.7078 23.6588 10.818 23.546C10.9341 23.4402 11.0854 23.3815 11.2425 23.3815C11.3996 23.3815 11.551 23.4402 11.667 23.546C12.506 24.385 13.912 24.806 15.969 24.806C18.026 24.806 19.422 24.405 20.261 23.566C20.48 23.347 20.86 23.347 21.1 23.566C21.319 23.806 21.319 24.186 21.1 24.425C20.022 25.503 18.35 26.024 15.954 26.024L15.969 25.984ZM11.161 15.891C9.942 15.891 8.927 16.912 8.927 18.125C8.927 19.338 9.943 20.323 11.161 20.323C12.38 20.323 13.364 19.339 13.364 18.125C13.364 16.911 12.374 15.891 11.161 15.891V15.891ZM20.807 15.891C19.588 15.891 18.567 16.912 18.567 18.125C18.567 19.338 19.588 20.323 20.807 20.323C22.026 20.323 23.005 19.339 23.005 18.125C23.005 16.911 22.021 15.891 20.807 15.891V15.891ZM26.87 13.76C28.25 14.875 29.271 16.192 29.787 17.635C30.0868 17.4105 30.3297 17.1187 30.4961 16.7831C30.6625 16.4475 30.7477 16.0776 30.745 15.703C30.7458 15.2529 30.621 14.8115 30.3848 14.4284C30.1485 14.0453 29.8101 13.7357 29.4075 13.5344C29.0049 13.333 28.5542 13.2479 28.1059 13.2887C27.6577 13.3294 27.2297 13.4944 26.87 13.765V13.76ZM3.615 13.286C3.29687 13.2858 2.9818 13.3482 2.68783 13.4698C2.39386 13.5915 2.12676 13.7699 1.9018 13.9948C1.67685 14.2198 1.49845 14.4869 1.37683 14.7808C1.25521 15.0748 1.19274 15.3899 1.193 15.708C1.193 16.432 1.511 17.104 2.052 17.562C2.583 16.119 3.615 14.822 5 13.723C4.59342 13.44 4.1104 13.2872 3.615 13.285V13.286ZM15.906 29.391C8.031 29.391 1.625 25.115 1.625 19.865C1.625 19.5 1.656 19.141 1.714 18.787C1.18931 18.4617 0.756434 18.0078 0.456461 17.4682C0.156488 16.9286 -0.000634988 16.3214 1.92867e-06 15.704C1.92867e-06 13.709 1.635 12.084 3.635 12.084C4.531 12.084 5.369 12.412 6.031 12.995C8.505 11.406 11.838 10.406 15.51 10.339L17.927 2.97401L18.469 3.09901C18.469 3.09901 18.49 3.09901 18.49 3.10401L24.12 4.42701C24.3513 3.88928 24.7349 3.43104 25.2236 3.10885C25.7123 2.78666 26.2847 2.61464 26.87 2.61401C28.511 2.61401 29.849 3.95301 29.849 5.59301C29.849 7.23301 28.51 8.57201 26.87 8.57201C26.0826 8.56911 25.3284 8.25469 24.772 7.69744C24.2157 7.14019 23.9026 6.38542 23.901 5.59801L18.766 4.37901L16.808 10.348C20.344 10.489 23.537 11.489 25.933 13.046C26.595 12.4262 27.4692 12.0834 28.376 12.088C30.376 12.088 32.001 13.703 32.001 15.703C32.001 17.016 31.282 18.213 30.162 18.854C30.204 19.193 30.245 19.515 30.245 19.854C30.224 25.104 23.834 29.375 15.948 29.375L15.906 29.391ZM26.807 3.80701C25.823 3.80701 25.021 4.60401 25.021 5.58801C25.021 6.57201 25.823 7.37401 26.807 7.37401C27.786 7.37401 28.583 6.57701 28.583 5.59801C28.583 4.61901 27.786 3.82201 26.786 3.82201L26.807 3.80701Z" fill="white"/>
</g>
<defs>
<clipPath id="clip0_647_157">
<rect width="32" height="32" fill="white"/>
</clipPath>
</defs>
</svg>
