<svg width="32" height="32" viewBox="0 0 32 32" fill="none" xmlns="http://www.w3.org/2000/svg">
<g clip-path="url(#clip0_1079_947)">
<path d="M2.938 18.7333C2.86 19.0983 2.818 19.4783 2.818 19.8583C2.818 24.4523 8.688 28.1913 15.901 28.1913C23.114 28.1913 28.984 24.4513 28.984 19.8583C28.9844 19.4962 28.9479 19.135 28.875 18.7803L28.854 18.7383C28.8294 18.6679 28.8173 18.5938 28.818 18.5193C28.417 16.9513 27.328 15.5293 25.755 14.3783C25.6957 14.356 25.6396 14.3261 25.588 14.2893C25.5556 14.2625 25.5259 14.2327 25.499 14.2003C23.108 12.5543 19.692 11.5233 15.905 11.5233C12.15 11.5233 8.764 12.5333 6.374 14.1533C6.35586 14.177 6.33467 14.1982 6.311 14.2163C6.26063 14.2628 6.19998 14.2967 6.134 14.3153C4.53 15.4663 3.415 16.8983 2.999 18.4823C2.99659 18.5613 2.97893 18.639 2.947 18.7113L2.938 18.7333ZM15.969 25.9833C13.578 25.9833 11.896 25.4673 10.818 24.3893C10.7078 24.2765 10.6461 24.125 10.6461 23.9673C10.6461 23.8096 10.7078 23.6581 10.818 23.5453C10.9341 23.4395 11.0854 23.3808 11.2425 23.3808C11.3996 23.3808 11.551 23.4395 11.667 23.5453C12.506 24.3843 13.912 24.8053 15.969 24.8053C18.026 24.8053 19.422 24.4043 20.261 23.5653C20.48 23.3463 20.86 23.3463 21.1 23.5653C21.319 23.8053 21.319 24.1853 21.1 24.4243C20.022 25.5023 18.35 26.0233 15.954 26.0233L15.969 25.9833ZM11.161 15.8903C9.942 15.8903 8.927 16.9113 8.927 18.1243C8.927 19.3373 9.943 20.3223 11.161 20.3223C12.38 20.3223 13.364 19.3383 13.364 18.1243C13.364 16.9103 12.374 15.8903 11.161 15.8903ZM20.807 15.8903C19.588 15.8903 18.567 16.9113 18.567 18.1243C18.567 19.3373 19.588 20.3223 20.807 20.3223C22.026 20.3223 23.005 19.3383 23.005 18.1243C23.005 16.9103 22.021 15.8903 20.807 15.8903ZM26.87 13.7593C28.25 14.8743 29.271 16.1913 29.787 17.6343C30.0868 17.4098 30.3297 17.118 30.4961 16.7824C30.6625 16.4468 30.7477 16.0769 30.745 15.7023C30.7458 15.2522 30.621 14.8108 30.3848 14.4277C30.1485 14.0446 29.8101 13.735 29.4075 13.5337C29.0049 13.3323 28.5542 13.2472 28.1059 13.288C27.6577 13.3287 27.2297 13.4937 26.87 13.7643V13.7593ZM3.615 13.2853C3.29687 13.2851 2.9818 13.3475 2.68783 13.4691C2.39386 13.5908 2.12676 13.7692 1.9018 13.9941C1.67685 14.2191 1.49845 14.4862 1.37683 14.7801C1.25521 15.0741 1.19274 15.3892 1.193 15.7073C1.193 16.4313 1.511 17.1033 2.052 17.5613C2.583 16.1183 3.615 14.8213 5 13.7223C4.59342 13.4393 4.1104 13.2865 3.615 13.2843V13.2853ZM15.906 29.3903C8.031 29.3903 1.625 25.1143 1.625 19.8643C1.625 19.4993 1.656 19.1403 1.714 18.7863C1.18931 18.461 0.756434 18.0071 0.456461 17.4675C0.156488 16.9279 -0.000634988 16.3207 1.92867e-06 15.7033C1.92867e-06 13.7083 1.635 12.0833 3.635 12.0833C4.531 12.0833 5.369 12.4113 6.031 12.9943C8.505 11.4053 11.838 10.4053 15.51 10.3383L17.927 2.97328L18.469 3.09828C18.469 3.09828 18.49 3.09828 18.49 3.10328L24.12 4.42628C24.3513 3.88855 24.7349 3.43031 25.2236 3.10812C25.7123 2.78593 26.2847 2.61391 26.87 2.61328C28.511 2.61328 29.849 3.95228 29.849 5.59228C29.849 7.23228 28.51 8.57128 26.87 8.57128C26.0826 8.56838 25.3284 8.25396 24.772 7.69671C24.2157 7.13946 23.9026 6.38469 23.901 5.59728L18.766 4.37828L16.808 10.3473C20.344 10.4883 23.537 11.4883 25.933 13.0453C26.595 12.4255 27.4692 12.0827 28.376 12.0873C30.376 12.0873 32.001 13.7023 32.001 15.7023C32.001 17.0153 31.282 18.2123 30.162 18.8533C30.204 19.1923 30.245 19.5143 30.245 19.8533C30.224 25.1033 23.834 29.3743 15.948 29.3743L15.906 29.3903ZM26.807 3.80628C25.823 3.80628 25.021 4.60328 25.021 5.58728C25.021 6.57128 25.823 7.37328 26.807 7.37328C27.786 7.37328 28.583 6.57628 28.583 5.59728C28.583 4.61828 27.786 3.82128 26.786 3.82128L26.807 3.80628Z" fill="black"/>
</g>
<defs>
<clipPath id="clip0_1079_947">
<rect width="32" height="32" fill="white"/>
</clipPath>
</defs>
</svg>
