<svg width="40" height="40" viewBox="0 0 40 40" fill="none" xmlns="http://www.w3.org/2000/svg">
<g clip-path="url(#clip0_1863_1103)">
<path fill-rule="evenodd" clip-rule="evenodd" d="M27.6422 21.8865C28.5753 21.8435 28.8728 21.834 31.2497 21.834C33.6265 21.834 33.924 21.8443 34.8564 21.8865C35.7887 21.9286 36.425 22.0774 36.9818 22.293C37.5649 22.5133 38.0939 22.8578 38.5314 23.3032C38.9769 23.7399 39.3206 24.2681 39.5401 24.852C39.7565 25.4088 39.9044 26.0452 39.9474 26.9759C39.9903 27.9106 39.9999 28.2081 39.9999 30.5841C39.9999 32.961 39.9895 33.2585 39.9474 34.1916C39.9052 35.1223 39.7565 35.7587 39.5401 36.3155C39.3206 36.8995 38.9763 37.4286 38.5314 37.8659C38.0939 38.3114 37.5649 38.655 36.9818 38.8745C36.425 39.0909 35.7887 39.2389 34.8579 39.2819C33.924 39.3248 33.6265 39.3344 31.2497 39.3344C28.8728 39.3344 28.5753 39.324 27.6422 39.2819C26.7115 39.2397 26.0752 39.0909 25.5183 38.8745C24.9344 38.655 24.4053 38.3108 23.968 37.8659C23.5228 37.4289 23.1783 36.9001 22.9585 36.3163C22.7429 35.7595 22.595 35.1231 22.552 34.1924C22.5091 33.2578 22.4995 32.9603 22.4995 30.5841C22.4995 28.2073 22.5099 27.9098 22.552 26.9775C22.5942 26.0452 22.7429 25.4088 22.9585 24.852C23.1786 24.2682 23.5234 23.7394 23.9687 23.3024C24.4055 22.8574 24.934 22.5129 25.5175 22.293C26.0744 22.0774 26.7107 21.9294 27.6414 21.8865H27.6422ZM34.7855 23.4615C33.8628 23.4194 33.586 23.4106 31.2497 23.4106C28.9134 23.4106 28.6366 23.4194 27.7138 23.4615C26.8603 23.5005 26.3973 23.6429 26.0887 23.763C25.6806 23.9221 25.3887 24.1106 25.0824 24.4169C24.7921 24.6993 24.5687 25.0431 24.4285 25.4231C24.3084 25.7318 24.166 26.1948 24.127 27.0483C24.0849 27.9711 24.0761 28.2478 24.0761 30.5841C24.0761 32.9204 24.0849 33.1973 24.127 34.12C24.166 34.9736 24.3084 35.4365 24.4285 35.7452C24.5685 36.1246 24.7921 36.4691 25.0824 36.7515C25.3648 37.0418 25.7092 37.2653 26.0887 37.4053C26.3973 37.5255 26.8603 37.6678 27.7138 37.7068C28.6366 37.749 28.9126 37.7577 31.2497 37.7577C33.5868 37.7577 33.8628 37.749 34.7855 37.7068C35.6391 37.6678 36.1021 37.5255 36.4107 37.4053C36.8188 37.2462 37.1107 37.0577 37.417 36.7515C37.7073 36.4691 37.9308 36.1246 38.0708 35.7452C38.191 35.4365 38.3333 34.9736 38.3723 34.12C38.4145 33.1973 38.4232 32.9204 38.4232 30.5841C38.4232 28.2478 38.4145 27.9711 38.3723 27.0483C38.3333 26.1948 38.191 25.7318 38.0708 25.4231C37.9117 25.0151 37.7232 24.7231 37.417 24.4169C37.1345 24.1266 36.7907 23.9032 36.4107 23.763C36.1021 23.6429 35.6391 23.5005 34.7855 23.4615ZM30.1321 33.2816C30.7562 33.5414 31.4512 33.5765 32.0984 33.3808C32.7455 33.1851 33.3047 32.7708 33.6804 32.2087C34.056 31.6466 34.2248 30.9714 34.1579 30.2987C34.0911 29.6259 33.7928 28.9972 33.314 28.5199C33.0087 28.2149 32.6395 27.9812 32.2332 27.8359C31.8268 27.6906 31.3932 27.6373 30.9637 27.6796C30.5342 27.722 30.1194 27.859 29.7493 28.0809C29.3791 28.3028 29.0627 28.604 28.823 28.9629C28.5832 29.3217 28.4259 29.7293 28.3625 30.1562C28.2992 30.583 28.3312 31.0187 28.4564 31.4317C28.5816 31.8448 28.7968 32.2249 29.0866 32.5448C29.3763 32.8647 29.7334 33.1163 30.1321 33.2816ZM28.0694 27.4038C28.487 26.9862 28.9829 26.6549 29.5285 26.4289C30.0742 26.2029 30.659 26.0865 31.2497 26.0865C31.8403 26.0865 32.4252 26.2029 32.9708 26.4289C33.5165 26.6549 34.0124 26.9862 34.43 27.4038C34.8476 27.8215 35.1789 28.3173 35.4049 28.863C35.631 29.4087 35.7473 29.9935 35.7473 30.5841C35.7473 31.1748 35.631 31.7596 35.4049 32.3053C35.1789 32.851 34.8476 33.3468 34.43 33.7644C33.5865 34.6079 32.4425 35.0818 31.2497 35.0818C30.0569 35.0818 28.9129 34.6079 28.0694 33.7644C27.2259 32.921 26.7521 31.777 26.7521 30.5841C26.7521 29.3913 27.2259 28.2473 28.0694 27.4038ZM36.7448 26.7564C36.8483 26.6587 36.9311 26.5413 36.9885 26.4111C37.0458 26.2809 37.0763 26.1405 37.0784 25.9982C37.0805 25.856 37.054 25.7147 37.0005 25.5829C36.9471 25.451 36.8677 25.3313 36.767 25.2307C36.6665 25.1301 36.5467 25.0507 36.4148 24.9972C36.283 24.9437 36.1418 24.9172 35.9995 24.9193C35.8572 24.9214 35.7169 24.952 35.5866 25.0093C35.4564 25.0666 35.339 25.1494 35.2414 25.2529C35.0515 25.4542 34.9475 25.7215 34.9516 25.9982C34.9556 26.2749 35.0673 26.5391 35.263 26.7348C35.4586 26.9304 35.7228 27.0421 35.9995 27.0461C36.2762 27.0502 36.5435 26.9462 36.7448 26.7564Z" fill="black"/>
</g>
<g clip-path="url(#clip1_1863_1103)">
<path d="M16.3188 23.5681L0.817141 29.3593C-0.240781 29.7709 -0.234661 30.3427 0.623044 30.5977L4.60293 31.8005L13.8112 26.1719C14.2466 25.9152 14.6444 26.0533 14.3175 26.3345L6.85694 32.8576H6.85519L6.85694 32.8584L6.58241 36.8327C6.98458 36.8327 7.16204 36.654 7.38762 36.4431L9.32072 34.6219L13.3417 37.4993C14.0831 37.8949 14.6156 37.6916 14.8001 36.8344L17.4396 24.7827C17.7098 23.7333 17.0261 23.2581 16.3188 23.5681Z" fill="black"/>
</g>
<g clip-path="url(#clip2_1863_1103)">
<path d="M18.5 5.16862C18.0127 5.89366 17.4148 6.51171 16.7064 7.02279C16.7134 7.15986 16.7169 7.31478 16.7169 7.48757C16.7169 8.44755 16.577 9.40868 16.2971 10.371C16.0172 11.3333 15.5898 12.2544 15.0147 13.1343C14.4396 14.0142 13.7545 14.7937 12.9594 15.4728C12.1645 16.152 11.2088 16.6934 10.0925 17.0973C8.97623 17.5012 7.77988 17.7031 6.50348 17.7031C4.51142 17.7031 2.67693 17.1652 1 16.0894C1.29763 16.1225 1.58309 16.1391 1.85637 16.1391C3.52057 16.1391 5.00698 15.6264 6.31558 14.6009C5.53964 14.5867 4.84472 14.3478 4.23082 13.8842C3.61693 13.4206 3.19447 12.8282 2.96343 12.107C3.19179 12.1506 3.41719 12.1723 3.6396 12.1723C3.95975 12.1723 4.27478 12.1305 4.58468 12.047C3.75659 11.8811 3.06963 11.4686 2.52379 10.8094C1.97796 10.1502 1.70505 9.38943 1.70505 8.52696V8.4825C2.21332 8.76403 2.75549 8.91376 3.33153 8.9317C2.84098 8.60461 2.45205 8.17805 2.16473 7.65207C1.8774 7.12603 1.73373 6.5568 1.73373 5.94435C1.73373 5.2984 1.89556 4.69691 2.2192 4.13987C3.11973 5.24521 4.2109 6.12863 5.49272 6.79013C6.77456 7.45164 8.14973 7.81903 9.6182 7.89225C9.55559 7.63118 9.5242 7.35874 9.52409 7.07492C9.52409 6.08391 9.87474 5.23773 10.5759 4.53639C11.2772 3.83504 12.1232 3.48438 13.114 3.48438C14.1513 3.48438 15.025 3.86217 15.7352 4.61776C16.5466 4.457 17.3064 4.16624 18.0144 3.74546C17.7416 4.60417 17.216 5.26661 16.4375 5.73278C17.153 5.64774 17.8405 5.45968 18.4999 5.16862H18.5Z" fill="black"/>
</g>
<g clip-path="url(#clip3_1863_1103)">
<path d="M37.315 4.17881C36.1803 3.65804 34.9829 3.28635 33.7527 3.07303C33.7416 3.07115 33.7301 3.07277 33.7199 3.07766C33.7097 3.08256 33.7013 3.09049 33.6958 3.10037C33.5416 3.37381 33.3709 3.73146 33.2517 4.01146C31.9257 3.81022 30.5769 3.81022 29.2508 4.01146C29.1178 3.69955 28.9674 3.39537 28.8002 3.10037C28.7946 3.0906 28.7862 3.08276 28.776 3.07788C28.7658 3.073 28.7544 3.07131 28.7433 3.07303C27.5128 3.28521 26.3152 3.65709 25.181 4.17881C25.1713 4.18251 25.1631 4.18947 25.158 4.1985C22.8896 7.58802 22.2672 10.8944 22.5724 14.1593C22.5735 14.1746 22.5833 14.1899 22.5953 14.1997C23.9163 15.1782 25.3938 15.9253 26.9649 16.4091C26.976 16.4126 26.9879 16.4125 26.9989 16.4087C27.0099 16.405 27.0195 16.3978 27.0261 16.3883C27.363 15.929 27.6627 15.4444 27.9208 14.9347C27.9262 14.9242 27.928 14.9123 27.9261 14.9007C27.9241 14.889 27.9184 14.8784 27.9099 14.8702C27.9042 14.8649 27.8975 14.8608 27.8902 14.8582C27.419 14.6771 26.9626 14.4595 26.5252 14.2074C26.513 14.2005 26.5039 14.1891 26.4998 14.1757C26.4957 14.1622 26.497 14.1477 26.5033 14.1352C26.507 14.1271 26.5127 14.1199 26.5197 14.1144C26.6116 14.0455 26.7035 13.9733 26.791 13.9011C26.7987 13.895 26.808 13.8909 26.8178 13.8896C26.8276 13.8882 26.8376 13.8896 26.8467 13.8935C29.7113 15.2016 32.812 15.2016 35.6416 13.8935C35.651 13.8894 35.6614 13.888 35.6716 13.8893C35.6818 13.8906 35.6915 13.8947 35.6995 13.9011C35.787 13.9733 35.8789 14.0455 35.9708 14.1144C35.9783 14.1199 35.9842 14.1271 35.9882 14.1354C35.9922 14.1437 35.994 14.1529 35.9936 14.1621C35.9932 14.1713 35.9905 14.1803 35.9857 14.1882C35.981 14.1961 35.9743 14.2027 35.9664 14.2074C35.5301 14.4618 35.0731 14.6791 34.6003 14.8571C34.5928 14.8598 34.5859 14.8642 34.5803 14.8698C34.5746 14.8755 34.5702 14.8823 34.5675 14.8899C34.565 14.8972 34.564 14.9049 34.5646 14.9126C34.5651 14.9204 34.5672 14.9279 34.5708 14.9347C34.8333 15.4433 35.1341 15.929 35.4644 16.3883C35.4711 16.3978 35.4806 16.405 35.4916 16.4087C35.5027 16.4125 35.5146 16.4126 35.5256 16.4091C37.0994 15.9268 38.5793 15.1796 39.9017 14.1997C39.9083 14.1951 39.9139 14.1891 39.9179 14.1821C39.9219 14.1751 39.9241 14.1673 39.9247 14.1593C40.29 10.3847 39.3133 7.10567 37.3369 4.19959C37.3349 4.19479 37.332 4.19046 37.3282 4.18688C37.3244 4.1833 37.3199 4.18055 37.315 4.17881ZM28.3484 12.1708C27.4855 12.1708 26.7757 11.379 26.7757 10.4077C26.7757 9.43536 27.4724 8.64348 28.3484 8.64348C29.2311 8.64348 29.9344 9.44192 29.9213 10.4077C29.9213 11.379 29.2245 12.1708 28.3484 12.1708ZM34.1628 12.1708C33.3009 12.1708 32.59 11.379 32.59 10.4077C32.59 9.43536 33.2867 8.64348 34.1628 8.64348C35.0455 8.64348 35.7499 9.44192 35.7356 10.4077C35.7356 11.379 35.0455 12.1708 34.1628 12.1708Z" fill="black"/>
</g>
<defs>
<clipPath id="clip0_1863_1103">
<rect width="17.5" height="17.5" fill="white" transform="translate(22.5 21.834)"/>
</clipPath>
<clipPath id="clip1_1863_1103">
<rect width="17.5" height="17.5" fill="white" transform="translate(0 21.834)"/>
</clipPath>
<clipPath id="clip2_1863_1103">
<rect width="17.5" height="17.5" fill="white" transform="translate(1 2)"/>
</clipPath>
<clipPath id="clip3_1863_1103">
<rect width="17.5" height="17.5" fill="white" transform="translate(22.5 1)"/>
</clipPath>
</defs>
</svg>
