<svg width="32" height="32" viewBox="0 0 32 32" fill="none" xmlns="http://www.w3.org/2000/svg">
<path d="M28.3177 7.50617C26.7164 7.15534 25.2679 6.30812 24.1799 5.0861C23.0919 3.86408 22.4204 2.33007 22.2618 0.704204V0H16.7199V21.8783C16.721 22.8491 16.4156 23.7956 15.8468 24.5838C15.278 25.372 14.4747 25.9619 13.5507 26.27C12.6267 26.578 11.6289 26.5886 10.6985 26.3002C9.76815 26.0118 8.95244 25.4391 8.36694 24.6631C7.84239 23.9763 7.52118 23.1569 7.43965 22.2976C7.35811 21.4384 7.5195 20.5736 7.90557 19.8009C8.29163 19.0283 8.88696 18.3787 9.62424 17.9256C10.3615 17.4725 11.2113 17.234 12.0776 17.237C12.5567 17.2343 13.0333 17.3044 13.4912 17.445V11.8434C12.9584 11.7777 12.4215 11.7509 11.8848 11.7634C9.90792 11.816 7.98932 12.4419 6.36397 13.5644C4.73862 14.6868 3.47706 16.2571 2.73379 18.0831C1.99051 19.909 1.79778 21.9112 2.17918 23.8446C2.56059 25.778 3.49958 27.5586 4.88118 28.9684C6.29715 30.4027 8.10911 31.3853 10.0868 31.7913C12.0646 32.1972 14.1188 32.0083 15.9885 31.2484C17.8582 30.4885 19.4589 29.192 20.5874 27.5236C21.7158 25.8552 22.321 23.8902 22.326 21.8783V10.6751C24.5612 12.2659 27.2415 13.1168 29.9883 13.1078V7.66622C29.4487 7.66843 28.9104 7.6148 28.3819 7.50617H28.3177Z" fill="white"/>
</svg>
