<svg width="32" height="32" viewBox="0 0 32 32" fill="none" xmlns="http://www.w3.org/2000/svg">
<path d="M32 5.79535C31.1089 7.12112 30.0156 8.25128 28.7203 9.18583C28.733 9.43647 28.7394 9.71975 28.7394 10.0357C28.7394 11.7911 28.4836 13.5486 27.9718 15.3082C27.4601 17.0679 26.6784 18.7522 25.6268 20.3612C24.5752 21.9701 23.3225 23.3955 21.8687 24.6373C20.415 25.8792 18.6675 26.8693 16.6263 27.6078C14.5851 28.3463 12.3975 28.7156 10.0635 28.7156C6.42088 28.7156 3.06638 27.732 0 25.7648C0.544246 25.8253 1.06622 25.8556 1.56593 25.8556C4.60905 25.8556 7.32705 24.9181 9.71992 23.043C8.30105 23.017 7.03034 22.5801 5.90779 21.7324C4.78525 20.8847 4.01274 19.8015 3.59027 18.4827C4.00785 18.5623 4.42 18.6021 4.8267 18.6021C5.41212 18.6021 5.98817 18.5257 6.55484 18.3729C5.04063 18.0696 3.78447 17.3153 2.78635 16.1099C1.78827 14.9046 1.28923 13.5134 1.28923 11.9363V11.855C2.21865 12.3698 3.21003 12.6436 4.26336 12.6764C3.36636 12.0783 2.65517 11.2983 2.12979 10.3365C1.60439 9.37461 1.34168 8.33373 1.34168 7.21381C1.34168 6.03266 1.63759 4.93279 2.2294 3.9142C3.87607 5.93539 5.87136 7.55078 8.21526 8.76039C10.5592 9.97001 13.0738 10.6418 15.759 10.7757C15.6445 10.2983 15.5871 9.80014 15.5869 9.28114C15.5869 7.46901 16.2281 5.92172 17.5103 4.63926C18.7926 3.3568 20.3396 2.71558 22.1513 2.71558C24.0481 2.71558 25.6458 3.4064 26.9444 4.78806C28.4281 4.4941 29.8174 3.96241 31.1121 3.19299C30.6133 4.76321 29.6521 5.97453 28.2285 6.82695C29.5369 6.67144 30.7941 6.32757 31.9999 5.79535H32Z" fill="white"/>
</svg>
