<svg width="32" height="32" viewBox="0 0 32 32" fill="none" xmlns="http://www.w3.org/2000/svg">
<path d="M32 5.79461C31.1089 7.12038 30.0156 8.25054 28.7203 9.18509C28.733 9.43573 28.7394 9.71901 28.7394 10.035C28.7394 11.7904 28.4836 13.5479 27.9718 15.3075C27.4601 17.0672 26.6784 18.7515 25.6268 20.3605C24.5752 21.9694 23.3225 23.3948 21.8687 24.6366C20.415 25.8785 18.6675 26.8686 16.6263 27.6071C14.5851 28.3456 12.3975 28.7149 10.0635 28.7149C6.42088 28.7149 3.06638 27.7313 0 25.7641C0.544246 25.8246 1.06622 25.8549 1.56593 25.8549C4.60905 25.8549 7.32705 24.9174 9.71992 23.0423C8.30105 23.0163 7.03034 22.5794 5.90779 21.7317C4.78525 20.884 4.01274 19.8008 3.59027 18.482C4.00785 18.5616 4.42 18.6014 4.8267 18.6014C5.41212 18.6014 5.98817 18.525 6.55484 18.3722C5.04063 18.0689 3.78447 17.3146 2.78635 16.1092C1.78827 14.9039 1.28923 13.5127 1.28923 11.9356V11.8543C2.21865 12.3691 3.21003 12.6429 4.26336 12.6757C3.36636 12.0776 2.65517 11.2976 2.12979 10.3358C1.60439 9.37387 1.34168 8.33299 1.34168 7.21307C1.34168 6.03192 1.63759 4.93205 2.2294 3.91346C3.87607 5.93465 5.87136 7.55004 8.21526 8.75965C10.5592 9.96927 13.0738 10.6411 15.759 10.775C15.6445 10.2976 15.5871 9.7994 15.5869 9.2804C15.5869 7.46827 16.2281 5.92098 17.5103 4.63852C18.7926 3.35606 20.3396 2.71484 22.1513 2.71484C24.0481 2.71484 25.6458 3.40566 26.9444 4.78732C28.4281 4.49336 29.8174 3.96167 31.1121 3.19225C30.6133 4.76247 29.6521 5.97379 28.2285 6.82621C29.5369 6.6707 30.7941 6.32683 31.9999 5.79461H32Z" fill="black"/>
</svg>
