<svg fill="#000000" xmlns="http://www.w3.org/2000/svg"  viewBox="0 0 48 48" width="24px" height="24px"><path d="M 25.421875 3.6503906 A 1.50015 1.50015 0 0 0 24.390625 4.1035156 L 11.248047 17.248047 L 6.6035156 21.890625 C 4.4681797 24.025961 4.4681797 27.532633 6.6035156 29.667969 L 7.6640625 30.728516 L 7.2050781 31.189453 C 4.2888176 34.105714 4.2888176 38.878661 7.2050781 41.794922 C 10.121339 44.711182 14.894286 44.711182 17.810547 41.794922 L 18.271484 41.335938 L 19.332031 42.396484 C 21.467367 44.53182 24.974039 44.53182 27.109375 42.396484 L 31.751953 37.751953 L 44.896484 24.609375 A 1.50015 1.50015 0 0 0 43.806641 22.035156 A 1.50015 1.50015 0 0 0 42.775391 22.488281 L 30.691406 34.570312 L 28.216797 32.095703 L 40.300781 20.013672 A 1.50015 1.50015 0 0 0 39.210938 17.439453 A 1.50015 1.50015 0 0 0 38.179688 17.892578 L 26.095703 29.974609 L 23.621094 27.5 L 35.703125 15.417969 A 1.50015 1.50015 0 0 0 34.613281 12.841797 A 1.50015 1.50015 0 0 0 33.582031 13.296875 L 21.5 25.378906 L 19.941406 23.820312 L 19.025391 22.904297 L 31.107422 10.820312 A 1.50015 1.50015 0 0 0 30.017578 8.2460938 A 1.50015 1.50015 0 0 0 28.986328 8.6992188 L 16.904297 20.783203 L 14.429688 18.308594 L 26.511719 6.2246094 A 1.50015 1.50015 0 0 0 25.421875 3.6503906 z M 12.308594 20.429688 L 15.634766 23.755859 A 1.50015 1.50015 0 0 0 16.056641 24.177734 A 1.50015 1.50015 0 0 0 16.064453 24.183594 L 17.820312 25.941406 L 20.230469 28.351562 A 1.50015 1.50015 0 0 0 20.652344 28.773438 A 1.50015 1.50015 0 0 0 20.660156 28.779297 L 24.826172 32.947266 A 1.50015 1.50015 0 0 0 25.248047 33.369141 A 1.50015 1.50015 0 0 0 25.255859 33.375 L 28.570312 36.691406 L 24.988281 40.273438 C 23.999617 41.262101 22.441789 41.262101 21.453125 40.273438 L 19.332031 38.154297 A 1.50015 1.50015 0 0 0 17.210938 38.154297 L 15.689453 39.673828 C 13.919714 41.443568 11.095911 41.443568 9.3261719 39.673828 C 7.5564324 37.904089 7.5564324 35.080286 9.3261719 33.310547 L 10.845703 31.789062 A 1.50015 1.50015 0 0 0 10.845703 29.667969 L 8.7265625 27.546875 C 7.7378984 26.558211 7.7378984 25.000383 8.7265625 24.011719 L 12.308594 20.429688 z M 12.5 34.5 A 2 2 0 0 0 12.5 38.5 A 2 2 0 0 0 12.5 34.5 z"/></svg>