<svg id="Layer_1" data-name="Layer 1" xmlns="http://www.w3.org/2000/svg" viewBox="0 0 24 24"><path d="M19,7.5H16.5V7a4.5,4.5,0,0,0-9,0v.5H5A2.50263,2.50263,0,0,0,2.5,10v7A4.50491,4.50491,0,0,0,7,21.5H17A4.50491,4.50491,0,0,0,21.5,17V10A2.50263,2.50263,0,0,0,19,7.5ZM8.5,7a3.5,3.5,0,0,1,7,0v.5h-7Zm12,10A3.50424,3.50424,0,0,1,17,20.5H7A3.50424,3.50424,0,0,1,3.5,17V10A1.50164,1.50164,0,0,1,5,8.5H7.5V11a.5.5,0,0,0,1,0V8.5h7V11a.5.5,0,0,0,1,0V8.5H19A1.50164,1.50164,0,0,1,20.5,10Zm-5,0a.49971.49971,0,0,1-.5.5H9a.5.5,0,0,1,0-1h6A.49971.49971,0,0,1,15.5,17Z"/></svg>