<svg fill="#000000" xmlns="http://www.w3.org/2000/svg"  viewBox="0 0 48 48" width="24px" height="24px"><path d="M 16.476562 0.97851562 A 1.50015 1.50015 0 0 0 15 2.5 L 15 4 L 12.501953 4 A 1.50015 1.50015 0 0 0 11.001953 5.5 L 11.001953 14.083984 C 11.001953 15.246993 11.271099 16.395012 11.792969 17.4375 L 13.525391 20.904297 C 13.836964 21.52886 14 22.21874 14 22.916016 L 14 36 C 14 41.504822 18.495178 46 24 46 C 29.504822 46 34 41.504822 34 36 L 34 22.916016 C 34 22.218098 34.163576 21.529976 34.476562 20.90625 A 1.50015 1.50015 0 0 0 34.476562 20.904297 L 36.208984 17.4375 A 1.50015 1.50015 0 0 0 36.210938 17.4375 C 36.730804 16.396518 37.001953 15.248067 37.001953 14.083984 L 37.001953 5.5 A 1.50015 1.50015 0 0 0 35.501953 4 L 33 4 L 33 2.5 A 1.50015 1.50015 0 0 0 31.476562 0.97851562 A 1.50015 1.50015 0 0 0 30 2.5 L 30 4 L 28 4 L 28 2.5 A 1.50015 1.50015 0 0 0 26.476562 0.97851562 A 1.50015 1.50015 0 0 0 25 2.5 L 25 4 L 23 4 L 23 2.5 A 1.50015 1.50015 0 0 0 21.476562 0.97851562 A 1.50015 1.50015 0 0 0 20 2.5 L 20 4 L 18 4 L 18 2.5 A 1.50015 1.50015 0 0 0 16.476562 0.97851562 z M 14.001953 7 L 15 7 L 15 7.5 A 1.50015 1.50015 0 1 0 18 7.5 L 18 7 L 20 7 L 20 7.5 A 1.50015 1.50015 0 1 0 23 7.5 L 23 7 L 25 7 L 25 7.5 A 1.50015 1.50015 0 1 0 28 7.5 L 28 7 L 30 7 L 30 7.5 A 1.50015 1.50015 0 1 0 33 7.5 L 33 7 L 34.001953 7 L 34.001953 13 L 14.001953 13 L 14.001953 7 z M 14.451172 16 L 33.548828 16 C 33.534388 16.03063 33.540531 16.067316 33.525391 16.097656 L 31.794922 19.560547 C 31.271911 20.602817 31 21.751933 31 22.916016 L 31 36 C 31 39.883178 27.883178 43 24 43 C 20.116822 43 17 39.883178 17 36 L 17 22.916016 C 17 21.751933 16.72885 20.603482 16.208984 19.5625 L 14.476562 16.095703 A 1.50015 1.50015 0 0 0 14.474609 16.095703 C 14.459729 16.065973 14.465412 16.03002 14.451172 16 z M 23.933594 22 C 21.22694 22 19 24.22694 19 26.933594 L 19 32 C 19 34.743657 21.256343 37 24 37 C 26.743657 37 29.000534 34.743237 29.001953 32 L 29.001953 26.933594 C 29.001953 24.22694 26.775013 22 24.068359 22 L 23.933594 22 z M 25.941406 26.470703 C 25.976797 26.61938 26.001953 26.772466 26.001953 26.933594 L 26.001953 32 C 26.001372 33.122763 25.122343 34 24 34 C 22.877657 34 22 33.122343 22 32 L 22 26.933594 C 22 26.773996 22.023854 26.62201 22.058594 26.474609 A 2 2 0 0 0 24 28 A 2 2 0 0 0 25.941406 26.470703 z"/></svg>