<svg fill="#000000" xmlns="http://www.w3.org/2000/svg"  viewBox="0 0 48 48" width="24px" height="24px"><path d="M 24 2 C 14.676471 2 10.197266 9.7558594 10.197266 9.7558594 A 1.50015 1.50015 0 0 0 10.138672 11.128906 L 16.025391 23.882812 C 15.376505 25.415949 15 27.139103 15 28.96875 C 15 31.544549 16.317547 33.758827 17.646484 35.488281 C 18.13537 36.124495 18.146719 36.955997 17.679688 37.564453 C 16.856184 38.637409 15.92143 39.956628 15.310547 41.294922 C 14.331626 43.438971 15.962337 46.001953 18.326172 46.001953 L 29.673828 46.001953 C 32.031061 46.001953 33.673163 43.452547 32.697266 41.306641 A 1.50015 1.50015 0 0 0 32.556641 41.0625 L 30.390625 37.996094 C 29.826089 37.196434 29.861149 36.145128 30.474609 35.330078 C 31.757186 33.625393 33 31.468114 33 28.970703 C 33 27.160037 32.646813 25.44371 32.009766 23.921875 A 1.50015 1.50015 0 0 0 31.982422 23.865234 L 37.861328 11.128906 A 1.50015 1.50015 0 0 0 37.802734 9.7558594 C 37.802734 9.7558594 33.323529 2 24 2 z M 24 5 C 30.490409 5 33.850437 9.2612768 34.783203 10.640625 L 29.541016 22 L 28.115234 22 L 29.976562 11.767578 A 1.500611 1.500611 0 1 0 27.023438 11.232422 L 25.066406 22 L 22.933594 22 L 20.976562 11.232422 A 1.500611 1.500611 0 1 0 18.023438 11.767578 L 19.884766 22 L 18.458984 22 L 13.216797 10.640625 C 14.149563 9.2612768 17.509591 5 24 5 z M 18.808594 25 L 29.208984 25 A 1.50015 1.50015 0 0 0 29.242188 25.082031 C 29.721143 26.226198 30 27.551369 30 28.970703 C 30 30.413292 29.165552 32.082029 28.078125 33.527344 C 26.71959 35.332294 26.613942 37.846224 27.941406 39.726562 L 29.949219 42.572266 C 30.039339 42.814709 29.949389 43.001953 29.673828 43.001953 L 18.326172 43.001953 C 18.030006 43.001953 17.913983 42.813014 18.039062 42.539062 C 18.466179 41.603356 19.304098 40.373669 20.058594 39.390625 C 21.361566 37.693081 21.308502 35.329942 20.025391 33.660156 C 18.892325 32.185611 18 30.456951 18 28.96875 C 18 27.513236 18.307233 26.164533 18.808594 25 z"/></svg>