<svg fill="#000000" xmlns="http://www.w3.org/2000/svg"  viewBox="0 0 48 48" width="24px" height="24px"><path d="M 33.363281 2.0097656 C 31.991173 2.0097656 30.691628 2.6274706 29.824219 3.6894531 A 1.50015 1.50015 0 0 0 29.822266 3.6894531 C 28.902838 4.8152467 27.128147 6.5834097 25.417969 8.3710938 C 23.70779 10.158778 22.05968 11.911594 21.169922 13.572266 C 20.80698 14.249469 20.435231 15.171981 20.0625 16.191406 L 15.884766 16.787109 C 15.352378 14.332667 12.919985 12.318369 9.8691406 12.033203 C 9.6261406 12.010203 9.3825312 12 9.1445312 12 C 5.8795312 12 3.2017187 14.081531 3.0117188 16.894531 C 2.8077187 19.913531 5.5468594 22.631797 9.1308594 22.966797 C 9.1531422 22.968906 9.1750012 22.968795 9.1972656 22.970703 C 9.2055903 22.972455 13.028325 23.758326 17.5625 24.416016 C 17.523859 24.557635 17.48366 24.700761 17.445312 24.841797 C 16.279345 29.13001 15.374739 32.904296 15.357422 32.976562 C 14.592126 35.478038 15.113034 38.034564 16.564453 39.580078 C 16.167015 40.394763 15.934643 41.253285 15.931641 42.117188 C 15.927041 43.432972 16.465516 44.776086 17.550781 45.662109 A 1.5005046 1.5005046 0 1 0 19.449219 43.337891 C 19.096484 43.049914 18.929714 42.683372 18.931641 42.128906 C 18.932809 41.788013 19.031037 41.38461 19.21875 40.96875 C 19.425389 40.997969 19.632193 41.025391 19.839844 41.025391 C 22.159844 41.025391 24.493766 39.246797 25.509766 36.466797 C 26.502649 33.748848 25.933123 30.893726 24.279297 29.287109 L 26.384766 25.046875 C 27.68093 25.090628 28.921524 25.031624 29.576172 24.998047 C 33.013684 24.822265 38.8639 23.151102 41.994141 22.246094 C 43.364809 21.850709 44.249852 20.867418 44.689453 20.009766 A 1.50015 1.50015 0 0 0 44.691406 20.007812 C 45.140737 19.128767 45.031967 18.293993 44.712891 17.5625 C 44.393814 16.831007 43.643149 16.001514 42.501953 16 A 1.50015 1.50015 0 0 0 42.5 16 L 30.900391 16 L 35.78125 5.546875 A 1.50015 1.50015 0 0 0 35.814453 5.46875 C 36.458882 3.8589173 35.206325 2.0097656 33.472656 2.0097656 L 33.363281 2.0097656 z M 32.537109 5.4023438 L 27.519531 16.148438 A 1.50015 1.50015 0 0 0 27.501953 16.185547 C 27.37784 16.470856 27.226457 16.742122 27.048828 16.996094 A 1.50015 1.50015 0 0 0 26.933594 17.189453 L 21.552734 28.035156 C 21.421758 28.023627 21.291388 28 21.160156 28 C 20.653776 28 20.148086 28.100303 19.654297 28.261719 C 19.889914 27.357625 20.070815 26.625526 20.341797 25.628906 C 21.504884 21.35129 23.029993 16.453937 23.814453 14.990234 C 24.339695 14.009906 25.914616 12.192379 27.585938 10.445312 C 29.257258 8.6982471 31.020912 6.966097 32.146484 5.5878906 C 32.242974 5.4697525 32.414771 5.4863163 32.537109 5.4023438 z M 9.1445312 15 C 9.2915313 15 9.4427969 15.007484 9.5917969 15.021484 C 11.497797 15.199484 13.088094 16.545344 12.996094 17.902344 C 12.917094 19.078344 11.537469 20 9.8554688 20 C 9.7084687 20 9.5572031 19.992516 9.4082031 19.978516 C 7.5022031 19.800516 5.9119062 18.454656 6.0039062 17.097656 C 6.0829062 15.921656 7.4625313 15 9.1445312 15 z M 29.384766 19 L 41.59375 19 C 41.4632 19.121675 41.414339 19.290523 41.162109 19.363281 C 38.08035 20.254273 31.970316 21.871735 29.423828 22.001953 C 29.053435 22.020949 28.47786 22.044832 27.867188 22.056641 L 29.384766 19 z M 19.011719 19.371094 C 18.79797 20.071587 18.583167 20.769052 18.373047 21.503906 C 17.077884 21.320064 15.884945 21.136728 14.767578 20.947266 C 15.059815 20.618796 15.305803 20.25826 15.5 19.871094 L 19.011719 19.371094 z M 21.160156 31 C 21.342156 31 21.510734 31.032656 21.677734 31.097656 C 22.752734 31.516656 23.434406 33.4025 22.691406 35.4375 C 22.070406 37.1365 20.786844 38.025391 19.839844 38.025391 C 19.657844 38.025391 19.487312 37.994687 19.320312 37.929688 C 18.245313 37.510688 17.565594 35.624844 18.308594 33.589844 C 18.930594 31.889844 20.213156 31 21.160156 31 z"/></svg>