<svg fill="#000000" xmlns="http://www.w3.org/2000/svg"  viewBox="0 0 48 48" width="24px" height="24px"><path d="M 24 1 C 22.458334 1 21.112148 1.6321334 20.253906 2.5976562 C 19.395664 3.5631792 19 4.7916668 19 6 C 19 6.6820412 19.163588 7.3559053 19.427734 8 L 16.5 8 C 14.032499 8 12 10.032499 12 12.5 C 12 14.024886 12.824574 15.317224 14 16.132812 L 14 38.867188 C 12.824574 39.682777 12 40.975114 12 42.5 C 12 44.967501 14.032499 47 16.5 47 L 31.5 47 C 33.967501 47 36 44.967501 36 42.5 C 36 40.975114 35.175426 39.682777 34 38.867188 L 34 16.132812 C 35.175426 15.317223 36 14.024886 36 12.5 C 36 10.032499 33.967501 8 31.5 8 L 28.572266 8 C 28.836412 7.3559053 29 6.6820412 29 6 C 29 4.7916668 28.604336 3.5631791 27.746094 2.5976562 C 26.887852 1.6321334 25.541666 1 24 1 z M 24 4 C 24.791666 4 25.195482 4.2428666 25.503906 4.5898438 C 25.81233 4.9368209 26 5.4583332 26 6 C 26 6.5416668 25.81233 7.0631791 25.503906 7.4101562 C 25.195482 7.7571334 24.791666 8 24 8 C 23.208334 8 22.804518 7.7571334 22.496094 7.4101562 C 22.18767 7.0631791 22 6.5416668 22 6 C 22 5.4583332 22.18767 4.9368209 22.496094 4.5898438 C 22.804518 4.2428666 23.208334 4 24 4 z M 16.5 11 L 24 11 L 31.5 11 C 32.346499 11 33 11.653501 33 12.5 C 33 13.346499 32.346499 14 31.5 14 L 16.5 14 C 15.653501 14 15 13.346499 15 12.5 C 15 11.653501 15.653501 11 16.5 11 z M 17 17 L 22.179688 17 L 17 23.474609 L 17 17 z M 26.021484 17 L 30.193359 17 L 17 33.712891 L 17 28.275391 L 26.021484 17 z M 31 20.822266 L 31 26.044922 L 21.564453 38 L 17.4375 38 L 31 20.822266 z M 31 30.888672 L 31 38 L 25.384766 38 L 31 30.888672 z M 16.5 41 L 31.5 41 C 32.346499 41 33 41.653501 33 42.5 C 33 43.346499 32.346499 44 31.5 44 L 16.5 44 C 15.653501 44 15 43.346499 15 42.5 C 15 41.653501 15.653501 41 16.5 41 z"/></svg>