<svg fill="#000000" xmlns="http://www.w3.org/2000/svg"  viewBox="0 0 48 48" width="24px" height="24px"><path d="M 39.011719 2.0332031 C 38.702502 2.0240475 38.372478 2.0310059 38.025391 2.0585938 C 35.940668 2.2242958 33.246778 3.1284818 30.802734 5.7539062 C 28.758562 7.9499555 28.119413 11.024311 28.011719 14 L 23.5 14 C 20.63003 14 18.252768 16.242086 18.023438 19.056641 C 16.516495 18.950224 15.080511 18.967138 13.777344 19.199219 C 12.000932 19.515585 10.297109 20.301736 9.4882812 21.949219 C 8.6572951 23.64178 9.0281456 25.427166 9.6484375 26.779297 C 10.268729 28.131428 11.152397 29.201971 11.767578 29.875 C 12.435113 30.604839 13.373882 31 14.337891 31 L 14.896484 31 L 14.578125 32.912109 C 14.37451 34.126042 13.342447 35 12.111328 35 L 6.5 35 A 1.50015 1.50015 0 1 0 6.5 38 L 12.111328 38 C 14.789602 38 17.096007 36.045429 17.537109 33.404297 L 17.9375 31 L 23 31 L 23 38.136719 C 21.01463 38.283733 19.132026 38.632648 17.615234 39.296875 C 16.663959 39.713453 15.831696 40.220409 15.171875 40.890625 C 14.512054 41.560841 14.005859 42.4688 14.005859 43.5 C 14.005859 44.910696 15.211377 46 16.5625 46 L 32.429688 46 C 33.780811 46 34.988281 44.910696 34.988281 43.5 C 34.988748 42.468822 34.481917 41.560979 33.822266 40.890625 C 33.162614 40.220271 32.332054 39.713481 31.380859 39.296875 C 29.865991 38.63339 27.982913 38.284224 26 38.136719 L 26 31 L 31.859375 31 C 33.518826 31 34.967534 29.812721 35.292969 28.185547 C 35.294792 28.176431 35.293147 28.167319 35.294922 28.158203 L 41.933594 5.25 L 41.935547 5.2402344 C 42.324376 3.8216968 41.353721 2.3055881 39.875 2.1035156 L 39.873047 2.1035156 C 39.60939 2.0676284 39.320935 2.0423587 39.011719 2.0332031 z M 38.285156 5.125 C 38.482393 5.119635 38.668798 5.1239039 38.84375 5.1328125 L 33.623047 23.154297 C 33.084915 22.658364 32.449796 22.262178 31.724609 22.013672 C 31.501647 20.949801 31.180491 19.224983 31.046875 16.826172 C 30.855875 13.397133 31.345511 9.5714728 32.998047 7.796875 C 35.006575 5.6392871 36.904497 5.1625548 38.285156 5.125 z M 23.5 17 L 28.052734 17 C 28.138974 18.541914 28.324095 19.907785 28.509766 21.0625 C 26.218653 20.430895 23.595555 19.799783 21.009766 19.402344 C 21.06082 18.051911 22.135258 17 23.5 17 z M 16.568359 21.998047 C 17.420946 22.007433 18.355329 22.075504 19.328125 22.193359 C 23.219307 22.664771 27.722612 23.898703 30.689453 24.818359 C 31.891879 25.190986 32.597175 26.369601 32.351562 27.597656 C 32.302997 27.840477 32.107924 28 31.859375 28 L 14.337891 28 C 14.1919 28 14.062933 27.941724 13.980469 27.851562 C 13.48965 27.314591 12.783458 26.419666 12.375 25.529297 C 11.966542 24.638928 11.869673 23.902923 12.179688 23.271484 C 12.414859 22.792467 13.01824 22.381103 14.302734 22.152344 C 14.944982 22.037964 15.715772 21.988661 16.568359 21.998047 z M 24.496094 41 C 26.688503 41 28.77267 41.430384 30.175781 42.044922 C 30.877337 42.352191 31.401433 42.709354 31.683594 42.996094 C 31.685694 42.998194 31.683442 42.9979 31.685547 43 L 17.306641 43 C 17.308741 42.9979 17.306455 42.998194 17.308594 42.996094 C 17.591022 42.709216 18.116634 42.352218 18.818359 42.044922 C 20.221762 41.430329 22.304224 41 24.496094 41 z"/></svg>