<svg id="Layer_1" data-name="Layer 1" xmlns="http://www.w3.org/2000/svg" viewBox="0 0 24 24"><path d="M16.77734,14.55273A11.80859,11.80859,0,0,1,12,15.5a11.80859,11.80859,0,0,1-4.77734-.94727.49984.49984,0,0,0-.44629.89454,7.72583,7.72583,0,0,0,.86981.349l.00079.00159a7.70051,7.70051,0,0,1,.90576,1.42578c.24707.49317.49366,1.04883.74024,1.60449C10.30469,21.10449,10.97705,22.5,12,22.5c1.02344,0,1.69531-1.39551,2.707-3.67188.24707-.55566.49317-1.11132.74024-1.60449a7.62413,7.62413,0,0,1,.91369-1.42987,7.723,7.723,0,0,0,.86267-.34649.49984.49984,0,0,0-.44629-.89454Zm-2.22461,2.22364c-.25293.50683-.50683,1.07617-.75976,1.64551C13.34863,19.4209,12.42529,21.5,12,21.5s-1.34912-2.0791-1.793-3.07812c-.25342-.56934-.50683-1.13868-.75976-1.64551-.10224-.20441-.2154-.38971-.32648-.57856a13.86893,13.86893,0,0,0,5.76044-.00036C14.76971,16.3869,14.65527,16.57129,14.55273,16.77637ZM19.5,10a6.998,6.998,0,0,0-1.94922-4.14069l.93457-3.73822a.50023.50023,0,1,0-.9707-.24218l-.99317,3.97265a12.954,12.954,0,0,1-3.11132,5.03125L12.793,11.5H11.207l-.61719-.61719A12.96835,12.96835,0,0,1,7.478,5.85156L6.48486,1.87891a.49975.49975,0,1,0-.96972.24218l.93444,3.7378A6.99881,6.99881,0,0,0,4.5,10c0,.751.36279,2.499,3.72363,2.499h7.55274C19.13672,12.499,19.5,10.751,19.5,10ZM8.22363,11.499C6.981,11.499,5.5,11.23926,5.5,10A5.46672,5.46672,0,0,1,6.82373,6.9668,13.99394,13.99394,0,0,0,9.79346,11.5Zm7.55274,0L14.207,11.5a13.99642,13.99642,0,0,0,2.96973-4.5332A5.46628,5.46628,0,0,1,18.5,10C18.5,11.23926,17.01855,11.499,15.77637,11.499Z"/></svg>