<svg fill="#000000" xmlns="http://www.w3.org/2000/svg"  viewBox="0 0 48 48" width="24px" height="24px"><path d="M 9.4335938 9 C 6.9666033 9 5.0039062 11.074744 5.0039062 13.5 L 5.0039062 15.001953 L 4.4804688 15.001953 A 1.50015 1.50015 0 0 0 4.4785156 15.001953 C 2.0131089 15.004953 -0.015625 17.036171 -0.015625 19.501953 L -0.015625 28.492188 C -0.015625 30.95402 2.0074496 32.983254 4.46875 32.992188 L 5 32.994141 L 5 34.5 C 5 36.967501 7.0324991 39 9.5 39 L 38.5 39 C 40.967501 39 43 36.967501 43 34.5 L 43 33 L 43.503906 33 C 45.969689 33 48.000929 30.969313 48.003906 28.503906 L 48.011719 19.498047 C 48.014719 17.022799 45.97148 14.98325 43.496094 14.992188 L 43 14.994141 L 43 13.5 C 43 11.032499 40.967501 9 38.5 9 L 9.4335938 9 z M 9.4335938 12 L 38.5 12 C 39.346499 12 40 12.653501 40 13.5 L 40 16.5 A 1.50015 1.50015 0 0 0 41.505859 18 L 43.507812 17.992188 C 44.356428 17.989088 45.01274 18.645389 45.011719 19.494141 L 45.003906 28.501953 C 45.002871 29.348534 44.350124 30 43.503906 30 L 41.5 30 A 1.50015 1.50015 0 0 0 40 31.5 L 40 34.5 C 40 35.346499 39.346499 36 38.5 36 L 9.5 36 C 8.6535009 36 8 35.346499 8 34.5 L 8 31.5 A 1.50015 1.50015 0 0 0 6.5058594 30 L 4.4785156 29.992188 C 3.633816 29.989088 2.984375 29.336354 2.984375 28.492188 L 2.984375 19.501953 C 2.984375 18.655736 3.6358286 18.002976 4.4824219 18.001953 L 6.5058594 18 A 1.50015 1.50015 0 0 0 8.0039062 16.5 L 8.0039062 13.5 C 8.0039062 12.611256 8.588584 12 9.4335938 12 z M 14.476562 16.978516 A 1.50015 1.50015 0 0 0 13 18.5 L 13 20 L 12 20 C 9.8087176 20 8 21.808718 8 24 C 8 26.191282 9.8087176 28 12 28 L 13 28 L 13 29.5 A 1.50015 1.50015 0 1 0 16 29.5 L 16 28 L 19.744141 28 C 20.839391 29.160904 22.28662 30 24 30 C 25.71338 30 27.160609 29.160904 28.255859 28 L 32 28 L 32 29.5 A 1.50015 1.50015 0 1 0 35 29.5 L 35 28 L 36 28 C 38.191282 28 40 26.191282 40 24 C 40 21.808718 38.191282 20 36 20 L 35 20 L 35 18.5 A 1.50015 1.50015 0 1 0 32 18.5 L 32 20 L 28.255859 20 C 27.160609 18.839096 25.71338 18 24 18 C 22.28662 18 20.839391 18.839096 19.744141 20 L 16 20 L 16 18.5 A 1.50015 1.50015 0 0 0 14.476562 16.978516 z M 24 21 C 25.050385 21 25.955117 21.529122 26.494141 22.333984 A 1.50015 1.50015 0 0 0 27.740234 23 L 33.253906 23 A 1.50015 1.50015 0 0 0 33.740234 23 L 36 23 C 36.570718 23 37 23.429282 37 24 C 37 24.570718 36.570718 25 36 25 L 33.746094 25 A 1.50015 1.50015 0 0 0 33.259766 25 L 27.740234 25 A 1.50015 1.50015 0 0 0 26.494141 25.666016 C 25.955117 26.470878 25.050385 27 24 27 C 22.949615 27 22.044883 26.470878 21.505859 25.666016 A 1.50015 1.50015 0 0 0 20.259766 25 L 14.746094 25 A 1.50015 1.50015 0 0 0 14.259766 25 L 12 25 C 11.429282 25 11 24.570718 11 24 C 11 23.429282 11.429282 23 12 23 L 14.253906 23 A 1.50015 1.50015 0 0 0 14.740234 23 L 20.259766 23 A 1.50015 1.50015 0 0 0 21.505859 22.333984 C 22.044883 21.529122 22.949615 21 24 21 z"/></svg>