<svg id="Layer_1" data-name="Layer 1" xmlns="http://www.w3.org/2000/svg" viewBox="0 0 24 24"><path d="M18,14.5c-3.10254,0-3.5-1.87012-3.5-3.5V4A2.50231,2.50231,0,0,0,12,1.5H6A2.50231,2.50231,0,0,0,3.5,4V21A1.50164,1.50164,0,0,0,5,22.5H9A1.50164,1.50164,0,0,0,10.5,21v-.5h.09277a3.1926,3.1926,0,0,1,2.14356.94141A3.90329,3.90329,0,0,0,15.41406,22.5H20A2.50231,2.50231,0,0,0,22.5,20C22.5,18.09766,21.55957,14.5,18,14.5ZM9.5,21a.501.501,0,0,1-.5.5H5a.501.501,0,0,1-.5-.5v-.5h5Zm-5-1.5V4A1.50164,1.50164,0,0,1,6,2.5h6A1.50164,1.50164,0,0,1,13.5,4V5.5H10a.5.5,0,0,0,0,1h3.5v2H10a.5.5,0,0,0,0,1h3.5V11c0,.17761.023.33282.03369.5H10a.5.5,0,0,0,0,1h3.67542c.45825,1.98108,1.89538,3,4.32458,3,2.78943,0,3.3551,2.82379,3.47015,4Zm15.5,2H15.41406a2.91,2.91,0,0,1-1.99414-.78809c-.08533-.0802-.17749-.1394-.26544-.21191H21.4079A1.49758,1.49758,0,0,1,20,21.5Z"/></svg>