<svg id="Layer_1" data-name="Layer 1" xmlns="http://www.w3.org/2000/svg" viewBox="0 0 24 24"><path d="M22,17.5a.49971.49971,0,0,0-.5.5A3.50424,3.50424,0,0,1,18,21.5H15.98755a2.45156,2.45156,0,0,0,0-3h.82593A3.68954,3.68954,0,0,0,20.46,14.25977a3.764,3.764,0,0,0-3.28808-3.11524L14.5,10.59277V4A2.50231,2.50231,0,0,0,12,1.5H6A2.50263,2.50263,0,0,0,3.5,4V16A2.50263,2.50263,0,0,0,6,18.5h.01257a2.45111,2.45111,0,0,0,0,3H2a.5.5,0,0,0,0,1H18A4.50491,4.50491,0,0,0,22.5,18,.49971.49971,0,0,0,22,17.5ZM15.5,20A1.5,1.5,0,1,1,14,18.5,1.50164,1.50164,0,0,1,15.5,20Zm-3.48743,1.5H9.98743a2.45111,2.45111,0,0,0,0-3h2.02514a2.45111,2.45111,0,0,0,0,3ZM4.5,16V4A1.50164,1.50164,0,0,1,6,2.5h6A1.50164,1.50164,0,0,1,13.5,4V7.5H10a.5.5,0,0,0,0,1h3.5v2H10a.5.5,0,0,0,0,1h3.95056l3.05725.62988a2.77666,2.77666,0,0,1,2.46192,2.27442A2.68681,2.68681,0,0,1,16.81348,17.5H6A1.50164,1.50164,0,0,1,4.5,16Zm2,4A1.5,1.5,0,1,1,8,21.5,1.50164,1.50164,0,0,1,6.5,20Z"/></svg>