<svg id="Layer_1" data-name="Layer 1" xmlns="http://www.w3.org/2000/svg" viewBox="0 0 24 24"><path d="M19.60352,17.22266A3.70533,3.70533,0,0,0,20.46,14.25977a3.764,3.764,0,0,0-3.28808-3.11524L14.5,10.59277V4A2.50231,2.50231,0,0,0,12,1.5H6A2.50231,2.50231,0,0,0,3.5,4V16A2.50231,2.50231,0,0,0,6,18.5h.01245A2.47637,2.47637,0,0,0,5.5,20a2.5,2.5,0,0,0,5,0,2.47637,2.47637,0,0,0-.51245-1.5h2.0249A2.47637,2.47637,0,0,0,11.5,20a2.5,2.5,0,0,0,5,0,2.47637,2.47637,0,0,0-.51245-1.5h.82593A3.68464,3.68464,0,0,0,19.60352,17.22266ZM4.5,16V4A1.50164,1.50164,0,0,1,6,2.5h6A1.50164,1.50164,0,0,1,13.5,4V7.5H10a.5.5,0,0,0,0,1h3.5v2H10a.5.5,0,0,0,0,1h3.95056l3.05725.62988a2.77666,2.77666,0,0,1,2.46192,2.27442A2.68681,2.68681,0,0,1,16.81348,17.5H6A1.50164,1.50164,0,0,1,4.5,16Zm5,4A1.5,1.5,0,1,1,8,18.5,1.50164,1.50164,0,0,1,9.5,20Zm6,0A1.5,1.5,0,1,1,14,18.5,1.50164,1.50164,0,0,1,15.5,20Z"/></svg>