<svg fill="#000000" xmlns="http://www.w3.org/2000/svg"  viewBox="0 0 32 32" width="32px" height="32px"><path d="M 12.712891 11 L 12.412109 11.40625 C 11.670373 12.41317 11.089316 13.58252 10.675781 14.642578 C 10.262246 15.702636 10 16.560487 10 17.339844 C 10 18.582399 10.903095 19.523102 11.994141 20.103516 C 13.085186 20.683929 14.475712 21 16 21 C 17.524288 21 18.914814 20.683929 20.005859 20.103516 C 21.096905 19.523102 22 18.582399 22 17.339844 C 22 16.560487 21.737754 15.702636 21.324219 14.642578 C 20.910684 13.58252 20.329627 12.41317 19.587891 11.40625 L 19.287109 11 L 12.712891 11 z M 13.806641 13 L 18.193359 13 C 18.682787 13.7418 19.152569 14.578668 19.460938 15.369141 C 19.822152 16.295082 20 17.1982 20 17.339844 C 20 17.566288 19.785111 17.955554 19.066406 18.337891 C 18.347702 18.720227 17.236712 19 16 19 C 14.763288 19 13.652298 18.720227 12.933594 18.337891 C 12.214889 17.955554 12 17.566288 12 17.339844 C 12 17.1982 12.177847 16.295082 12.539062 15.369141 C 12.84743 14.578668 13.317213 13.7418 13.806641 13 z"/></svg>