<svg fill="#000000" xmlns="http://www.w3.org/2000/svg"  viewBox="0 0 32 32" width="32px" height="32px"><path d="M 16 10 C 12.487282 10 9.3290772 10.774959 6.96875 12.181641 C 4.6084228 13.588322 3.0039062 15.732003 3.0039062 18.269531 L 3.0039062 18.300781 L 3.2070312 21.585938 L 5.6582031 20.179688 L 5.6660156 20.173828 C 5.9273992 20.01718 5.9346477 20 6.5292969 20 L 14.105469 20 C 14.861299 20 15.468932 19.691719 16 19.308594 C 16.531068 19.691719 17.138701 20 17.894531 20 L 25.470703 20 C 26.066485 20 26.075233 20.01755 26.335938 20.173828 L 26.34375 20.179688 L 28.794922 21.585938 L 28.892578 19.978516 L 28.996094 18.298828 L 28.996094 18.269531 C 28.996094 15.732003 27.391577 13.588322 25.03125 12.181641 C 22.670931 10.774922 19.512718 10 16 10 z M 16 12 C 19.213282 12 22.05164 12.734572 24.007812 13.900391 C 25.961575 15.064773 26.991602 16.555844 26.994141 18.263672 L 26.988281 18.367188 C 26.55348 18.174651 26.094643 18 25.470703 18 L 17.894531 18 C 17.523116 18 17.072255 17.748221 16.75 17.382812 L 16 16.53125 L 15.25 17.382812 C 14.927745 17.748221 14.476884 18 14.105469 18 L 6.5292969 18 C 5.9052604 18 5.4463765 18.176255 5.0117188 18.369141 L 5.0058594 18.263672 C 5.0083982 16.555844 6.0384245 15.064773 7.9921875 13.900391 C 9.9483603 12.734572 12.786718 12 16 12 z"/></svg>