<svg fill="#000000" xmlns="http://www.w3.org/2000/svg"  viewBox="0 0 48 48" width="24px" height="24px"><path d="M 29.5 3.0800781 C 27.833411 3.0800781 26.167278 3.7116279 24.904297 4.9746094 A 1.50015 1.50015 0 0 0 24.902344 4.9746094 L 4.8691406 25.011719 C 2.401609 27.477948 2.4020631 31.523157 4.8691406 33.990234 L 7.765625 36.886719 A 1.50015 1.50015 0 0 0 8.1113281 37.232422 L 15.439453 44.560547 A 1.50015 1.50015 0 1 0 17.560547 42.439453 L 11.121094 36 L 13.511719 33.609375 L 19.943359 40.064453 A 1.50015 1.50015 0 1 0 22.068359 37.947266 L 15.632812 31.488281 L 18 29.121094 L 24.439453 35.560547 A 1.50015 1.50015 0 1 0 26.560547 33.439453 L 20.121094 27 L 22.5 24.621094 L 28.939453 31.060547 A 1.50015 1.50015 0 1 0 31.060547 28.939453 L 24.621094 22.5 L 27 20.121094 L 33.439453 26.560547 A 1.50015 1.50015 0 1 0 35.560547 24.439453 L 29.121094 18 L 31.5 15.621094 L 37.939453 22.060547 A 1.50015 1.50015 0 1 0 40.060547 19.939453 L 33.621094 13.5 L 35.994141 11.126953 A 1.50015 1.50015 0 0 0 36 11.121094 L 42.439453 17.560547 A 1.50015 1.50015 0 1 0 44.560547 15.439453 L 34.095703 4.9746094 C 32.832722 3.7116279 31.166589 3.0800781 29.5 3.0800781 z M 29.5 6.0625 C 30.392411 6.0625 31.284591 6.4056846 31.974609 7.0957031 A 1.50015 1.50015 0 0 0 31.974609 7.0976562 L 33.878906 9 A 1.50015 1.50015 0 0 0 33.873047 9.0058594 L 30.613281 12.265625 A 1.50015 1.50015 0 0 0 30.267578 12.611328 L 26.113281 16.765625 A 1.50015 1.50015 0 0 0 25.767578 17.111328 L 21.613281 21.265625 A 1.50015 1.50015 0 0 0 21.267578 21.611328 L 12.626953 30.251953 A 1.50015 1.50015 0 0 0 12.28125 30.597656 L 9 33.878906 L 6.9902344 31.869141 C 5.6693119 30.548218 5.669766 28.452584 6.9902344 27.132812 L 27.025391 7.0957031 C 27.715409 6.4056846 28.607589 6.0625 29.5 6.0625 z"/></svg>