<svg fill="#000000" xmlns="http://www.w3.org/2000/svg"  viewBox="0 0 48 48" width="24px" height="24px"><path d="M 40.226562 4.0058594 C 39.339562 4.0058594 38.450328 4.3153594 37.736328 4.9433594 L 14 26 L 5.4648438 30 C 4.5308437 30.56 3.9668125 31.578016 4.0078125 32.666016 C 4.0768125 34.485016 4.528 38.528 7 41 C 9.472 43.472 13.514984 43.933953 15.333984 44.001953 C 15.370984 44.002953 15.408312 44.003906 15.445312 44.003906 C 16.491312 44.003906 17.457047 43.446922 17.998047 42.544922 L 22 34 L 43.054688 10.263672 C 44.367688 8.7716719 44.295625 6.515375 42.890625 5.109375 C 42.157625 4.375375 41.193563 4.0058594 40.226562 4.0058594 z M 40.226562 7.0058594 C 40.345562 7.0058594 40.573531 7.0344688 40.769531 7.2304688 C 41.055531 7.5164687 41.070547 7.9764844 40.810547 8.2714844 L 27.453125 23.332031 L 24.667969 20.546875 L 39.71875 7.1972656 C 39.89875 7.0382656 40.094563 7.0058594 40.226562 7.0058594 z M 22.419922 22.541016 L 25.458984 25.580078 L 21.341797 30.220703 L 17.779297 26.658203 L 22.419922 22.541016 z M 15.494141 28.615234 L 19.386719 32.507812 L 19.283203 32.728516 L 15.410156 41.001953 C 14.981773 40.984337 14.171237 40.924035 13.244141 40.748047 L 13.894531 39.447266 A 1.0001 1.0001 0 0 0 12.955078 37.988281 A 1.0001 1.0001 0 0 0 12.105469 38.552734 L 11.285156 40.193359 C 10.484132 39.88466 9.7137968 39.469656 9.1230469 38.878906 C 8.6503724 38.406232 8.2875296 37.817069 8.0019531 37.189453 L 10.466797 35.884766 A 1.0001 1.0001 0 0 0 9.9824219 33.994141 A 1.0001 1.0001 0 0 0 9.5332031 34.115234 L 7.3671875 35.261719 C 7.1055376 34.116722 7.0297367 33.077275 7.0117188 32.589844 L 15.275391 28.716797 L 15.494141 28.615234 z"/></svg>