<svg fill="#000000" xmlns="http://www.w3.org/2000/svg"  viewBox="0 0 48 48" width="24px" height="24px"><path d="M 13.517578 3 C 11.572049 3 9.9845924 4.6359492 10.015625 6.5703125 C 10.187786 17.44929 11.446885 24.810007 12.685547 29.488281 C 13.748983 33.504749 14.706655 35.305287 15 35.830078 L 15 40.5 C 15 42.967501 17.032499 45 19.5 45 L 28.5 45 C 30.967501 45 33 42.967501 33 40.5 L 33 35.830078 C 33.293345 35.305292 34.250909 33.504738 35.314453 29.488281 C 36.55324 24.81002 37.811709 17.449282 37.984375 6.5703125 A 1.50015 1.50015 0 0 0 37.984375 6.5683594 C 38.013659 4.6355838 36.429904 3 34.484375 3 L 13.517578 3 z M 13.517578 6 L 34.484375 6 C 34.782846 6 34.989091 6.21221 34.984375 6.5234375 C 34.975069 7.1092359 34.900301 7.4354823 34.884766 8 L 13.115234 8 C 13.099704 7.4347394 13.024908 7.1080819 13.015625 6.5214844 C 13.010658 6.2118477 13.219108 6 13.517578 6 z M 13.318359 11 L 34.681641 11 C 34.271209 18.925542 33.387716 25.041762 32.414062 28.71875 C 31.552806 31.971274 30.922189 33.326439 30.572266 34 L 17.427734 34 C 17.077821 33.326447 16.447102 31.971264 15.585938 28.71875 C 14.612387 25.041773 13.728444 18.925534 13.318359 11 z M 21.5 16 C 20.136406 16 19 17.136406 19 18.5 L 19 23.5 C 19 24.863594 20.136406 26 21.5 26 L 26.5 26 C 27.863594 26 29 24.863594 29 23.5 L 29 18.5 C 29 17.136406 27.863594 16 26.5 16 L 21.5 16 z M 22 19 L 26 19 L 26 23 L 22 23 L 22 19 z M 18 37 L 30 37 L 30 40.5 C 30 41.346499 29.346499 42 28.5 42 L 19.5 42 C 18.653501 42 18 41.346499 18 40.5 L 18 37 z"/></svg>