<svg fill="#000000" xmlns="http://www.w3.org/2000/svg"  viewBox="0 0 32 32" width="32px" height="32px"><path d="M 3.1464844 7.4980469 C 3.1464844 7.4980469 2 9.4981235 2 12.480469 C 2 16.154208 3.1330732 18.839605 4.8925781 20.560547 C 6.652083 22.281489 8.9675866 23 11.181641 23 C 12.837327 23 13.951718 22.695821 14.681641 22.337891 C 15.046602 22.158925 15.312907 21.96713 15.498047 21.802734 C 15.683187 21.638339 15.830078 21.435547 15.830078 21.435547 L 14.169922 20.324219 C 14.169922 20.324219 14.223185 20.261041 14.171875 20.306641 C 14.120515 20.352241 14.00682 20.441934 13.800781 20.542969 C 13.388657 20.74504 12.593954 21 11.181641 21 C 9.3966939 21 7.6227607 20.431464 6.2910156 19.128906 C 4.9592705 17.826349 4 15.75273 4 12.480469 C 4 9.9908136 4.8769531 8.5019531 4.8769531 8.5019531 L 3.1464844 7.4980469 z M 28.853516 7.4980469 L 27.123047 8.5019531 C 27.123047 8.5019531 28 9.9908136 28 12.480469 C 28 15.75273 27.040729 17.826349 25.708984 19.128906 C 24.377239 20.431464 22.603306 21 20.818359 21 C 19.406046 21 18.611296 20.745038 18.199219 20.542969 C 17.99318 20.441934 17.879485 20.352245 17.828125 20.306641 C 17.776765 20.261041 17.830078 20.324219 17.830078 20.324219 L 16.169922 21.435547 C 16.169922 21.435547 16.316813 21.638339 16.501953 21.802734 C 16.687093 21.96713 16.953398 22.158925 17.318359 22.337891 C 18.048282 22.695821 19.162673 23 20.818359 23 C 23.032413 23 25.347917 22.281489 27.107422 20.560547 C 28.86688 18.839603 30 16.154208 30 12.480469 C 30 9.4981235 28.853516 7.4980469 28.853516 7.4980469 z"/></svg>