<svg fill="#000000" xmlns="http://www.w3.org/2000/svg"  viewBox="0 0 48 48" width="24px" height="24px"><path d="M 37 0 A 1 1 0 0 0 37 2 A 1 1 0 0 0 37 0 z M 22 2 C 20.895 2 20 2.895 20 4 L 20 6 C 20 7.105 20.895 8 22 8 L 22.5 8 L 22.5 10.027344 C 17.593709 10.298599 13.552056 14.069166 13.007812 19.007812 L 13 19.066406 L 13 41 C 13 43.209 14.791 45 17 45 L 31 45 C 33.209 45 35 43.209 35 41 L 35 19 C 34.451653 14.061983 30.406516 10.293211 25.5 10.025391 L 25.5 8 L 26 8 C 27.105 8 28 7.105 28 6 L 28 4 C 28 2.895 27.105 2 26 2 L 22 2 z M 34 2 A 1 1 0 0 0 34 4 A 1 1 0 0 0 34 2 z M 31 4 A 1 1 0 0 0 31 6 A 1 1 0 0 0 31 4 z M 37 4 A 1 1 0 0 0 37 6 A 1 1 0 0 0 37 4 z M 34 6 A 1 1 0 0 0 34 8 A 1 1 0 0 0 34 6 z M 37 8 A 1 1 0 0 0 37 10 A 1 1 0 0 0 37 8 z M 23.0625 13 L 24.945312 13 C 28.114119 13 30.828702 15.073599 31.736328 18 L 16.269531 18 C 17.17688 15.073717 19.892033 13 23.0625 13 z M 16 21 L 32 21 L 32 41 C 32 41.551 31.551 42 31 42 L 17 42 C 16.449 42 16 41.551 16 41 L 16 21 z M 24 27 A 4 4 0 0 0 24 35 A 4 4 0 0 0 24 27 z"/></svg>