<svg id="Layer_1" data-name="Layer 1" xmlns="http://www.w3.org/2000/svg" viewBox="0 0 24 24"><path d="M4.66553,3.54l-1.645,2.19043a2.60757,2.60757,0,0,0-.10694,2.96582l7.78223,12.0918a1.55058,1.55058,0,0,0,2.6084,0l7.78223-12.0918a2.606,2.606,0,0,0-.10694-2.96484l-1.645-2.19239A2.61722,2.61722,0,0,0,17.25342,2.5H6.74658A2.61533,2.61533,0,0,0,4.66553,3.54Zm7.79785,16.707a.565.565,0,0,1-.92676,0L3.75439,8.15527A1.57,1.57,0,0,1,3.533,7.5H20.467a1.56947,1.56947,0,0,1-.22143.65527ZM6.74658,3.5H17.25342a1.6117,1.6117,0,0,1,1.28125.63965l1.645,2.1914v.001a1.51759,1.51759,0,0,1,.08954.168H3.73035a1.53069,1.53069,0,0,1,.09-.16895l1.645-2.19043A1.60983,1.60983,0,0,1,6.74658,3.5Z"/></svg>