<svg fill="#000000" xmlns="http://www.w3.org/2000/svg"  viewBox="0 0 48 48" width="24px" height="24px"><path d="M 23.957031 4 A 1.50015 1.50015 0 0 0 22.761719 4.6523438 C 22.761719 4.6523438 19.809275 8.9703749 16.632812 14.087891 C 13.45635 19.205406 10.06726 24.943707 9.0546875 28.599609 C 7.8909175 32.801462 9.7058634 36.801613 12.691406 39.548828 C 15.676949 42.296044 19.848516 44 24 44 C 28.151484 44 32.323051 42.296044 35.308594 39.548828 C 38.294137 36.801613 40.109082 32.801462 38.945312 28.599609 C 37.932741 24.943707 34.54365 19.205406 31.367188 14.087891 C 28.190725 8.9703749 25.238281 4.6523438 25.238281 4.6523438 A 1.50015 1.50015 0 0 0 23.957031 4 z M 24 8.2539062 C 24.860337 9.5274363 26.323758 11.650935 28.818359 15.669922 C 31.954147 20.721907 35.31626 26.734293 36.054688 29.400391 C 36.880918 32.383538 35.675301 35.133309 33.277344 37.339844 C 30.879387 39.546378 27.304516 41 24 41 C 20.695484 41 17.120613 39.546378 14.722656 37.339844 C 12.324699 35.133309 11.119082 32.383538 11.945312 29.400391 C 12.683741 26.734293 16.045853 20.721907 19.181641 15.669922 C 21.676242 11.650935 23.139663 9.5274363 24 8.2539062 z M 16.478516 27.978516 A 1.50015 1.50015 0 0 0 15.029297 29.205078 C 14.446325 32.119939 15.417634 34.596672 17.175781 36.035156 C 18.933928 37.47364 21.25 38 23.5 38 A 1.50015 1.50015 0 1 0 23.5 35 C 21.75 35 20.066072 34.52636 19.074219 33.714844 C 18.082366 32.903328 17.553675 31.880061 17.970703 29.794922 A 1.50015 1.50015 0 0 0 16.478516 27.978516 z"/></svg>