<svg id="Layer_1" data-name="Layer 1" xmlns="http://www.w3.org/2000/svg" viewBox="0 0 24 24"><path d="M9.11426,13.77637A.50108.50108,0,0,0,8.667,13.5H6.5V12.44946a3.48313,3.48313,0,0,0,0-6.89892V4.5H8a.5.5,0,0,0,0-1H6.5V2a.5.5,0,0,0-1,0V3.5H4a.5.5,0,0,0,0,1H5.5V5.55054a3.48313,3.48313,0,0,0,0,6.89892V13.5H3.333a.50108.50108,0,0,0-.44727.27637l-1.333,2.667a.49971.49971,0,0,0,.04688.52344l4,5.333a.50048.50048,0,0,0,.80078,0l4-5.333a.49971.49971,0,0,0,.04688-.52344ZM3.5,9A2.5,2.5,0,1,1,6,11.5,2.50231,2.50231,0,0,1,3.5,9ZM6,21.167,2.585,16.61426,3.6416,14.5H8.3584L9.415,16.61426Zm15.11426-7.39062A.50108.50108,0,0,0,20.667,13.5H18.5V12.44946a3.48313,3.48313,0,0,0,0-6.89892V4.5H20a.5.5,0,0,0,0-1H18.5V2a.5.5,0,0,0-1,0V3.5H16a.5.5,0,0,0,0,1h1.5V5.55054a3.48313,3.48313,0,0,0,0,6.89892V13.5H15.333a.50108.50108,0,0,0-.44727.27637l-1.333,2.667a.49971.49971,0,0,0,.04688.52344l4,5.333a.50048.50048,0,0,0,.80078,0l4-5.333a.49971.49971,0,0,0,.04688-.52344ZM15.5,9A2.5,2.5,0,1,1,18,11.5,2.50231,2.50231,0,0,1,15.5,9ZM18,21.167l-3.415-4.55273L15.6416,14.5h4.7168L21.415,16.61426Z"/></svg>