<svg fill="#000000" xmlns="http://www.w3.org/2000/svg"  viewBox="0 0 48 48" width="24px" height="24px"><path d="M 17 17 C 13.166154 17 11.101538 19.349897 9.390625 20.654297 C 8.5351685 21.306497 7.7701471 21.747425 6.7089844 21.90625 C 5.6478216 22.065075 4.2023477 21.93606 2.0410156 21.101562 A 1.50015 1.50015 0 0 0 0 22.5 C 0 26.765607 2.7882123 29.599557 5.84375 31.085938 C 8.8992877 32.572318 12.28725 33 14.5 33 C 17.7425 33 20.338952 32.217724 22.175781 30.777344 C 22.972847 30.152311 23.534067 29.355242 24 28.521484 C 24.465933 29.355242 25.027153 30.152311 25.824219 30.777344 C 27.661048 32.217724 30.2575 33 33.5 33 C 35.71275 33 39.100712 32.572318 42.15625 31.085938 C 45.211788 29.599557 48 26.765607 48 22.5 A 1.50015 1.50015 0 0 0 45.958984 21.101562 C 43.797652 21.936063 42.352178 22.065075 41.291016 21.90625 C 40.229853 21.747425 39.464831 21.306497 38.609375 20.654297 C 36.898462 19.349897 34.833846 17 31 17 C 27.936055 17 25.342679 18.800373 24 21.345703 C 22.657321 18.800373 20.063945 17 17 17 z M 17 20 C 19.779415 20 22 22.220585 22 25 C 22 26.377173 21.48739 27.503896 20.324219 28.416016 C 19.161048 29.328135 17.2575 30 14.5 30 C 12.71275 30 9.6007123 29.577792 7.15625 28.388672 C 5.3317066 27.501114 3.9174217 26.343582 3.3164062 24.554688 C 4.734584 24.880745 6.0422855 25.03919 7.1523438 24.873047 C 8.8534935 24.618434 10.164191 23.835613 11.208984 23.039062 C 13.298571 21.445963 14.333846 20 17 20 z M 31 20 C 33.666154 20 34.701429 21.445963 36.791016 23.039062 C 37.835809 23.835614 39.146506 24.618434 40.847656 24.873047 C 41.957714 25.03919 43.265416 24.880747 44.683594 24.554688 C 44.082578 26.343581 42.668293 27.501114 40.84375 28.388672 C 38.399288 29.577792 35.28725 30 33.5 30 C 30.7425 30 28.838952 29.328135 27.675781 28.416016 C 26.51261 27.503896 26 26.377173 26 25 C 26 22.220585 28.220585 20 31 20 z"/></svg>