<svg fill="#000000" xmlns="http://www.w3.org/2000/svg"  viewBox="0 0 48 48" width="24px" height="24px"><path d="M 10 6 C 7.791 6 6 7.791 6 10 L 6 38 C 6 40.209 7.791 42 10 42 L 38 42 C 40.209 42 42 40.209 42 38 L 42 10 C 42 7.791 40.209 6 38 6 L 10 6 z M 10 9 L 38 9 C 38.551 9 39 9.449 39 10 L 39 38 C 39 38.551 38.551 39 38 39 L 10 39 C 9.449 39 9 38.551 9 38 L 9 10 C 9 9.449 9.449 9 10 9 z M 17 12 C 14.239 12 12 14.239 12 17 C 12 17.182 12.035688 17.35425 12.054688 17.53125 L 17.53125 12.054688 C 17.35425 12.035687 17.182 12 17 12 z M 31 12 A 5 5 0 0 0 31 22 A 5 5 0 0 0 31 12 z M 19.642578 12.771484 L 12.771484 19.642578 C 13.174484 20.285578 13.714422 20.825516 14.357422 21.228516 L 21.228516 14.357422 C 20.825516 13.714422 20.285578 13.174484 19.642578 12.771484 z M 21.945312 16.46875 L 16.46875 21.945312 C 16.64575 21.964312 16.818 22 17 22 C 19.761 22 22 19.761 22 17 C 22 16.818 21.964312 16.64575 21.945312 16.46875 z M 17 26 A 5 5 0 0 0 17 36 A 5 5 0 0 0 17 26 z M 31 26 C 28.239 26 26 28.239 26 31 C 26 31.182 26.035688 31.35425 26.054688 31.53125 L 31.53125 26.054688 C 31.35425 26.035688 31.182 26 31 26 z M 33.642578 26.771484 L 26.771484 33.642578 C 27.174484 34.285578 27.714422 34.825516 28.357422 35.228516 L 35.228516 28.357422 C 34.825516 27.714422 34.285578 27.174484 33.642578 26.771484 z M 35.945312 30.46875 L 30.46875 35.945312 C 30.64575 35.964313 30.818 36 31 36 C 33.761 36 36 33.761 36 31 C 36 30.818 35.964313 30.64575 35.945312 30.46875 z"/></svg>