<svg fill="#000000" xmlns="http://www.w3.org/2000/svg"  viewBox="0 0 48 48" width="24px" height="24px"><path d="M 27.878906 5 C 21.573906 5 12.080516 8.2670156 6.2285156 10.041016 C 3.7635156 10.788016 2.3998438 13.417328 3.2148438 15.861328 C 3.8558438 17.784328 5.639875 18.990234 7.546875 18.990234 C 8.089875 18.990234 8.6426406 18.892547 9.1816406 18.685547 C 14.587641 16.612547 23.885 13 29 13 C 31.822 13 37.788969 14.865562 41.417969 16.726562 C 41.779969 16.911562 42.164922 17.001953 42.544922 17.001953 C 43.423922 17.001953 44.269984 16.527312 44.708984 15.695312 C 45.241984 14.685313 45.011484 13.445219 44.146484 12.699219 C 41.238484 10.191219 33.499906 5 27.878906 5 z M 27.878906 8 C 30.819906 8 34.988469 9.99525 38.355469 12.15625 C 35.035469 10.94325 31.356 10 29 10 C 23.869 10 16.040891 12.839047 8.4628906 15.748047 L 8.1074219 15.884766 C 7.9244219 15.954766 7.736875 15.990234 7.546875 15.990234 C 6.985875 15.990234 6.3085469 15.658063 6.0605469 14.914062 C 5.8775469 14.367062 6.0412969 13.916266 6.1542969 13.697266 C 6.2682969 13.477266 6.5416562 13.080109 7.0976562 12.912109 C 7.9016563 12.668109 8.7723125 12.397375 9.6953125 12.109375 C 15.263312 10.374375 22.888906 8 27.878906 8 z M 24 18 C 10.66 18 4.1972656 29.255859 4.1972656 29.255859 A 1.50015 1.50015 0 0 0 4.1699219 30.693359 C 4.1699222 30.693359 10.58 43 24 43 C 37.46 43 43.841797 30.169922 43.841797 30.169922 A 1.50015 1.50015 0 0 0 43.787109 28.728516 C 43.787111 28.728516 37.3 18 24 18 z M 24 21 C 30.682174 21 35.223658 23.883662 37.917969 26.380859 C 34.329455 25.352143 29.29267 24.25 24 24.25 C 18.72643 24.25 13.711373 25.481939 10.119141 26.642578 C 12.817725 24.021308 17.353509 21 24 21 z M 27.677734 27.4375 C 28.413202 27.508374 29.135012 27.600015 29.845703 27.703125 C 29.938091 28.121769 30 28.550996 30 29 C 30 32.331281 27.331281 35 24 35 C 20.668719 35 18 32.331281 18 29 C 18 28.574325 18.055586 28.165704 18.138672 27.767578 C 18.850744 27.649619 19.57367 27.546043 20.310547 27.464844 A 4 4 0 0 0 24 33 A 4 4 0 0 0 27.677734 27.4375 z M 32.966797 28.265625 C 36.084131 28.915803 38.702855 29.724176 40.28125 30.275391 C 38.613134 32.967322 33.399151 40 24 40 C 14.569928 40 9.3730791 33.274754 7.7089844 30.695312 C 9.272469 30.074834 11.89382 29.137386 15.027344 28.394531 C 15.01399 28.595245 15 28.796339 15 29 C 15 33.952719 19.047281 38 24 38 C 28.952719 38 33 33.952719 33 29 C 33 28.75253 32.986556 28.508544 32.966797 28.265625 z"/></svg>