<svg fill="#000000" xmlns="http://www.w3.org/2000/svg"  viewBox="0 0 48 48" width="24px" height="24px"><path d="M 24 2 C 19.688441 2 15.756513 3.3146958 12.839844 5.5273438 C 9.9231738 7.7399917 8 10.928136 8 14.5 C 8 18.071864 9.9231738 21.260008 12.839844 23.472656 C 13.652357 24.089046 14.54951 24.627693 15.505859 25.095703 C 11.329614 26.261608 8.1985029 28.345448 8.0253906 31.251953 A 1.50015 1.50015 0 0 0 8 31.5 L 8 37.5 C 8 39.604875 9.4122924 41.724168 12.033203 43.316406 C 14.654114 44.908645 18.548143 46 24 46 C 29.451857 46 33.345886 44.908645 35.966797 43.316406 C 38.587708 41.724168 40 39.604875 40 37.5 L 40 31.5 C 40 28.460713 36.790762 26.295214 32.494141 25.095703 C 33.45049 24.627693 34.347643 24.089046 35.160156 23.472656 C 38.076826 21.260008 40 18.071864 40 14.5 C 40 10.928136 38.076826 7.7399917 35.160156 5.5273438 C 32.243487 3.3146958 28.311559 2 24 2 z M 24 5 C 27.696576 5 31.01441 6.1474466 33.345703 7.9160156 C 35.676997 9.6845847 37 11.996732 37 14.5 C 37 17.003268 35.676997 19.315415 33.345703 21.083984 C 31.01441 22.852553 27.696576 24 24 24 C 20.303424 24 16.98559 22.852553 14.654297 21.083984 C 12.323003 19.315415 11 17.003268 11 14.5 C 11 11.996732 12.323003 9.6845847 14.654297 7.9160156 C 16.98559 6.1474466 20.303424 5 24 5 z M 24.535156 7.9863281 A 1.50015 1.50015 0 0 0 23.599609 8.3007812 L 15.599609 14.300781 A 1.50015 1.50015 0 1 0 17.400391 16.699219 L 25.400391 10.699219 A 1.50015 1.50015 0 0 0 24.535156 7.9863281 z M 31.535156 10.986328 A 1.50015 1.50015 0 0 0 30.599609 11.300781 L 22.599609 17.300781 A 1.50015 1.50015 0 1 0 24.400391 19.699219 L 32.400391 13.699219 A 1.50015 1.50015 0 0 0 31.535156 10.986328 z M 24 27 C 31.936 27 37 29.665 37 31.5 C 37 31.605849 36.978592 31.71547 36.945312 31.826172 C 36.936989 31.854549 36.922992 31.884765 36.912109 31.914062 C 36.883413 31.990624 36.846614 32.068341 36.802734 32.146484 C 36.77169 32.200706 36.735992 32.256927 36.695312 32.314453 C 36.661305 32.363695 36.621776 32.413291 36.582031 32.462891 C 36.513283 32.546909 36.43881 32.633115 36.347656 32.724609 C 36.319095 32.75336 36.288218 32.781766 36.257812 32.810547 C 36.149792 32.912721 36.029162 33.01653 35.894531 33.121094 C 35.85766 33.149761 35.8199 33.178425 35.78125 33.207031 C 35.640579 33.31113 35.485616 33.415473 35.320312 33.519531 C 35.268231 33.552137 35.216488 33.584787 35.162109 33.617188 C 35.011324 33.70764 34.8461 33.796125 34.677734 33.884766 C 34.587426 33.931873 34.499518 33.979012 34.404297 34.025391 C 34.272843 34.089974 34.130708 34.152213 33.990234 34.214844 C 33.843514 34.2799 33.699526 34.345199 33.542969 34.408203 C 33.422568 34.45662 33.293654 34.504042 33.167969 34.550781 C 32.995698 34.615104 32.825334 34.678769 32.642578 34.740234 C 32.360238 34.834511 32.069503 34.926156 31.765625 35.011719 C 31.743504 35.018011 31.723418 35.025002 31.701172 35.03125 C 29.904262 35.530784 27.751325 35.869007 25.419922 35.96875 C 24.957174 35.987834 24.484672 36 24 36 C 23.515328 36 23.042826 35.987834 22.580078 35.96875 C 19.823526 35.850819 17.3217 35.396127 15.357422 34.740234 C 15.174666 34.678769 15.004302 34.615104 14.832031 34.550781 C 14.706346 34.504042 14.577432 34.45662 14.457031 34.408203 C 14.300474 34.345199 14.156486 34.2799 14.009766 34.214844 C 13.869292 34.152213 13.727157 34.089974 13.595703 34.025391 C 13.500482 33.979012 13.412574 33.931873 13.322266 33.884766 C 13.1539 33.796125 12.988676 33.70764 12.837891 33.617188 C 12.783512 33.584787 12.731769 33.552137 12.679688 33.519531 C 12.514384 33.415473 12.359421 33.31113 12.21875 33.207031 C 12.1801 33.178425 12.14234 33.149761 12.105469 33.121094 C 11.970838 33.01653 11.850208 32.912721 11.742188 32.810547 C 11.711782 32.781766 11.680905 32.75336 11.652344 32.724609 C 11.56119 32.633115 11.486717 32.546909 11.417969 32.462891 C 11.378224 32.413291 11.338695 32.363695 11.304688 32.314453 C 11.264008 32.256927 11.22831 32.200706 11.197266 32.146484 C 11.153386 32.068341 11.116587 31.990624 11.087891 31.914062 C 11.077008 31.884765 11.063011 31.854549 11.054688 31.826172 C 11.021408 31.71547 11 31.605849 11 31.5 C 11 29.665 16.064 27 24 27 z M 24 29 C 20.196 29 17.257828 29.831516 15.423828 30.728516 C 14.855828 31.005516 14.855828 31.994484 15.423828 32.271484 C 17.257828 33.168484 20.196 34 24 34 C 27.804 34 30.742172 33.168484 32.576172 32.271484 C 33.144172 31.994484 33.144172 31.005516 32.576172 30.728516 C 30.742172 29.831516 27.804 29 24 29 z M 11 36.001953 C 11.48784 36.311957 12.034853 36.592349 12.611328 36.855469 C 12.788582 36.953045 12.97281 37.04573 13.173828 37.128906 C 16.046911 38.317721 19.828293 39 24 39 C 28.171707 39 31.953089 38.317721 34.826172 37.128906 C 35.044034 37.03876 35.245175 36.938833 35.435547 36.832031 C 35.993923 36.574916 36.525646 36.303387 37 36.001953 L 37 37.5 C 37 38.156125 36.412292 39.536395 34.408203 40.753906 C 32.404114 41.971418 29.048143 43 24 43 C 18.951857 43 15.595886 41.971418 13.591797 40.753906 C 11.587708 39.536395 11 38.156125 11 37.5 L 11 36.001953 z"/></svg>