<svg fill="#000000" xmlns="http://www.w3.org/2000/svg"  viewBox="0 0 48 48" width="24px" height="24px"><path d="M 24 6 C 22.20051 6.000003 20.400571 6.4998965 18.820312 7.4980469 L 16.519531 8.9511719 C 15.042635 9.8840346 13.260379 10.202155 11.550781 9.8398438 L 11.548828 9.8398438 L 8.0214844 9.0898438 C 6.4975754 8.7645047 5 9.9777728 5 11.535156 L 5 21 L 5 21.5 L 5 22.5 C 5 23.255718 5.2963202 23.924185 5.7128906 24.5 C 5.2963202 25.075815 5 25.744282 5 26.5 L 5 27.5 L 5 28 L 5 32.5 C 5 33.973161 5.7599931 35.289536 6.84375 36.314453 C 7.9275069 37.339371 9.3627834 38.159566 11.068359 38.841797 C 14.479512 40.206258 19.005369 41 24 41 C 28.994631 41 33.520488 40.206258 36.931641 38.841797 C 38.637217 38.159566 40.072493 37.339371 41.15625 36.314453 C 42.240007 35.289536 43 33.973161 43 32.5 L 43 28 L 43 27.5 L 43 26.5 C 43 25.744282 42.70368 25.075815 42.287109 24.5 C 42.70368 23.924185 43 23.255718 43 22.5 L 43 21.5 L 43 21 L 43 11.535156 C 43 9.9777728 41.50295 8.7667446 39.980469 9.0898438 L 36.451172 9.8398438 C 34.741782 10.203457 32.95826 9.8845999 31.480469 8.9511719 L 29.179688 7.4980469 C 27.599035 6.5000196 25.79949 5.999997 24 6 z M 24 8.9980469 C 25.241552 8.9980161 26.483778 9.3441836 27.578125 10.035156 L 29.878906 11.486328 C 32.017115 12.8369 34.599608 13.299824 37.074219 12.773438 L 40 12.152344 L 40 17.144531 C 39.677962 17.059546 39.346866 17 39 17 C 38.222088 17 37.533694 17.285646 36.916016 17.677734 C 36.087624 16.677956 34.88628 16 33.5 16 C 32.770226 16 32.106488 16.218962 31.494141 16.533203 C 30.753902 15.051969 29.254741 14 27.5 14 L 27 14 C 25.84203 14 24.801263 14.474942 24 15.205078 C 23.198737 14.474942 22.15797 14 21 14 L 20.5 14 C 18.745259 14 17.246098 15.051969 16.505859 16.533203 C 15.893512 16.218962 15.229774 16 14.5 16 C 13.11372 16 11.912376 16.677956 11.083984 17.677734 C 10.466306 17.285646 9.7779117 17 9 17 C 8.6531338 17 8.3220378 17.059546 8 17.144531 L 8 12.152344 L 10.925781 12.773438 C 13.399589 13.298471 15.982551 12.837108 18.121094 11.486328 L 20.423828 10.035156 C 21.517571 9.3443068 22.758448 8.9980777 24 8.9980469 z M 20.5 17 L 21 17 C 21.846499 17 22.5 17.653501 22.5 18.5 L 22.5 22.5 C 22.5 22.795045 22.295045 23 22 23 L 19.5 23 C 19.204955 23 19 22.795045 19 22.5 L 19 20.5 L 19 18.5 C 19 17.653501 19.653501 17 20.5 17 z M 27 17 L 27.5 17 C 28.346499 17 29 17.653501 29 18.5 L 29 20.5 L 29 22.5 C 29 22.795045 28.795045 23 28.5 23 L 26 23 C 25.704955 23 25.5 22.795045 25.5 22.5 L 25.5 18.5 C 25.5 17.653501 26.153501 17 27 17 z M 14.5 19 C 15.346499 19 16 19.653501 16 20.5 L 16 22.5 C 16 22.795045 15.795045 23 15.5 23 L 13.5 23 C 13.204955 23 13 22.795045 13 22.5 L 13 21 L 13 20.5 C 13 19.653501 13.653501 19 14.5 19 z M 33.5 19 C 34.346499 19 35 19.653501 35 20.5 L 35 21 L 35 22.5 C 35 22.795045 34.795045 23 34.5 23 L 32.5 23 C 32.204955 23 32 22.795045 32 22.5 L 32 20.5 C 32 19.653501 32.653501 19 33.5 19 z M 9 20 C 9.5707176 20 10 20.429282 10 21 L 10 22.5 C 10 22.795045 9.7950452 23 9.5 23 L 8.5 23 C 8.2049548 23 8 22.795045 8 22.5 L 8 21.5 L 8 21 C 8 20.429282 8.4292824 20 9 20 z M 39 20 C 39.570718 20 40 20.429282 40 21 L 40 21.5 L 40 22.5 C 40 22.795045 39.795045 23 39.5 23 L 38.5 23 C 38.204955 23 38 22.795045 38 22.5 L 38 21 C 38 20.429282 38.429282 20 39 20 z M 8.5 26 L 9.5 26 C 9.7950452 26 10 26.204955 10 26.5 L 10 28 C 10 28.570718 9.5707176 29 9 29 C 8.4292824 29 8 28.570718 8 28 L 8 27.5 L 8 26.5 C 8 26.204955 8.2049548 26 8.5 26 z M 13.5 26 L 15.5 26 C 15.795045 26 16 26.204955 16 26.5 L 16 28.5 C 16 29.346499 15.346499 30 14.5 30 C 13.653501 30 13 29.346499 13 28.5 L 13 28 L 13 26.5 C 13 26.204955 13.204955 26 13.5 26 z M 19.5 26 L 22 26 C 22.295045 26 22.5 26.204955 22.5 26.5 L 22.5 29.5 C 22.5 30.346499 21.846499 31 21 31 L 20.5 31 C 19.653501 31 19 30.346499 19 29.5 L 19 28.5 L 19 26.5 C 19 26.204955 19.204955 26 19.5 26 z M 26 26 L 28.5 26 C 28.795045 26 29 26.204955 29 26.5 L 29 28.5 L 29 29.5 C 29 30.346499 28.346499 31 27.5 31 L 27 31 C 26.153501 31 25.5 30.346499 25.5 29.5 L 25.5 26.5 C 25.5 26.204955 25.704955 26 26 26 z M 32.5 26 L 34.5 26 C 34.795045 26 35 26.204955 35 26.5 L 35 28 L 35 28.5 C 35 29.346499 34.346499 30 33.5 30 C 32.653501 30 32 29.346499 32 28.5 L 32 26.5 C 32 26.204955 32.204955 26 32.5 26 z M 38.5 26 L 39.5 26 C 39.795045 26 40 26.204955 40 26.5 L 40 27.5 L 40 28 C 40 28.570718 39.570718 29 39 29 C 38.429282 29 38 28.570718 38 28 L 38 26.5 C 38 26.204955 38.204955 26 38.5 26 z M 11.083984 31.322266 C 11.912376 32.322044 13.11372 33 14.5 33 C 15.43005 33 16.249797 32.644309 16.970703 32.152344 C 17.795274 33.243503 19.040843 34 20.5 34 L 21 34 C 22.15797 34 23.198737 33.525058 24 32.794922 C 24.801263 33.525058 25.84203 34 27 34 L 27.5 34 C 28.959157 34 30.204726 33.243503 31.029297 32.152344 C 31.750203 32.644309 32.56995 33 33.5 33 C 34.88628 33 36.087624 32.322044 36.916016 31.322266 C 37.533694 31.714354 38.222088 32 39 32 C 39.346866 32 39.677962 31.940454 40 31.855469 L 40 32.5 C 40 32.959839 39.781087 33.484746 39.09375 34.134766 C 38.406413 34.784786 37.277705 35.472121 35.816406 36.056641 C 32.893809 37.22568 28.670369 38 24 38 C 19.329631 38 15.106191 37.22568 12.183594 36.056641 C 10.722295 35.472121 9.5935869 34.784786 8.90625 34.134766 C 8.2189131 33.484746 8 32.959839 8 32.5 L 8 31.855469 C 8.3220378 31.940454 8.6531338 32 9 32 C 9.7779117 32 10.466306 31.714354 11.083984 31.322266 z"/></svg>