<svg fill="#000000" xmlns="http://www.w3.org/2000/svg"  viewBox="0 0 32 32" width="32px" height="32px"><path d="M 5 3 L 5 6 C 5 8.75 7.25 11 10 11 L 23 11 C 24.117 11 25 11.883 25 13 L 27 13 L 27 10 C 27 7.25 24.75 5 22 5 L 9 5 C 7.883 5 7 4.117 7 3 L 5 3 z M 7.2167969 6.5292969 C 7.7597969 6.8072969 8.351 7 9 7 L 22 7 C 23.461 7 24.507203 8.0967031 24.783203 9.4707031 C 24.240203 9.1927031 23.649 9 23 9 L 10 9 C 8.539 9 7.4927969 7.9032969 7.2167969 6.5292969 z M 11.001953 13 C 9.9496722 12.998859 8.5853376 13.106254 7.6757812 14.189453 C 6.8697383 15.148239 7 16.262279 7 17 C 7 17.8975 7.0611638 18.785894 7.4980469 19.595703 C 7.9349299 20.405512 8.901333 21 10 21 C 12.054103 21 14.329954 19.823246 15.189453 17.53125 C 15.388875 16.999212 15.470794 16.402839 15.439453 15.775391 C 15.426516 15.516385 15.233047 15.264995 15.167969 15 L 16.833984 15 C 16.768904 15.264995 16.575437 15.516385 16.5625 15.775391 C 16.53116 16.402839 16.61308 16.999212 16.8125 17.53125 C 17.671999 19.823246 19.949803 21 22.003906 21 C 23.102573 21 24.067023 20.405512 24.503906 19.595703 C 24.940789 18.785894 25.003906 17.8975 25.003906 17 C 25.003906 16.262863 25.133291 15.149319 24.328125 14.191406 C 23.418569 13.108207 22.054234 13.000812 21.001953 13.001953 C 20.470397 13.002701 19.986216 13.015409 19.5 13.042969 L 19.5 13 L 12.5 13 L 12.5 13.041016 C 12.014985 13.013653 11.532128 13.000746 11.001953 13 z M 10.998047 15 C 11.722277 15.001 12.332578 14.993096 12.734375 15.041016 C 13.136172 15.088886 13.243785 15.171786 13.265625 15.197266 L 13.265625 15.199219 C 13.302605 15.242299 13.423747 15.521448 13.441406 15.875 C 13.459066 16.228552 13.389936 16.639116 13.318359 16.830078 C 12.803852 18.202031 11.259897 19 10 19 C 9.441667 19 9.4066795 18.922425 9.2578125 18.646484 C 9.1089455 18.370544 9 17.7595 9 17 C 9 16.267721 9.1370743 15.559776 9.2070312 15.476562 C 9.397475 15.249761 10.206328 14.999141 10.998047 15 z M 21.003906 15.001953 C 21.795625 15.001094 22.606431 15.249761 22.796875 15.476562 L 22.796875 15.478516 C 22.865585 15.560086 23.003906 16.267721 23.003906 17 C 23.003906 17.7595 22.893008 18.370544 22.744141 18.646484 C 22.595268 18.922332 22.562239 19 22.003906 19 C 20.744009 19 19.200048 18.202082 18.685547 16.830078 C 18.613967 16.639116 18.542887 16.228552 18.560547 15.875 C 18.578207 15.521448 18.699352 15.2423 18.736328 15.199219 L 18.736328 15.197266 L 18.738281 15.197266 C 18.759001 15.173076 18.867414 15.090765 19.269531 15.042969 C 19.671648 14.995169 20.279676 15.002973 21.003906 15.001953 z M 14.013672 22 C 13.249448 22 12.127398 22.277018 11.417969 23.300781 C 11.129518 23.716444 10.51168 24.026326 9.875 24.105469 C 9.2377525 24.184682 8.6818555 23.923149 8.6894531 23.931641 L 8.3945312 23.603516 L 6.4960938 23.585938 L 6.6386719 24.720703 C 6.7688002 25.761138 7.1491431 26.807 7.9003906 27.630859 C 8.6516382 28.454719 9.7977073 29 11.160156 29 C 12.579682 29 13.511798 28.854096 14.232422 28.580078 C 14.953046 28.306061 15.403171 27.903609 15.726562 27.644531 C 15.860109 27.537791 15.902518 27.39516 16 27.28125 C 16.09748 27.39516 16.139892 27.537791 16.273438 27.644531 C 16.596829 27.903609 17.046954 28.306061 17.767578 28.580078 C 18.488202 28.854096 19.420318 29 20.839844 29 C 22.202293 29 23.348362 28.454719 24.099609 27.630859 C 24.850857 26.807 25.2312 25.761138 25.361328 24.720703 L 25.503906 23.585938 L 23.605469 23.603516 L 23.310547 23.931641 C 23.318147 23.923141 22.762248 24.184682 22.125 24.105469 C 21.48832 24.026329 20.870482 23.716397 20.582031 23.300781 C 20.582031 23.300781 20.582031 23.298828 20.582031 23.298828 C 19.872602 22.275015 18.750552 22 17.986328 22 C 17.214775 22 16.532454 22.340041 16 22.828125 C 15.467546 22.340041 14.785225 22 14.013672 22 z M 14.013672 24 C 14.570411 24 15 24.429589 15 24.986328 C 15 25.015788 14.926111 25.339178 14.789062 25.607422 C 14.652019 25.875665 14.4061 26.14179 14.478516 26.083984 L 14.476562 26.083984 C 14.091001 26.392906 13.91986 26.559454 13.521484 26.710938 C 13.123108 26.86242 12.43963 27 11.160156 27 C 10.288605 27 9.7786588 26.721594 9.3789062 26.283203 C 9.3310913 26.230763 9.3329845 26.124778 9.2890625 26.066406 C 9.5678126 26.073606 9.8386035 26.124954 10.121094 26.089844 C 11.191346 25.956805 12.34262 25.477326 13.0625 24.4375 C 13.311118 24.078327 13.678217 24 14.013672 24 z M 17.986328 24 C 18.321783 24 18.688882 24.07833 18.9375 24.4375 C 19.65738 25.477326 20.808654 25.956807 21.878906 26.089844 C 22.161396 26.124964 22.432187 26.073646 22.710938 26.066406 C 22.667018 26.124776 22.668904 26.230767 22.621094 26.283203 C 22.221337 26.721596 21.711395 27 20.839844 27 C 19.56037 27 18.876892 26.86242 18.478516 26.710938 C 18.08014 26.559455 17.909046 26.392906 17.523438 26.083984 L 17.521484 26.083984 C 17.593946 26.14179 17.34798 25.875665 17.210938 25.607422 C 17.073894 25.339178 17 25.015792 17 24.986328 C 17 24.429589 17.429589 24 17.986328 24 z"/></svg>