<svg fill="#000000" xmlns="http://www.w3.org/2000/svg"  viewBox="0 0 48 48" width="24px" height="24px"><path d="M 17.476562 0.97851562 A 1.50015 1.50015 0 0 0 16 2.5 L 16 3.1289062 C 16 3.763974 15.853084 4.019028 15.564453 4.3085938 C 15.275822 4.5981594 14.754187 4.8835911 14.056641 5.1035156 C 12.661547 5.5433646 10.752478 5.6561745 9.171875 6.0429688 A 1.50015 1.50015 0 0 0 9.1484375 6.0488281 C 6.1456691 6.8335733 4.2180019 9.334503 4.0039062 12.394531 L 4.0136719 12.296875 L 1.0136719 34.296875 A 1.50015 1.50015 0 0 0 1.0019531 34.439453 C 0.97652622 35.077951 1.1268633 35.196471 1.2207031 35.400391 C 1.3145431 35.60431 1.4203851 35.791232 1.5449219 36 C 1.7939955 36.417537 2.118558 36.904161 2.5039062 37.457031 C 3.2746028 38.562771 4.2841449 39.918946 5.2929688 41.246094 C 7.2216839 43.783395 9.0487341 46.083978 9.2148438 46.292969 A 1.50015 1.50015 0 0 0 10.193359 46.988281 A 1.50015 1.50015 0 0 0 10.28125 47.003906 A 1.50015 1.50015 0 0 0 10.373047 47.015625 A 1.50015 1.50015 0 0 0 12.009766 45.369141 C 12.068625 42.172242 14.285156 38.257812 14.285156 38.257812 C 17.128571 33.686804 16.979359 27.049328 12.802734 19.740234 A 1.50015 1.50015 0 0 0 11.4375 18.966797 A 1.50015 1.50015 0 0 0 10.197266 21.228516 C 10.462926 21.693422 10.705638 22.149708 10.933594 22.601562 L 8.0644531 32.064453 A 1.50015 1.50015 0 0 0 8.0136719 32.298828 C 7.9228999 32.967068 8.0697419 33.003822 8.1191406 33.136719 C 8.1685396 33.269616 8.2169747 33.369626 8.2695312 33.476562 C 8.374645 33.690436 8.5000021 33.917808 8.6484375 34.175781 C 8.9453083 34.691727 9.3277925 35.314093 9.7109375 35.925781 C 10.366471 36.972338 10.845551 37.706531 11.021484 37.976562 C 10.555195 38.899576 9.9665661 40.251755 9.5371094 41.833984 C 8.9385969 41.064757 8.3536738 40.318296 7.6796875 39.431641 C 6.6840073 38.121793 5.6907723 36.783698 4.9648438 35.742188 C 4.6018795 35.221432 4.3045982 34.77051 4.1210938 34.462891 C 4.0777608 34.390249 4.0681527 34.365823 4.0390625 34.3125 L 6.9863281 12.703125 A 1.50015 1.50015 0 0 0 6.9960938 12.605469 C 7.1438634 10.493367 7.92892 9.4708137 9.9042969 8.953125 C 10.975315 8.693984 13.037509 8.5706519 14.958984 7.9648438 C 15.923438 7.6607681 16.897084 7.2207156 17.689453 6.4257812 C 18.481822 5.630847 19 4.4458387 19 3.1289062 L 19 2.5 A 1.50015 1.50015 0 0 0 17.476562 0.97851562 z M 28.476562 0.97851562 A 1.50015 1.50015 0 0 0 27 2.5 L 27 3.1289062 C 27 4.4476317 27.522841 5.6334972 28.318359 6.4277344 C 29.113878 7.2219716 30.091163 7.6630619 31.058594 7.9667969 C 32.986731 8.5721556 35.055454 8.6940673 36.125 8.953125 C 38.097653 9.4701052 38.855382 10.48264 39.003906 12.605469 A 1.50015 1.50015 0 0 0 39.013672 12.703125 L 41.960938 34.3125 C 41.931848 34.36582 41.922236 34.39025 41.878906 34.462891 C 41.695402 34.77051 41.398121 35.221432 41.035156 35.742188 C 40.309228 36.783698 39.31599 38.121789 38.320312 39.431641 C 37.64511 40.319896 37.058299 41.067657 36.458984 41.837891 C 36.09447 40.49872 35.612631 39.307849 35.1875 38.416016 A 1.500779 1.500779 0 0 0 35.316406 38.220703 C 35.316406 38.220703 35.958192 37.047398 36.597656 35.824219 C 36.917388 35.212629 37.23581 34.589351 37.482422 34.074219 C 37.605728 33.816653 37.709114 33.590139 37.794922 33.378906 C 37.837822 33.27329 37.877722 33.173381 37.916016 33.046875 C 37.954316 32.920369 38.065166 32.879193 37.986328 32.298828 A 1.50015 1.50015 0 0 0 37.945312 32.099609 L 35.445312 23.082031 A 1.50015 1.50015 0 0 0 35.130859 22.486328 C 35.339769 22.077556 35.563091 21.663517 35.802734 21.244141 A 1.50015 1.50015 0 0 0 34.517578 18.980469 A 1.50015 1.50015 0 0 0 33.197266 19.755859 C 29.020641 27.064953 28.871429 33.702429 31.714844 38.273438 C 31.714844 38.273438 33.922478 42.176205 33.988281 45.369141 A 1.50015 1.50015 0 0 0 34.671875 46.787109 A 1.50015 1.50015 0 0 0 34.732422 46.822266 A 1.50015 1.50015 0 0 0 34.810547 46.867188 A 1.50015 1.50015 0 0 0 36.816406 46.253906 C 37.024796 45.991642 38.80312 43.750765 40.707031 41.246094 C 41.715855 39.918946 42.725397 38.562771 43.496094 37.457031 C 43.881442 36.904161 44.206004 36.417537 44.455078 36 C 44.579615 35.791232 44.685457 35.60431 44.779297 35.400391 C 44.873137 35.196471 45.023474 35.077951 44.998047 34.439453 A 1.50015 1.50015 0 0 0 44.986328 34.296875 L 41.986328 12.296875 L 41.996094 12.394531 C 41.782715 9.3452434 39.884335 6.8342692 36.878906 6.0488281 A 1.50015 1.50015 0 0 0 36.857422 6.0429688 C 35.275629 5.6558852 33.36017 5.5440457 31.957031 5.1035156 C 31.255462 4.8832506 30.728231 4.5949503 30.4375 4.3046875 C 30.146769 4.0144247 30 3.7621808 30 3.1289062 L 30 2.5 A 1.50015 1.50015 0 0 0 28.476562 0.97851562 z M 33.386719 26.886719 L 34.927734 32.443359 C 34.881604 32.5474 34.844474 32.634988 34.775391 32.779297 C 34.557659 33.234102 34.248643 33.840386 33.9375 34.435547 C 33.731712 34.829182 33.708087 34.865751 33.523438 35.210938 C 32.638307 32.988039 32.475174 30.177807 33.386719 26.886719 z M 12.689453 27.144531 C 13.477428 30.161959 13.350863 32.762442 12.597656 34.869141 C 12.43533 34.614347 12.424236 34.605915 12.253906 34.333984 C 11.881176 33.738923 11.511223 33.133679 11.25 32.679688 C 11.180903 32.5596 11.148259 32.493652 11.097656 32.400391 L 12.689453 27.144531 z"/></svg>