<svg id="Layer_1" data-name="Layer 1" xmlns="http://www.w3.org/2000/svg" viewBox="0 0 24 24"><path d="M6.2002,1.5A4.55361,4.55361,0,0,0,2.80273,3.0249a5.085,5.085,0,0,0-1.27929,3.898l.53418,5.64209A4.231,4.231,0,0,0,6.2002,16.5a4.231,4.231,0,0,0,4.14257-3.93506L10.877,6.92236A5.08447,5.08447,0,0,0,9.59766,3.0249,4.5536,4.5536,0,0,0,6.2002,1.5ZM3.542,3.69775a3.54859,3.54859,0,0,1,5.31641,0A3.988,3.988,0,0,1,9.704,5.18414a7.41634,7.41634,0,0,0-7.00726-.00195A3.98815,3.98815,0,0,1,3.542,3.69775ZM2.51953,6.82861c-.01172-.12359.00372-.24481.00293-.36773A6.47008,6.47008,0,0,1,9.87793,6.46c-.00073.12305.01465.24439.00293.3681L9.76709,8.02966a7.3844,7.3844,0,0,0-7.13379.00025ZM6.2002,15.5a3.23476,3.23476,0,0,1-3.14649-3.02979l-.31732-3.351a6.43509,6.43509,0,0,1,6.92749.001l-.3172,3.35A3.23476,3.23476,0,0,1,6.2002,15.5Zm11.5996,7a4.231,4.231,0,0,0,4.14258-3.93506l.53418-5.64258A5.08451,5.08451,0,0,0,21.19727,9.0249a4.54721,4.54721,0,0,0-6.79493,0,5.085,5.085,0,0,0-1.27929,3.898l.53418,5.64209A4.231,4.231,0,0,0,17.7998,22.5Zm-3.68066-9.67139c-.01172-.12359.00372-.24475.00293-.36767a6.46848,6.46848,0,0,1,7.35547-.00043c-.00079.12286.01465.24408.00293.36761l-.11371,1.20112a7.38322,7.38322,0,0,0-7.13385.00067ZM15.1416,9.69775a3.54859,3.54859,0,0,1,5.31641,0,3.98759,3.98759,0,0,1,.84546,1.48554A7.41875,7.41875,0,0,0,14.2962,11.183,3.98688,3.98688,0,0,1,15.1416,9.69775Zm-.80554,5.42194a6.43328,6.43328,0,0,1,6.92743-.00006l-.3172,3.35058a3.14873,3.14873,0,0,1-6.293,0Z"/></svg>