<svg id="Layer_1" data-name="Layer 1" xmlns="http://www.w3.org/2000/svg" viewBox="0 0 24 24"><path d="M12,1.5A6.29524,6.29524,0,0,0,7.30469,3.6084a7.047,7.047,0,0,0-1.772,5.4043l.76319,8.05957A5.82941,5.82941,0,0,0,12,22.5a5.82941,5.82941,0,0,0,5.7041-5.42773l.76367-8.05957a7.04617,7.04617,0,0,0-1.77148-5.40381A6.29528,6.29528,0,0,0,12,1.5ZM8.04443,4.28174a5.2822,5.2822,0,0,1,7.91162,0A5.94219,5.94219,0,0,1,17.347,6.978a10.41863,10.41863,0,0,0-10.69427.00061A5.93986,5.93986,0,0,1,8.04443,4.28174ZM6.52783,8.918a6.22226,6.22226,0,0,1-.02643-.65515,9.47536,9.47536,0,0,1,10.99689-.00006,6.22306,6.22306,0,0,1-.02661.65521l-.1911,2.017a10.38291,10.38291,0,0,0-10.56165.00122ZM12,21.5a4.83582,4.83582,0,0,1-4.709-4.52246l-.46619-4.92322a9.416,9.416,0,0,1,10.34961.00031L16.708,16.97754A4.83494,4.83494,0,0,1,12,21.5Z"/></svg>