<svg fill="#000000" xmlns="http://www.w3.org/2000/svg"  viewBox="0 0 48 48" width="24px" height="24px"><path d="M 18.515625 2 A 1.50015 1.50015 0 0 0 17.158203 4.1699219 L 19 7.8535156 L 19 11.050781 C 17.319009 11.299642 16 12.756183 16 14.5 L 16 17.101562 C 14.326495 17.357193 13 18.761589 13 20.5 L 13 38.5 C 13 42.624501 16.375499 46 20.5 46 L 27.5 46 C 31.624501 46 35 42.624501 35 38.5 L 35 20.5 C 35 18.761589 33.673505 17.357193 32 17.101562 L 32 14.5 C 32 12.756183 30.680991 11.299642 29 11.050781 L 29 7.1855469 C 29 4.9050753 27.262894 2.964923 24.996094 2.7128906 L 18.666016 2.0097656 A 1.50015 1.50015 0 0 0 18.515625 2 z M 21.074219 5.2949219 L 24.666016 5.6933594 C 25.439216 5.779327 26 6.4080184 26 7.1855469 L 26 11 L 22 11 L 22 7.5 A 1.50015 1.50015 0 0 0 21.841797 6.8300781 L 21.074219 5.2949219 z M 19.5 14 L 20.5 14 L 27.5 14 L 28.5 14 C 28.795045 14 29 14.204955 29 14.5 L 29 17 L 19 17 L 19 14.5 C 19 14.204955 19.204955 14 19.5 14 z M 16.5 20 L 31.5 20 C 31.795045 20 32 20.204955 32 20.5 L 32 38.5 C 32 41.003499 30.003499 43 27.5 43 L 20.5 43 C 17.996501 43 16 41.003499 16 38.5 L 16 20.5 C 16 20.204955 16.204955 20 16.5 20 z"/></svg>