<svg id="Layer_1" data-name="Layer 1" xmlns="http://www.w3.org/2000/svg" viewBox="0 0 24 24"><path d="M22.479,13.85645,19.90674,5.28174A2.48484,2.48484,0,0,0,17.51172,3.5H16a.5.5,0,0,0,0,1h1.51172a1.49137,1.49137,0,0,1,1.437,1.06885l2.30756,7.69226a12.31919,12.31919,0,0,0-6.76068.74035h-.00049A1.49344,1.49344,0,0,0,13.5,15.41553v.42926a2.57,2.57,0,0,0-3,0v-.42926a1.49344,1.49344,0,0,0-.99512-1.41407H9.50439a12.30264,12.30264,0,0,0-6.76068-.74041l2.30756-7.6922A1.49137,1.49137,0,0,1,6.48828,4.5H8a.5.5,0,0,0,0-1H6.48828a2.48484,2.48484,0,0,0-2.395,1.78174L1.521,13.85645a.4772.4772,0,0,0-.00995.10821C1.51007,13.97742,1.5,13.98706,1.5,14v4A2.50294,2.50294,0,0,0,4,20.5H8A2.50294,2.50294,0,0,0,10.5,18v-.793l.43945-.43945a1.50123,1.50123,0,0,1,2.1211,0L13.5,17.207V18A2.50294,2.50294,0,0,0,16,20.5h4A2.50294,2.50294,0,0,0,22.5,18V14c0-.01294-.01007-.02258-.01105-.03534A.4772.4772,0,0,0,22.479,13.85645ZM9.5,18A1.50164,1.50164,0,0,1,8,19.5H4A1.50164,1.50164,0,0,1,2.5,18V14.356c1.76025-.55127,3.94873-.35742,6.67627.58984A.49328.49328,0,0,1,9.5,15.41553Zm12,0A1.50164,1.50164,0,0,1,20,19.5H16A1.50164,1.50164,0,0,1,14.5,18V15.41553a.49328.49328,0,0,1,.32373-.46973c2.72852-.94726,4.9165-1.14062,6.67627-.58984Z"/></svg>