<svg id="Layer_1" data-name="Layer 1" xmlns="http://www.w3.org/2000/svg" viewBox="0 0 24 24"><path d="M22,13.93945,19.86377,5.394A2.4963,2.4963,0,0,0,17.43848,3.5H16a.5.5,0,0,0,0,1h1.43848A1.4986,1.4986,0,0,1,18.894,5.63623L20.56213,12.309a4.4783,4.4783,0,0,0-6.92694,2.64478,2.55589,2.55589,0,0,0-3.27038,0A4.4783,4.4783,0,0,0,3.43787,12.309L5.106,5.63623A1.4986,1.4986,0,0,1,6.56152,4.5H8a.5.5,0,0,0,0-1H6.56152A2.4963,2.4963,0,0,0,4.13623,5.394L2,13.93945c-.00391.01563.00024.03064-.00214.04621A4.44337,4.44337,0,0,0,1.5,16a4.49111,4.49111,0,0,0,8.97675.23029l.4627-.46271a1.50123,1.50123,0,0,1,2.1211,0l.4627.46271A4.49111,4.49111,0,0,0,22.5,16a4.44337,4.44337,0,0,0-.49786-2.01434C21.99976,13.97009,22.00391,13.95508,22,13.93945ZM6,19.5A3.5,3.5,0,1,1,9.5,16,3.50424,3.50424,0,0,1,6,19.5Zm12,0A3.5,3.5,0,1,1,21.5,16,3.50424,3.50424,0,0,1,18,19.5Z"/></svg>