<svg id="Layer_1" data-name="Layer 1" xmlns="http://www.w3.org/2000/svg" viewBox="0 0 24 24"><path d="M1.52991,15.14209a.45957.45957,0,0,0,.01935.057.49126.49126,0,0,0,.15277.19964l.005.00653L3.7085,16.85059l-.48389,3.07177a.50007.50007,0,0,0,.80859.46631L6.5,18.39307l2.4668,1.9956a.50007.50007,0,0,0,.80859-.46631L9.2915,16.85059,11.1618,15.5h1.6764L14.708,16.85059l-.4834,3.07177a.50007.50007,0,0,0,.80859.46631L17.5,18.39307l2.4668,1.9956a.50007.50007,0,0,0,.80859-.46631l-.4834-3.07177,2.001-1.44532.00476-.00622a.49123.49123,0,0,0,.15314-.20026.46885.46885,0,0,0,.01916-.0567A.48656.48656,0,0,0,22.486,14.922c-.00165-.01087.0047-.021.00232-.03186l-.005-.00891c-.001-.00422.0003-.00837-.00086-.01258L19.88477,5.34229A2.50574,2.50574,0,0,0,17.47266,3.5H16a.5.5,0,0,0,0,1h1.47266a1.50359,1.50359,0,0,1,1.44726,1.105l2.38825,8.75836L19.00586,13.937,17.97461,10.8418a.521.521,0,0,0-.94922,0L15.99414,13.937,12.954,14.5H11.046l-3.04016-.563L6.97412,10.8418a.52019.52019,0,0,0-.94824,0L4.99414,13.937l-2.30225.42633L5.08057,5.605A1.50316,1.50316,0,0,1,6.52783,4.5H8a.5.5,0,0,0,0-1H6.52783A2.5053,2.5053,0,0,0,4.11572,5.34229L1.51758,14.86865c-.00122.00458.00018.009-.00092.01355l-.00445.00794c-.0022.0097.0036.0188.002.02856A.48487.48487,0,0,0,1.52991,15.14209Zm14.93591-.27539a.50171.50171,0,0,0,.38379-.3335L17.5,12.58105l.65039,1.95215a.50171.50171,0,0,0,.38379.3335l2.22559.41211-1.30274.94092a.50048.50048,0,0,0-.20117.48291L19.585,18.794l-1.77051-1.43262a.49974.49974,0,0,0-.6289,0L15.415,18.794l.3291-2.09131a.50048.50048,0,0,0-.20117-.48291l-1.30274-.94092Zm-11,0a.49953.49953,0,0,0,.3833-.3335L6.5,12.58105l.65088,1.95215a.49953.49953,0,0,0,.3833.3335l2.22559.41211L8.457,16.21973a.50048.50048,0,0,0-.20117.48291L8.58545,18.794l-1.771-1.43262a.49974.49974,0,0,0-.6289,0L4.41455,18.794l.32959-2.09131a.50048.50048,0,0,0-.20117-.48291l-1.30274-.94092Z"/></svg>