<svg id="Layer_1" data-name="Layer 1" xmlns="http://www.w3.org/2000/svg" viewBox="0 0 24 24"><path d="M2.5,19v2A1.50164,1.50164,0,0,0,4,22.5H19A1.50164,1.50164,0,0,0,20.5,21V19A1.50164,1.50164,0,0,0,19,17.5H4A1.50164,1.50164,0,0,0,2.5,19Zm17,0v2a.50065.50065,0,0,1-.5.5H4a.50034.50034,0,0,1-.5-.5V19a.50034.50034,0,0,1,.5-.5H19A.50065.50065,0,0,1,19.5,19ZM4.5,8a6.5,6.5,0,0,1,13,0V9.34277a2.5,2.5,0,0,1,3.26758,3.76807L17.87885,16H16.53418a.49666.49666,0,0,1,.1123-.18164l3.41407-3.41455a1.5,1.5,0,1,0-2.1211-2.12158l-.58593.58593A.5.5,0,0,1,16.5,10.51465V8a5.5,5.5,0,0,0-11,0v8h-1Z"/></svg>