<svg id="Layer_1" data-name="Layer 1" xmlns="http://www.w3.org/2000/svg" viewBox="0 0 24 24"><path d="M21.41211,5.52393,13.957,2.83936a5.80617,5.80617,0,0,0-3.91455,0L2.5874,5.52393a1.5462,1.5462,0,0,0,0,2.95312l1.35828.48914a2.49819,2.49819,0,0,0-.44568,1.42v6.16168a1.48243,1.48243,0,0,0-1.17432,1.0893L2,18.939a2.06143,2.06143,0,1,0,4,0l-.32568-1.30175A1.48243,1.48243,0,0,0,4.5,16.54791V10.38623a1.49139,1.49139,0,0,1,.45813-1.05548l5.08435,1.83087a5.79057,5.79057,0,0,0,3.91455,0l7.45508-2.68457a1.546,1.546,0,0,0,0-2.95312ZM4.70459,17.87939l.32568,1.30176a1.05532,1.05532,0,0,1-.19384.91114,1.09258,1.09258,0,0,1-1.67286,0,1.05532,1.05532,0,0,1-.19384-.91114l.32568-1.30176a.50036.50036,0,0,1,.48535-.3789h.43848A.50036.50036,0,0,1,4.70459,17.87939ZM21.07422,7.53564l-7.45508,2.68457a4.77637,4.77637,0,0,1-3.23779,0L6.19318,8.712l5.9826-2.24378a.49971.49971,0,1,0-.35156-.93555L5.12256,8.04541a2.47185,2.47185,0,0,0-.34021.15863l-1.85608-.6684a.54906.54906,0,0,1,0-1.07031l7.45508-2.68457a4.78433,4.78433,0,0,1,3.23779,0l7.45508,2.68457a.5492.5492,0,0,1,0,1.07031ZM6.71191,12.063c-.10546,1.25293.41944,2.48144,1.1709,2.74023a12.579,12.579,0,0,0,8.23438,0c.751-.25879,1.27636-1.4873,1.1709-2.74023l-.04139-.49164.9737-.35065.06378.7583c.14648,1.73829-.64551,3.3584-1.84277,3.76954a13.56065,13.56065,0,0,1-8.8833,0C6.36084,15.3374,5.56885,13.71631,5.71582,11.979l.0639-.7583.97364.35059Z"/></svg>