<svg fill="#000000" xmlns="http://www.w3.org/2000/svg"  viewBox="0 0 48 48" width="24px" height="24px"><path d="M 37.294922 3.0078125 C 36.438922 2.9548125 35.981609 3.9938906 36.599609 4.5878906 C 37.742609 5.6848906 39.172687 7.0613594 39.554688 7.4433594 C 42.004688 9.8933594 40.017453 17.361453 33.689453 23.689453 C 29.518453 27.860453 24.338188 30.556641 20.492188 30.556641 C 19.132188 30.556641 17.998203 29.748984 17.283203 29.208984 C 17.033203 29.020984 15.796688 27.775484 14.929688 26.896484 C 14.242688 26.198484 12.996047 26.646953 12.998047 27.626953 L 12.998047 27.664062 C 13.008986 28.219048 13.114454 28.74644 13.277344 29.248047 C 11.131236 30.769514 8.7698854 32.553653 7.1738281 34.166016 A 1.50015 1.50015 0 0 0 7.171875 34.166016 C 5.6409586 35.713411 4.5939235 37.347888 4.1738281 39.025391 C 3.7537328 40.702894 4.0802801 42.54058 5.3144531 43.787109 C 6.6445505 45.131307 8.6060896 45.239995 10.279297 44.757812 C 11.952504 44.275632 13.552971 43.248414 14.878906 41.908203 C 17.154831 39.607519 19.415357 36.380279 20.996094 33.980469 C 25.550745 33.786715 31.264437 30.987517 36.126953 26.125 C 43.577953 18.674 46.101234 9.3178125 41.990234 5.0078125 C 40.587234 3.5368125 38.730922 3.0958125 37.294922 3.0078125 z M 32.5 4 C 32.11625 4 31.732453 4.1464531 31.439453 4.4394531 C 30.853453 5.0244531 30.853453 5.9755469 31.439453 6.5605469 L 34.439453 9.5605469 C 34.732453 9.8535469 35.116 10 35.5 10 C 35.884 10 36.268547 9.8535469 36.560547 9.5605469 C 37.146547 8.9755469 37.146547 8.0244531 36.560547 7.4394531 L 33.560547 4.4394531 C 33.267547 4.1464531 32.88375 4 32.5 4 z M 26.484375 5.984375 A 1.50015 1.50015 0 0 0 25.439453 8.5605469 L 27.439453 10.560547 A 1.50015 1.50015 0 1 0 29.560547 8.4394531 L 27.560547 6.4394531 A 1.50015 1.50015 0 0 0 26.484375 5.984375 z M 21.574219 10.074219 A 1.50015 1.50015 0 0 0 20.529297 12.650391 L 22.439453 14.560547 A 1.50015 1.50015 0 1 0 24.560547 12.439453 L 22.650391 10.529297 A 1.50015 1.50015 0 0 0 21.574219 10.074219 z M 31.484375 10.984375 A 1.50015 1.50015 0 0 0 30.439453 13.560547 L 33.439453 16.560547 A 1.50015 1.50015 0 1 0 35.560547 14.439453 L 32.560547 11.439453 A 1.50015 1.50015 0 0 0 31.484375 10.984375 z M 17.484375 14.984375 A 1.50015 1.50015 0 0 0 16.439453 17.560547 L 18.439453 19.560547 A 1.50015 1.50015 0 1 0 20.560547 17.439453 L 18.560547 15.439453 A 1.50015 1.50015 0 0 0 17.484375 14.984375 z M 27.484375 15.984375 A 1.50015 1.50015 0 0 0 26.439453 18.560547 L 29.439453 21.560547 A 1.50015 1.50015 0 1 0 31.560547 19.439453 L 28.560547 16.439453 A 1.50015 1.50015 0 0 0 27.484375 15.984375 z M 22.484375 19.984375 A 1.50015 1.50015 0 0 0 21.439453 22.560547 L 24.439453 25.560547 A 1.50015 1.50015 0 1 0 26.560547 23.439453 L 23.560547 20.439453 A 1.50015 1.50015 0 0 0 22.484375 19.984375 z M 16.5 22 C 16.11625 22 15.732453 22.146453 15.439453 22.439453 C 14.853453 23.024453 14.853453 23.975547 15.439453 24.560547 L 18.439453 27.560547 C 18.732453 27.853547 19.116 28 19.5 28 C 19.884 28 20.268547 27.853547 20.560547 27.560547 C 21.146547 26.975547 21.146547 26.024453 20.560547 25.439453 L 17.560547 22.439453 C 17.267547 22.146453 16.88375 22 16.5 22 z M 14.853516 31.8125 C 14.907451 31.869543 14.952558 31.936982 15.007812 31.992188 C 15.742996 32.726292 16.641183 33.245059 17.65625 33.574219 C 16.201063 35.694535 14.379487 38.147665 12.746094 39.798828 C 11.750029 40.805617 10.485058 41.575931 9.4472656 41.875 C 8.4094728 42.174069 7.8151682 42.049537 7.4472656 41.677734 A 1.50015 1.50015 0 0 0 7.4472656 41.675781 C 6.9834358 41.207358 6.8473297 40.698903 7.0839844 39.753906 C 7.320639 38.808909 8.0486039 37.544995 9.3046875 36.275391 C 10.588409 34.978555 12.800855 33.282007 14.853516 31.8125 z"/></svg>