<svg fill="#000000" xmlns="http://www.w3.org/2000/svg"  viewBox="0 0 48 48" width="24px" height="24px"><path d="M 37.380859 3.0019531 C 37.059844 2.9989531 36.731563 3.0559844 36.414062 3.1777344 C 30.766062 5.3507344 25.662547 9.7928594 20.810547 16.755859 C 18.337547 20.305859 16.002484 23.657891 13.896484 25.462891 C 10.202484 28.628891 6.7826563 29.011719 5.3476562 29.011719 C 5.2686562 29.011719 5.1969531 29.009766 5.1269531 29.009766 C 3.2719531 29.009766 1.6443437 30.184625 1.1523438 31.890625 C 0.80734375 33.085625 1.0306719 34.346609 1.7636719 35.349609 C 2.5026719 36.359609 3.6452969 36.958188 4.9042969 36.992188 C 5.0712969 36.997187 5.2429219 37 5.4199219 37 C 6.9604881 37 9.2529482 36.768342 11.921875 35.794922 C 11.050694 37.384723 10.432231 38.82133 10.128906 40.015625 C 9.519054 42.422027 11.290086 44.868886 13.78125 45 L 13.783203 45 L 13.783203 45.001953 C 15.6824 45.100403 17.415505 43.821172 17.865234 41.964844 C 18.140458 40.828853 18.844646 39.096793 20.1875 37.001953 C 20.287877 37.006487 20.387915 37.023438 20.488281 37.023438 C 22.197281 37.023438 23.89225 36.370469 25.15625 35.105469 C 26.68172 33.579999 27.264885 31.410419 26.876953 29.349609 C 30.874109 25.73365 36.486694 21.737822 44.341797 17.722656 L 44.34375 17.722656 C 45.346298 17.209511 46 16.178213 46 15.029297 C 46 13.50851 44.835 12.299862 43.445312 12.054688 C 42.982084 11.972957 42.493826 11.998107 42.015625 12.154297 C 37.048512 13.777779 32.678312 15.943405 28.892578 18.369141 C 31.93567 14.050952 35.249727 9.6716862 38.537109 8.0136719 C 39.835109 7.3596719 40.362844 5.7725625 39.714844 4.4765625 C 39.255094 3.5563125 38.343906 3.0109531 37.380859 3.0019531 z M 33.484375 8.0214844 C 30.447375 10.852484 27.623922 14.911234 25.044922 18.615234 L 24.667969 19.15625 C 23.882969 20.28225 23.106453 21.693 22.689453 22.75 C 22.374453 23.55 21.411969 25.982234 23.042969 28.115234 L 23.257812 28.357422 C 24.327812 29.805422 24.236156 31.784375 23.035156 32.984375 C 21.866156 34.154375 19.931156 34.357125 18.535156 33.453125 L 17.347656 32.851562 C 15.761656 31.860563 13.824484 31.717656 12.146484 32.472656 C 9.3414844 33.734656 6.9409219 34 5.4199219 34 C 5.2699219 34 5.1234219 33.998094 4.9824219 33.996094 C 4.6614219 33.987094 4.3725469 33.835078 4.1855469 33.580078 C 4.0785469 33.435078 3.9171563 33.131609 4.0351562 32.724609 C 4.1571562 32.302609 4.6463906 31.996719 5.1503906 32.011719 C 6.8363906 32.057719 11.244656 31.688188 15.847656 27.742188 C 18.243656 25.687187 20.686484 22.182656 23.271484 18.472656 C 26.559484 13.753656 29.929375 10.299484 33.484375 8.0214844 z M 43 14.986328 C 43.004283 14.987071 43 14.999152 43 15.029297 C 43 15.026397 42.994002 15.043824 42.976562 15.052734 C 35.377544 18.937002 29.751304 22.839915 25.59375 26.474609 L 25.390625 26.244141 C 25.177299 25.946511 25.034184 25.543674 25.1875 24.802734 C 29.789647 20.974842 35.682875 17.380199 42.947266 15.005859 L 42.947266 15.007812 C 42.982866 14.996187 42.995717 14.985586 43 14.986328 z M 20.5 29 A 1.5 1.5 0 0 0 20.5 32 A 1.5 1.5 0 0 0 20.5 29 z M 15.677734 35.361328 C 15.715639 35.383215 15.757975 35.39408 15.794922 35.417969 L 16.982422 36.019531 C 17.053361 36.064009 17.129022 36.095233 17.201172 36.136719 C 16.000987 38.141126 15.282783 39.882966 14.949219 41.259766 C 14.834948 41.731437 14.432256 42.031406 13.939453 42.005859 C 13.276618 41.970969 12.869009 41.407551 13.035156 40.751953 C 13.331293 39.587012 14.233378 37.621849 15.677734 35.361328 z"/></svg>