<svg fill="#000000" xmlns="http://www.w3.org/2000/svg"  viewBox="0 0 48 48" width="24px" height="24px"><path d="M 23.996094 4.9902344 C 23.880334 4.9902344 23.767085 5.0031545 23.652344 5.0078125 A 1.50015 1.50015 0 0 0 23.5 5 L 19.5 5 C 13.16639 5 8 10.16639 8 16.5 L 8 26.669922 L 4.7949219 26.029297 A 1.50015 1.50015 0 0 0 4.4960938 26 A 1.50015 1.50015 0 0 0 3 27.5 C 3 35.529876 7.1175624 39.852533 9.7617188 41.681641 A 1.50015 1.50015 0 0 0 9.7617188 41.683594 C 11.015428 42.549472 12.501553 43 14.013672 43 L 33.986328 43 C 35.498447 43 36.983004 42.549253 38.236328 41.683594 C 40.881739 39.854392 45 35.529876 45 27.5 A 1.50015 1.50015 0 0 0 43.205078 26.029297 L 34.988281 27.673828 C 33.535601 27.963864 32.203091 28.677768 31.15625 29.724609 L 29.197266 31.681641 C 28.351921 32.526234 27.209391 33 26.015625 33 L 21.986328 33 C 20.791313 33 19.646777 32.525684 18.802734 31.681641 L 16.845703 29.724609 C 15.7993 28.678206 14.465645 27.964098 13.013672 27.673828 L 13.011719 27.673828 L 11 27.271484 L 11 16.5 C 11 12.521852 13.702711 9.2131173 17.378906 8.2753906 C 16.50203 9.4744141 15.982422 10.926349 15.982422 12.503906 A 1.50015 1.50015 0 0 0 17.482422 14.003906 L 30.509766 14.003906 A 1.50015 1.50015 0 0 0 32.009766 12.503906 C 32.009766 8.3041221 28.341495 4.9902344 23.996094 4.9902344 z M 23.996094 7.9902344 C 26.229526 7.9902344 28.000867 9.276315 28.679688 11.003906 L 19.3125 11.003906 C 19.991384 9.2765887 21.762879 7.9902344 23.996094 7.9902344 z M 19 16 A 1 1 0 0 0 19 18 A 1 1 0 0 0 19 16 z M 24 16 A 1 1 0 0 0 24 18 A 1 1 0 0 0 24 16 z M 29 16 A 1 1 0 0 0 29 18 A 1 1 0 0 0 29 16 z M 19 20 A 1 1 0 0 0 19 22 A 1 1 0 0 0 19 20 z M 24 20 A 1 1 0 0 0 24 22 A 1 1 0 0 0 24 20 z M 29 20 A 1 1 0 0 0 29 22 A 1 1 0 0 0 29 20 z M 19 24 A 1 1 0 0 0 19 26 A 1 1 0 0 0 19 24 z M 24 24 A 1 1 0 0 0 24 26 A 1 1 0 0 0 24 24 z M 29 24 A 1 1 0 0 0 29 26 A 1 1 0 0 0 29 24 z M 6.2285156 29.375 L 8.9726562 29.923828 A 1.50015 1.50015 0 0 0 9.4414062 30.017578 L 12.423828 30.615234 A 1.50015 1.50015 0 0 0 12.425781 30.615234 C 13.297101 30.789198 14.095451 31.216544 14.724609 31.845703 L 16.681641 33.802734 C 18.087551 35.208691 19.997343 36 21.986328 36 L 26.015625 36 C 28.003859 36 29.911704 35.210093 31.318359 33.804688 A 1.50015 1.50015 0 0 0 31.318359 33.802734 L 33.277344 31.845703 C 33.906503 31.216544 34.704852 30.789198 35.576172 30.615234 L 41.771484 29.375 C 41.195561 35.015015 38.405015 37.919206 36.53125 39.214844 C 35.786574 39.729184 34.904209 40 33.986328 40 L 14.013672 40 C 13.096434 40 12.212714 39.728218 11.46875 39.214844 L 11.466797 39.214844 C 9.5937082 37.918826 6.8043244 35.013987 6.2285156 29.375 z"/></svg>