<svg fill="#000000" xmlns="http://www.w3.org/2000/svg"  viewBox="0 0 48 48" width="24px" height="24px"><path d="M 24.265625 0.265625 C 23.05236 0.37399499 21.880821 0.9536258 21.068359 1.9765625 A 1.50015 1.50015 0 0 0 21.056641 1.9921875 L 13.195312 12.152344 C 11.727524 14.048496 11.203696 16.512629 11.771484 18.841797 L 11.765625 18.824219 L 15.908203 36.775391 L 11.189453 45.271484 A 1.50015 1.50015 0 1 0 13.810547 46.728516 L 18.810547 37.728516 A 1.50015 1.50015 0 0 0 18.960938 36.662109 L 14.689453 18.148438 A 1.50015 1.50015 0 0 0 14.685547 18.130859 C 14.333336 16.686028 14.656197 15.164129 15.566406 13.988281 L 23.417969 3.84375 C 24.001045 3.1096234 25.028408 3.0172073 25.732422 3.6367188 C 26.380162 4.206646 26.469305 5.1423045 25.939453 5.8242188 A 1.50015 1.50015 0 0 0 25.835938 5.9765625 L 21.210938 13.732422 A 1.5002856 1.5002856 0 0 0 21.015625 14.283203 C 20.802243 14.501851 20.605515 14.741848 20.435547 15.011719 C 19.796291 16.026706 19.566345 17.383005 19.892578 18.802734 A 1.50015 1.50015 0 0 0 19.894531 18.808594 L 22.447266 29.673828 A 1.50015 1.50015 0 1 0 25.367188 28.986328 L 22.816406 18.130859 C 22.639639 17.361589 22.770166 16.932841 22.972656 16.611328 C 23.164015 16.307496 23.490108 16.097569 23.851562 15.982422 C 24.274732 15.919272 24.814744 15.948912 25.240234 16.121094 C 25.687713 16.30217 25.985944 16.558139 26.167969 16.984375 L 29.816406 27.0625 A 1.50015 1.50015 0 0 0 29.835938 27.111328 C 31.720457 31.804295 31.374403 37.09357 28.900391 41.503906 L 26.234375 45.695312 A 1.50015 1.50015 0 1 0 28.765625 47.304688 L 31.464844 43.0625 A 1.50015 1.50015 0 0 0 31.507812 42.992188 C 34.434832 37.788472 34.843404 31.53471 32.619141 25.994141 L 28.964844 15.892578 A 1.50015 1.50015 0 0 0 28.935547 15.820312 C 28.415328 14.590906 27.407807 13.761729 26.365234 13.339844 C 25.95891 13.175421 25.545602 13.078472 25.132812 13.013672 L 28.412109 7.5136719 L 28.308594 7.6660156 C 29.792742 5.7559298 29.531104 2.9828384 27.714844 1.3847656 C 26.733851 0.52152136 25.47889 0.15725501 24.265625 0.265625 z"/></svg>