<svg fill="#000000" xmlns="http://www.w3.org/2000/svg"  viewBox="0 0 48 48" width="24px" height="24px"><path d="M 41.626953 4.1308594 C 41.031953 4.1308594 40.462016 4.3651563 40.041016 4.7851562 C 35.943657 8.8825148 26.497202 18.328813 24.474609 20.351562 L 22.847656 18.724609 A 1.50015 1.50015 0 0 0 20.726562 18.724609 L 13.734375 25.71875 L 12.880859 24.865234 C 13.169034 24.577048 13.514645 24.229496 13.734375 24.009766 C 13.903375 23.840766 13.998047 23.612047 13.998047 23.373047 C 13.998047 23.133047 13.903375 22.903375 13.734375 22.734375 L 13.724609 22.726562 C 13.532609 22.533562 13.271047 22.425781 12.998047 22.425781 C 12.726047 22.425781 12.466438 22.533563 12.273438 22.726562 C 11.306437 23.693562 9.6089219 25.390125 8.6699219 26.328125 C 8.4919219 26.506125 8.3925781 26.748 8.3925781 27 C 8.3925781 27.252 8.4919219 27.493875 8.6699219 27.671875 L 8.7148438 27.716797 C 9.0778437 28.078797 9.6662969 28.078797 10.029297 27.716797 C 10.24064 27.505234 10.568725 27.177502 10.841797 26.904297 L 11.695312 27.757812 L 5.5136719 33.939453 A 1.50015 1.50015 0 0 0 5.5136719 36.060547 L 6.9824219 37.529297 C 6.962913 37.565876 5.0021498 41.246448 3.8359375 43.433594 C 3.7239375 43.643594 3.7616875 43.902312 3.9296875 44.070312 C 4.0976875 44.238312 4.3564062 44.276062 4.5664062 44.164062 C 6.7544145 42.99739 10.437009 41.031642 10.470703 41.013672 L 12.121094 42.664062 A 1.50015 1.50015 0 0 0 14.242188 42.664062 L 29.453125 27.451172 A 1.50015 1.50015 0 0 0 29.453125 25.330078 L 27.646484 23.523438 L 43.212891 7.9570312 C 43.632891 7.5360312 43.869141 6.9670469 43.869141 6.3730469 C 43.869141 5.7780469 43.632891 5.2081094 43.212891 4.7871094 C 43.212891 4.7871094 43.212891 4.7851562 43.212891 4.7851562 C 42.792891 4.3651563 42.220953 4.1308594 41.626953 4.1308594 z M 21.787109 21.90625 L 26.271484 26.390625 L 13.181641 39.482422 L 8.6972656 34.998047 L 21.787109 21.90625 z"/></svg>