<svg id="Layer_1" data-name="Layer 1" xmlns="http://www.w3.org/2000/svg" viewBox="0 0 24 24"><path d="M18.5,14A2.50263,2.50263,0,0,0,16,11.5H8A2.50263,2.50263,0,0,0,5.5,14v6A2.50263,2.50263,0,0,0,8,22.5h8A2.50263,2.50263,0,0,0,18.5,20Zm-1,6A1.50164,1.50164,0,0,1,16,21.5H8A1.50164,1.50164,0,0,1,6.5,20V14A1.50164,1.50164,0,0,1,8,12.5h8A1.50164,1.50164,0,0,1,17.5,14Zm5-8.19824A2.693,2.693,0,0,1,20,14.48V14a3.93528,3.93528,0,0,0-.05206-.51477,1.69335,1.69335,0,0,0,.1878-3.34851L12,8.50977l-8.13574,1.627a1.69335,1.69335,0,0,0,.1878,3.34851A3.93528,3.93528,0,0,0,4,14v.48a2.69079,2.69079,0,0,1-.331-5.32373L10.48138,7.794C9.26691,7.14911,8.5,6.5108,8.5,5a3.5,3.5,0,0,1,7,0,.5.5,0,0,1-1,0,2.5,2.5,0,0,0-5,0c0,1.15674.502,1.45605,2.24414,2.31494l.41943.208,8.16748,1.6333A2.70512,2.70512,0,0,1,22.5,11.80176Z"/></svg>