<svg id="Layer_1" data-name="Layer 1" xmlns="http://www.w3.org/2000/svg" viewBox="0 0 24 24"><path d="M20.5,17.5506V12a8.50413,8.50413,0,0,0-4.54858-7.51935A3.96938,3.96938,0,0,1,15.70618,5.488,7.49971,7.49971,0,0,1,19.5,12v5.5H4.5V12A7.49971,7.49971,0,0,1,8.29382,5.488a3.96938,3.96938,0,0,1-.24524-1.00739A8.50413,8.50413,0,0,0,3.5,12v5.5506A2.5,2.5,0,0,0,4,22.5H20a2.5,2.5,0,0,0,.5-4.9494ZM5.5,21.5H4a1.5,1.5,0,0,1,0-3H5.5Zm4,0h-3v-3h3Zm4,0h-3v-3h3Zm4,0h-3v-3h3Zm2.5,0H18.5v-3H20a1.5,1.5,0,0,1,0,3ZM14.5,4A2.5,2.5,0,1,0,12,6.5,2.50294,2.50294,0,0,0,14.5,4Zm-4,0A1.5,1.5,0,1,1,12,5.5,1.50164,1.50164,0,0,1,10.5,4Z"/></svg>