<svg id="Layer_1" data-name="Layer 1" xmlns="http://www.w3.org/2000/svg" viewBox="0 0 24 24"><path d="M20.5,17.55054V12A8.44738,8.44738,0,0,0,15.95,4.49518a3.97008,3.97008,0,0,1-.24359.99255,7.4691,7.4691,0,0,1,3.21558,3.621l-.587-.58728a1.49928,1.49928,0,0,0-2.40234.39063l-.65625,1.31152a.49926.49926,0,0,1-.84668.07617L13.2002,8.66113a1.54388,1.54388,0,0,0-2.4004,0L9.57031,10.2998A.50175.50175,0,0,1,9.125,10.498a.49389.49389,0,0,1-.40137-.27442L8.06738,8.91309A1.49876,1.49876,0,0,0,5.665,8.52148l-.587.58728a7.4691,7.4691,0,0,1,3.21558-3.621,3.97008,3.97008,0,0,1-.24359-.99255A8.44738,8.44738,0,0,0,3.5,12v5.55054A2.5,2.5,0,0,0,4,22.5H20a2.5,2.5,0,0,0,.5-4.94946ZM4.5,12a7.58026,7.58026,0,0,1,.06476-.971c.00708-.00634.01629-.00854.02313-.01538L6.37207,9.22852a.49979.49979,0,0,1,.80078.13086L7.8291,10.6709a1.49122,1.49122,0,0,0,1.20606.82324,1.51951,1.51951,0,0,0,1.33593-.59473l1.2295-1.63867a.51409.51409,0,0,1,.79882,0l1.2295,1.63867A1.493,1.493,0,0,0,14.82715,11.5q.06885,0,.13769-.00586a1.49122,1.49122,0,0,0,1.20606-.82324l.65625-1.3125a.49557.49557,0,0,1,.36621-.26953.488.488,0,0,1,.43457.13965l1.80786,1.80883A7.57489,7.57489,0,0,1,19.5,12v1.68707l-1.165-1.16559a1.49928,1.49928,0,0,0-2.40234.39063l-.65625,1.31152a.49926.49926,0,0,1-.84668.07617L13.2002,12.66113a1.54388,1.54388,0,0,0-2.4004,0L9.57031,14.2998a.49922.49922,0,0,1-.44531.19825.49389.49389,0,0,1-.40137-.27442l-.65625-1.31054A1.49876,1.49876,0,0,0,5.665,12.52148L4.5,13.68707Zm0,3.1015,1.87207-1.873a.49979.49979,0,0,1,.80078.13086L7.8291,14.6709a1.49122,1.49122,0,0,0,1.20606.82324,1.51713,1.51713,0,0,0,1.33593-.59473l1.2295-1.63867a.51409.51409,0,0,1,.79882,0l1.2295,1.63867A1.493,1.493,0,0,0,14.82715,15.5q.06885,0,.13769-.00586a1.49122,1.49122,0,0,0,1.20606-.82324l.65625-1.3125a.50031.50031,0,0,1,.80078-.12988L19.5,15.1015V17.5H4.5ZM4,21.5a1.5,1.5,0,0,1,0-3h.69092l1.5,3Zm3.30908,0-1.5-3H8.69092l1.5,3Zm4,0-1.5-3h2.88184l1.5,3Zm4,0-1.5-3h2.88184l1.5,3ZM20,21.5h-.69092l-1.5-3H20a1.5,1.5,0,0,1,0,3Zm-8-20A2.5,2.5,0,1,0,14.5,4,2.50231,2.50231,0,0,0,12,1.5Zm0,4A1.5,1.5,0,1,1,13.5,4,1.50164,1.50164,0,0,1,12,5.5Z"/></svg>