<svg fill="#000000" xmlns="http://www.w3.org/2000/svg"  viewBox="0 0 48 48" width="24px" height="24px"><path d="M 22.611328 4.0605469 C 16.977148 4.0605469 12.708653 5.9854326 9.9609375 9.0859375 C 7.2132216 12.186442 6.0117187 16.336707 6.0117188 20.646484 C 6.0117186 24.160807 7.0063559 27.681845 8.8710938 30.433594 C 10.45939 32.777404 12 35.89127 12 38.308594 L 12 42.5 A 1.50015 1.50015 0 1 0 15 42.5 L 15 38.308594 C 15 34.739917 13.09522 31.322143 11.353516 28.751953 C 9.8882531 26.589701 9.0117186 23.580162 9.0117188 20.646484 C 9.0117188 16.894261 10.055747 13.501714 12.207031 11.074219 C 14.358315 8.6467234 17.639509 7.0605469 22.611328 7.0605469 C 27.618741 7.0605469 30.635699 8.4761334 32.623047 10.609375 C 34.610394 12.742617 35.614037 15.760218 36.009766 19.144531 A 1.50015 1.50015 0 0 0 36.216797 19.748047 L 39.957031 25.927734 L 36.953125 27.103516 A 1.50015 1.50015 0 0 0 36 28.5 L 36 33.5 C 36 35.450062 34.450062 37 32.5 37 L 29.5 37 A 1.50015 1.50015 0 0 0 28 38.5 L 28 42.5 A 1.50015 1.50015 0 1 0 31 42.5 L 31 40 L 32.5 40 C 36.071938 40 39 37.071938 39 33.5 L 39 29.523438 L 41.339844 28.607422 A 1.50015 1.50015 0 0 0 41.53125 28.517578 C 42.904716 27.741974 43.384917 25.936801 42.640625 24.572266 A 1.50015 1.50015 0 0 0 42.607422 24.513672 L 38.892578 18.375 C 38.417533 14.769124 37.314864 11.24423 34.818359 8.5644531 C 32.221957 5.7774447 28.209916 4.0605469 22.611328 4.0605469 z M 22.611328 10.060547 C 19.337895 10.060547 16.545843 10.900004 14.621094 12.769531 C 12.696345 14.639059 11.821422 17.427682 12.013672 20.734375 A 1.50015 1.50015 0 0 0 12.013672 20.736328 C 12.052222 21.388558 12.222656 22.533203 12.222656 22.533203 A 1.50015 1.50015 0 0 0 12.251953 22.695312 C 12.708611 24.523883 14.039158 25.951785 15.724609 26.605469 C 18.513979 30.770295 19 34.588237 19 38.310547 L 19 42.5 A 1.50015 1.50015 0 1 0 22 42.5 L 22 38.310547 C 22 34.82842 21.540546 30.877186 19.326172 26.777344 C 20.247321 26.514573 21.097679 26.025368 21.787109 25.335938 L 22.322266 24.800781 C 22.882574 24.239775 23.618076 23.885546 24.408203 23.796875 L 29.822266 23.193359 A 1.50015 1.50015 0 0 0 29.824219 23.193359 C 31.598659 22.99488 32.979935 21.50365 33.041016 19.71875 A 1.50015 1.50015 0 0 0 33.03125 19.494141 C 32.661268 16.330263 31.826759 13.888534 30.033203 12.259766 C 28.239647 10.630997 25.737872 10.060547 22.611328 10.060547 z M 22.611328 13.060547 C 25.377784 13.060547 26.992931 13.551737 28.015625 14.480469 C 29.009727 15.383235 29.667848 16.97451 30.007812 19.652344 C 29.974152 19.943243 29.788868 20.179487 29.490234 20.212891 L 24.076172 20.814453 C 22.610983 20.978118 21.242485 21.635121 20.199219 22.679688 L 19.666016 23.214844 C 19.162057 23.718803 18.481182 24 17.767578 24 C 16.536381 24 15.483638 23.174746 15.175781 21.986328 C 15.149541 21.778499 15.018574 20.739105 15.007812 20.560547 C 14.850062 17.84724 15.507435 16.090847 16.710938 14.921875 C 17.914438 13.752903 19.845761 13.060547 22.611328 13.060547 z"/></svg>