<svg fill="#000000" xmlns="http://www.w3.org/2000/svg"  viewBox="0 0 32 32" width="32px" height="32px"><path d="M 15 7 C 13.669992 7 12.772484 7.7119257 12.113281 8.1933594 C 11.454078 8.674793 11.003307 9 10 9 C 6.1456661 9 3 12.145666 3 16 L 3 19.900391 C 3 23.004655 4.6984279 25 6.6582031 25 C 7.5473037 25 8.2661608 24.554918 8.6054688 24.083984 C 8.9447766 23.613051 8.9941406 23.099609 8.9941406 23.099609 L 9 23.050781 L 9 16 C 9 15.43497 9.4349698 15 10 15 L 13.548828 15 C 14.565168 15 15.349287 14.633649 16 14.154297 C 16.650913 14.633674 17.435381 15 18.451172 15 L 22 15 C 22.56503 15 23 15.43497 23 16 L 23 23.050781 L 23.005859 23.099609 C 23.005859 23.099609 23.055219 23.613051 23.394531 24.083984 C 23.733798 24.554916 24.452696 25 25.341797 25 C 27.301035 25 29 23.005531 29 19.900391 L 29 16 C 29 12.145666 25.854334 9 22 9 C 20.996693 9 20.545922 8.674793 19.886719 8.1933594 C 19.227516 7.7119257 18.330008 7 17 7 C 16.599924 7 16.272896 7.1763962 16 7.3417969 C 15.727104 7.1763962 15.400076 7 15 7 z M 14.998047 9 C 15.028187 9.026582 15.123277 9.1510646 15.378906 9.3535156 L 16 9.8457031 L 16.621094 9.3535156 C 16.876723 9.1510646 16.971817 9.0265815 17.001953 9 C 17.660724 9.00054 17.997648 9.2885593 18.707031 9.8066406 C 19.417078 10.325207 20.470307 11 22 11 C 24.773666 11 27 13.226334 27 16 L 27 19.900391 C 27 22.32125 25.864559 23 25.341797 23 C 24.989897 23 25.036567 22.945076 25.015625 22.916016 C 25.00023 22.894644 25.00122 22.90175 25 22.904297 L 25 16 C 25 14.35503 23.64497 13 22 13 L 18.451172 13 C 17.505515 13 17.101623 12.708818 16.800781 12.306641 L 16 11.236328 L 15.199219 12.306641 C 14.897974 12.709358 14.495698 13 13.548828 13 L 10 13 C 8.3550302 13 7 14.35503 7 16 L 7 22.904297 C 6.99878 22.901797 6.9997703 22.894696 6.984375 22.916016 C 6.9634329 22.945081 7.0101025 23 6.6582031 23 C 6.1359783 23 5 22.320127 5 19.900391 L 5 16 C 5 13.226334 7.2263339 11 10 11 C 11.529693 11 12.582922 10.325207 13.292969 9.8066406 C 14.002352 9.2885593 14.339276 9.00054 14.998047 9 z"/></svg>