<svg fill="#000000" xmlns="http://www.w3.org/2000/svg"  viewBox="0 0 32 32" width="32px" height="32px"><path d="M 5 12 C 3.3550302 12 2 13.35503 2 15 C 2 16.297498 2.3629226 17.765628 3.3476562 18.962891 C 4.3323899 20.160153 5.9622613 21 8.1289062 21 C 9.0914063 21 11.106951 21.06294 12.941406 20.828125 C 13.858634 20.710718 14.735619 20.530906 15.496094 20.152344 C 15.680858 20.060374 15.82775 19.881304 16 19.746094 C 16.17225 19.881304 16.319142 20.060369 16.503906 20.152344 C 17.264381 20.530906 18.141366 20.710718 19.058594 20.828125 C 20.893049 21.062938 22.908594 21 23.871094 21 C 26.037739 21 27.66761 20.160153 28.652344 18.962891 C 29.637077 17.765628 30 16.297498 30 15 C 30 13.35503 28.64497 12 27 12 C 25.35503 12 24 13.35503 24 15 L 26 15 C 26 14.43497 26.43497 14 27 14 C 27.56503 14 28 14.43497 28 15 C 28 15.710546 27.827105 16.489859 27.460938 17.15625 C 27.042933 17.379358 26.532512 17.403175 25.808594 17.207031 C 24.991906 16.985752 24.010531 16.480541 23.054688 15.886719 C 22.098844 15.292896 21.164474 14.61986 20.349609 14.074219 C 19.942177 13.801398 19.566974 13.559852 19.205078 13.369141 C 18.843182 13.178429 18.523358 13 18 13 C 17.114142 13 16.487123 13.387857 16 13.845703 C 15.512877 13.387857 14.885858 13 14 13 C 13.476642 13 13.155445 13.179917 12.794922 13.371094 C 12.434399 13.56227 12.06255 13.803184 11.658203 14.076172 C 10.849509 14.622148 9.9236202 15.295163 8.9765625 15.888672 C 8.0295048 16.482181 7.0571054 16.986365 6.2480469 17.207031 C 5.4725577 17.418542 4.9402358 17.382793 4.5039062 17.103516 C 4.1587006 16.449503 4 15.690739 4 15 C 4 14.43497 4.4349698 14 5 14 C 5.5650302 14 6 14.43497 6 15 L 8 15 C 8 13.35503 6.6449698 12 5 12 z M 14.054688 15.003906 C 14.054688 15.003906 14.056641 15.003906 14.056641 15.003906 C 14.658493 15.016552 14.729389 15.195107 14.855469 15.447266 C 14.986212 15.708752 15 16 15 16 L 17 16 C 17 16 17.01379 15.708752 17.144531 15.447266 C 17.270611 15.195107 17.341507 15.016552 17.943359 15.003906 C 17.943359 15.003906 17.945312 15.003906 17.945312 15.003906 C 17.946351 15.013061 18.090028 15.04305 18.271484 15.138672 C 18.516608 15.267847 18.854885 15.479602 19.238281 15.736328 C 20.005073 16.24978 20.965719 16.943385 22 17.585938 C 22.855791 18.117602 23.761434 18.609906 24.697266 18.943359 C 24.441664 18.976841 24.172033 19 23.871094 19 C 22.833594 19 20.913545 19.048687 19.3125 18.84375 C 18.511977 18.741282 17.797369 18.563813 17.394531 18.363281 C 16.991693 18.16275 17 18.124914 17 18.015625 L 15 18.015625 C 15 18.124914 15.0083 18.16275 14.605469 18.363281 C 14.202631 18.563813 13.488023 18.741282 12.6875 18.84375 C 11.086455 19.048687 9.1664062 19 8.1289062 19 C 7.8427082 19 7.5849287 18.979592 7.3398438 18.949219 C 8.2781084 18.615675 9.1839196 18.119892 10.039062 17.583984 C 11.06488 16.941118 12.01732 16.245539 12.777344 15.732422 C 13.157356 15.475863 13.489699 15.265429 13.732422 15.136719 C 13.911941 15.041524 14.05394 15.012643 14.054688 15.003906 z"/></svg>