<svg id="Layer_1" data-name="Layer 1" xmlns="http://www.w3.org/2000/svg" viewBox="0 0 24 24"><path d="M15.1098,8.59723l5.24372-5.24371a.5.5,0,0,0-.707-.707l-18,18a.5.5,0,1,0,.707.707l.96118-.96119A2.477,2.477,0,0,0,4,20.5H22a.49971.49971,0,0,0,.5-.5A12.41807,12.41807,0,0,0,15.1098,8.59723ZM21.48926,19.5H4.207l3-3h13.7497A11.57,11.57,0,0,1,21.48926,19.5ZM8.207,15.5l6.14319-6.14319A11.43091,11.43091,0,0,1,20.59412,15.5Zm-6.629,3.09381A2.504,2.504,0,0,1,1.5,18V6A2.50294,2.50294,0,0,1,4,3.5h6a.5.5,0,0,1,0,1H4A1.50164,1.50164,0,0,0,2.5,6V7.5H10a12.56106,12.56106,0,0,1,2.41376.25812l-.85352.85351A11.60193,11.60193,0,0,0,10,8.5H2.5v7H4.67188l-1,1H2.5v1.17188Z"/></svg>