<svg fill="#000000" xmlns="http://www.w3.org/2000/svg"  viewBox="0 0 32 32" width="32px" height="32px"><path d="M 16 10 C 13.156082 10 10.841893 10.636943 9.2285156 11.146484 L 9.2128906 11.152344 L 9.1972656 11.158203 C 7.1575505 11.875868 5.406975 12.810534 4.1152344 14.035156 C 2.8234937 15.259779 2 16.832425 2 18.603516 C 2 19.506129 2.3964463 20.092589 2.609375 20.335938 C 3.3080218 21.134107 4.6258394 21.218524 5.3945312 20.4375 C 5.6801325 20.146174 6.0051128 20.001953 6.3613281 20.001953 C 6.8410689 20.001953 7.2801308 20.26764 7.5917969 20.78125 C 8.1802344 21.75056 9.5428866 22.032056 10.453125 21.304688 C 10.706111 21.102052 10.978501 21.001953 11.277344 21.001953 C 11.638113 21.001953 11.969588 21.148836 12.255859 21.443359 L 12.255859 21.445312 C 13.007328 22.215363 14.270015 22.215362 15.021484 21.445312 C 15.31123 21.148532 15.64263 21.001953 16.001953 21.001953 C 16.361277 21.001953 16.692759 21.149366 16.978516 21.443359 L 16.980469 21.445312 C 17.731938 22.215363 18.994625 22.215363 19.746094 21.445312 C 20.035839 21.148532 20.365286 21.001953 20.724609 21.001953 C 21.023452 21.001953 21.295843 21.102053 21.548828 21.304688 C 22.45964 22.032515 23.822243 21.75107 24.410156 20.779297 C 24.721443 20.267157 25.162769 20.001953 25.640625 20.001953 C 25.997686 20.001953 26.319708 20.146629 26.605469 20.4375 C 27.374225 21.222745 28.693854 21.134194 29.392578 20.335938 C 29.609141 20.087898 30 19.505023 30 18.603516 C 30 16.832425 29.176531 15.25952 27.884766 14.035156 C 26.593001 12.810793 24.842378 11.875923 22.802734 11.158203 L 22.800781 11.158203 C 21.085143 10.556667 18.825365 10 16 10 z M 16 12 C 18.564635 12 20.574357 12.496458 22.138672 13.044922 C 23.998028 13.699202 25.511281 14.541895 26.509766 15.488281 C 27.508251 16.434668 28 17.427606 28 18.603516 C 28 18.855142 27.92107 18.926708 27.90625 18.947266 C 27.304731 18.385036 26.517171 18.001953 25.640625 18.001953 C 24.405662 18.001953 23.342345 18.721937 22.724609 19.71875 C 22.16341 19.289633 21.474097 19.001953 20.724609 19.001953 C 19.806282 19.001953 18.974304 19.407303 18.361328 20.015625 C 17.748561 19.406451 16.918769 19.001953 16.001953 19.001953 C 15.084167 19.001953 14.251552 19.407909 13.638672 20.015625 C 13.026381 19.406891 12.194727 19.001953 11.277344 19.001953 C 10.527856 19.001953 9.8385434 19.289633 9.2773438 19.71875 C 8.6599341 18.722456 7.5968407 18.001953 6.3613281 18.001953 C 5.4852351 18.001953 4.6976709 18.384577 4.0957031 18.947266 C 4.0786913 18.924509 4 18.854293 4 18.603516 C 4 17.427606 4.491725 16.432956 5.4902344 15.486328 C 6.4863616 14.541959 7.9964081 13.704368 9.8496094 13.050781 C 11.394654 12.563401 13.462097 12 16 12 z M 9.203125 19.742188 C 9.204555 19.741087 9.2072644 19.743115 9.2089844 19.742188 C 9.2073844 19.743488 9.204725 19.742812 9.203125 19.744141 L 9.203125 19.742188 z M 22.792969 19.742188 C 22.794669 19.743143 22.797328 19.740987 22.798828 19.742188 L 22.798828 19.744141 C 22.797228 19.742841 22.794569 19.743514 22.792969 19.742188 z"/></svg>