<svg fill="#000000" xmlns="http://www.w3.org/2000/svg"  viewBox="0 0 48 48" width="24px" height="24px"><path d="M 29.208984 4 C 24.693188 4 21 7.6931886 21 12.208984 C 21 13.730087 21.571706 15.101809 22.496094 16.181641 C 20.13275 16.474704 17.710441 17.19083 15.630859 18.779297 C 12.65107 21.055379 10.638672 25.076495 10.638672 31.271484 C 10.638672 34.258911 10.801666 37.117647 10.455078 39.837891 L 10.011719 43.310547 A 1.5002909 1.5002909 0 1 0 12.988281 43.689453 L 13.431641 40.21875 A 1.50015 1.50015 0 0 0 13.431641 40.216797 C 13.825053 37.12904 13.638672 34.140058 13.638672 31.271484 C 13.638672 25.695474 15.269211 22.830731 17.451172 21.164062 C 19.284438 19.763781 21.690913 19.19486 24.117188 19.046875 C 22.807022 20.219808 22 21.885051 22 23.705078 C 22 25.480816 22.754241 27.105429 23.980469 28.265625 C 22.101432 28.664134 20.564358 29.494906 19.412109 30.607422 C 17.780026 32.183227 16.90226 34.207365 16.419922 36.136719 C 15.455245 39.995427 16.015625 43.712891 16.015625 43.712891 A 1.50015 1.50015 0 1 0 18.984375 43.287109 C 18.984375 43.287109 18.544755 40.004573 19.330078 36.863281 C 19.72274 35.292635 20.407474 33.816773 21.494141 32.767578 C 22.121357 32.161989 22.889904 31.671968 23.888672 31.361328 C 22.711204 32.532226 22 34.13946 22 35.867188 C 22 40.340725 25.659276 44 30.132812 44 L 30.5 44 C 34.421543 44 37.86547 41.610907 40.232422 38.060547 C 42.599374 34.510187 44 29.740744 44 24.5 C 44 20.164188 42.595681 15.241275 40.283203 11.248047 C 37.970725 7.2548189 34.643438 4 30.5 4 L 29.208984 4 z M 29.208984 7 L 30.5 7 C 32.983562 7 35.656728 9.2451811 37.6875 12.751953 C 39.718272 16.258725 41 20.835813 41 24.5 C 41 29.200256 39.712626 33.432094 37.736328 36.396484 C 35.76003 39.360874 33.205457 41 30.5 41 L 30.132812 41 C 27.28035 41 25 38.71965 25 35.867188 C 25 34.461621 25.863904 33.213862 27.179688 32.720703 A 1.50015 1.50015 0 0 0 27.181641 32.720703 L 28.953125 32.056641 C 30.02673 31.654182 30.642371 30.543643 30.585938 29.552734 C 30.529498 28.561826 29.792114 27.525868 28.679688 27.248047 L 27.546875 26.964844 A 1.50015 1.50015 0 0 0 27.544922 26.964844 C 26.041045 26.588875 25 25.254361 25 23.705078 C 25 22.355965 25.797663 21.146525 27.037109 20.615234 L 27.625 20.363281 C 28.712152 19.898008 29.271218 18.700009 29.128906 17.693359 C 28.986594 16.68671 28.116664 15.689348 26.943359 15.542969 C 25.249244 15.331291 24 13.91539 24 12.208984 C 24 9.314781 26.314781 7 29.208984 7 z"/></svg>