<svg fill="#000000" xmlns="http://www.w3.org/2000/svg"  viewBox="0 0 32 32" width="32px" height="32px"><path d="M 17.521484 11.007812 C 16.920566 10.954174 16.428137 11.242839 16 11.587891 C 15.571876 11.242881 15.079395 10.95613 14.478516 11.009766 C 11.599016 11.266344 7.0683594 12.53125 7.0683594 12.53125 L 6.65625 12.644531 L 6.453125 13.019531 C 6.453125 13.019531 4.0106673 17.519345 3.0859375 19.591797 L 2.4589844 21 L 4 21 L 14 21 C 14.716536 21 15.355522 20.703847 15.939453 20.169922 C 15.963333 20.148082 15.9765 20.108807 16 20.085938 C 16.02315 20.108458 16.037027 20.146459 16.060547 20.167969 C 16.644493 20.702087 17.283464 21 18 21 L 29.541016 21 L 28.914062 19.591797 C 27.989384 17.519461 25.546875 13.017578 25.546875 13.017578 L 25.34375 12.642578 L 24.931641 12.529297 C 24.931641 12.529297 20.400984 11.264392 17.521484 11.007812 z M 17.34375 13 C 19.664522 13.206793 23.518439 14.24765 23.996094 14.375 C 24.208686 14.770162 25.396214 17.063041 26.365234 19 L 18 19 C 18.0095 19 17.649455 18.91224 17.410156 18.693359 C 17.171277 18.474864 17.000596 18.201596 17 17.759766 C 17 17.759766 17 17.757812 17 17.757812 L 17 13.501953 L 17 13.5 C 17 13.136562 17.214037 12.988422 17.34375 13 z M 14.65625 13.001953 C 14.785619 12.990358 14.998873 13.138665 15 13.5 C 15 13.5 15 13.501953 15 13.501953 L 15 17.757812 L 15 17.759766 C 15 18.202268 14.829163 18.474535 14.589844 18.693359 C 14.350525 18.912091 13.990464 19 14 19 L 5.6347656 19 C 6.6042203 17.062445 7.7942872 14.768178 8.0058594 14.375 C 8.4855076 14.247125 12.336139 13.208687 14.65625 13.001953 z"/></svg>