<svg fill="#000000" xmlns="http://www.w3.org/2000/svg"  viewBox="0 0 32 32" width="32px" height="32px"><path d="M 16 6 C 13.522234 6 12.020215 6.2831681 10.666016 6.5410156 L 10.603516 6.5527344 L 10.544922 6.5722656 C 7.146697 7.6725682 5.3984006 10.286352 5.1015625 12.986328 C 4.6372099 17.219543 4.339267 19.991304 3.0996094 22.566406 L 1.3652344 26.167969 L 4.5898438 23.806641 C 4.8726334 23.599634 4.925899 23.370845 5.1542969 23.146484 C 5.1203629 23.267792 5.1388231 23.47945 5.0957031 23.570312 L 3.4296875 27.083984 L 6.5839844 24.810547 C 6.5839844 24.810547 7.3490434 24.23904 8.1914062 23.027344 C 9.0243024 21.829265 10.010739 19.94092 10.746094 17.152344 L 10.748047 17.148438 C 11.171188 15.973207 11.809736 15.242546 12.669922 14.746094 C 13.531172 14.249026 14.65459 14 16 14 C 17.34541 14 18.468824 14.249025 19.330078 14.746094 C 20.190264 15.242546 20.828812 15.973207 21.251953 17.148438 C 21.987429 19.939462 22.975255 21.828628 23.808594 23.027344 C 24.650957 24.23904 25.416016 24.810547 25.416016 24.810547 L 28.570312 27.083984 L 26.904297 23.570312 C 26.861177 23.479453 26.879633 23.267792 26.845703 23.146484 C 27.074101 23.370845 27.127367 23.599634 27.410156 23.806641 L 30.634766 26.167969 L 28.900391 22.566406 C 27.660725 19.991303 27.36279 17.219543 26.898438 12.986328 C 26.601626 10.285456 24.853479 7.6715204 21.455078 6.5722656 L 21.394531 6.5527344 L 21.333984 6.5410156 C 19.979791 6.2831681 18.477766 6 16 6 z M 16 8 C 18.29898 8 19.556927 8.2436625 20.892578 8.4980469 C 23.595631 9.3934389 24.686636 11.171126 24.910156 13.205078 C 25.040068 14.389435 25.189857 15.315474 25.322266 16.337891 L 24.757812 19.625 C 24.757812 19.625 24.715054 20.17572 24.677734 20.503906 C 24.153279 19.511452 23.615041 18.306605 23.162109 16.5625 L 23.152344 16.519531 L 23.136719 16.476562 C 22.575891 14.915364 21.584621 13.738853 20.328125 13.013672 C 19.071629 12.288491 17.58959 12 16 12 C 14.41041 12 12.928371 12.288491 11.671875 13.013672 C 10.415379 13.738853 9.4241509 14.915361 8.8632812 16.476562 L 8.8476562 16.519531 L 8.8378906 16.5625 C 8.3849636 18.306603 7.8467207 19.511452 7.3222656 20.503906 C 7.2849437 20.17572 7.2421875 19.625 7.2421875 19.625 L 6.6777344 16.337891 C 6.8101426 15.315474 6.9599319 14.389435 7.0898438 13.205078 L 7.0898438 13.203125 C 7.3137953 11.171091 8.4050162 9.3941007 11.107422 8.4980469 C 12.443073 8.2436625 13.70102 8 16 8 z"/></svg>