<svg fill="#000000" xmlns="http://www.w3.org/2000/svg"  viewBox="0 0 48 48" width="24px" height="24px"><path d="M 13.476562 5.9785156 A 1.50015 1.50015 0 0 0 13.070312 6.0429688 C 11.895094 6.2473768 11 7.2661882 11 8.5 C 11 9.3859105 11.395902 10.785716 12 11.791016 L 12 27 L 6.7050781 27 A 1.50015 1.50015 0 0 0 5.2050781 28.5 C 5.2050781 34.160424 6.3891788 38.473453 7.6386719 40.646484 C 8.5258014 42.189656 10.220173 43 11.96875 43 L 15.130859 43 C 16.880061 43 18.573808 42.189656 19.460938 40.646484 A 1.50015 1.50015 0 0 0 19.460938 40.644531 C 20.708608 38.47252 21.896484 34.160608 21.896484 28.5 A 1.50015 1.50015 0 0 0 20.396484 27 L 15 27 L 15 11.791016 C 15.604098 10.785716 16 9.3859105 16 8.5 C 16 7.2682421 15.10787 6.2517143 13.935547 6.0449219 A 1.50015 1.50015 0 0 0 13.476562 5.9785156 z M 29.5 7 A 1.50015 1.50015 0 0 0 28 8.5 L 28 12 C 27.968048 11.999999 27.519531 12 27.519531 12 A 1.50015 1.50015 0 0 0 26.019531 13.5 C 26.019531 26.973859 27.057659 35.578797 27.779297 39.28125 C 28.219645 41.54233 30.363968 43 32.691406 43 L 36.298828 43 C 38.626266 43 40.770589 41.54233 41.210938 39.28125 C 41.932575 35.578797 42.970703 26.973859 42.970703 13.5 C 42.970703 13.5 41.458612 12.000028 41.431641 12 C 41.404671 11.999972 41.365691 12.000024 41.314453 12 C 41.241773 11.999966 41.118121 11.999991 41 12 L 41 8.5 A 1.50015 1.50015 0 0 0 39.5 7 L 29.5 7 z M 31 10 L 38 10 L 38 12 L 34.494141 12 C 32.746704 12.000063 32.308497 12.000016 31 12 L 31 10 z M 29.074219 15 C 29.158567 14.999994 29.408466 15.000003 29.5 15 C 30.573633 14.999966 31.996598 15.000089 34.494141 15 L 39.5 15 C 40.04158 14.999998 40.540176 14.999941 40.871094 15 C 41.061772 15.000034 41.212552 14.999953 41.314453 15 C 41.365403 15.000024 41.403863 14.999973 41.429688 15 C 41.455517 15.000027 41.470703 15 41.470703 15 C 41.470703 28.318141 38.92394 35.339485 38.267578 38.707031 C 38.143922 39.341951 37.38739 40 36.298828 40 L 32.691406 40 C 31.602844 40 30.846308 39.341951 30.722656 38.707031 C 30.225042 36.153959 29.540083 30.400899 29.232422 22 L 40.5 22 L 40.5 19 L 29.138672 19 C 29.108605 17.714305 29.08429 16.391666 29.074219 15 z M 8.3691406 30 L 18.732422 30 C 18.496286 34.407175 17.507386 38.022274 16.859375 39.150391 C 16.602026 39.596781 15.925007 40 15.130859 40 L 11.96875 40 C 11.175327 40 10.497105 39.597219 10.240234 39.150391 C 9.5920682 38.023144 8.6051958 34.407308 8.3691406 30 z"/></svg>