<svg fill="#000000" xmlns="http://www.w3.org/2000/svg"  viewBox="0 0 48 48" width="24px" height="24px"><path d="M 38.304688 6.3261719 C 36.407857 6.3609869 34.516043 7.1206753 33.076172 8.5605469 L 30.181641 11.453125 A 1.50015 1.50015 0 0 0 28.060547 11.455078 L 16.515625 23 L 16.160156 22.646484 A 1.50015 1.50015 0 0 0 15.078125 22.207031 A 1.50015 1.50015 0 0 0 14.039062 22.646484 L 5.671875 31.013672 C 3.5365391 33.149008 3.5365391 36.657633 5.671875 38.792969 L 9.2070312 42.328125 C 11.342367 44.463461 14.85004 44.463289 16.984375 42.326172 L 25.353516 33.958984 A 1.50015 1.50015 0 0 0 25.353516 31.837891 L 25 31.484375 L 36.544922 19.939453 A 1.50015 1.50015 0 0 0 36.544922 17.818359 L 36.53125 17.804688 L 43.576172 10.544922 A 1.50015 1.50015 0 0 0 43.560547 8.4394531 C 42.102417 6.9813229 40.201517 6.2913572 38.304688 6.3261719 z M 38.332031 9.2792969 C 38.97234 9.2645289 39.595867 9.4406998 40.191406 9.7246094 L 34.410156 15.681641 L 32.302734 13.574219 L 35.197266 10.681641 C 36.100394 9.7785118 37.218361 9.3049822 38.332031 9.2792969 z M 29.121094 14.636719 L 33.363281 18.878906 L 22.878906 29.363281 L 18.636719 25.121094 L 29.121094 14.636719 z M 15.099609 25.828125 L 15.455078 26.181641 L 21.818359 32.546875 L 22.169922 32.898438 L 14.863281 40.207031 C 13.875617 41.195961 12.316789 41.195695 11.328125 40.207031 L 7.7929688 36.671875 C 6.8043046 35.683211 6.8043046 34.12343 7.7929688 33.134766 L 15.099609 25.828125 z"/></svg>