<svg fill="#000000" xmlns="http://www.w3.org/2000/svg"  viewBox="0 0 48 48" width="24px" height="24px"><path d="M 17.521484 11.988281 C 13.984788 11.988281 11.296178 13.590894 8.9863281 15.222656 C 6.6764781 16.854418 4.6536182 18.503682 2.2929688 19.230469 A 1.50015 1.50015 0 0 0 2.2910156 19.232422 C 0.9059106 19.659682 0.23585821 20.907914 0.052734375 22.076172 A 1.50015 1.50015 0 0 0 0.01171875 22.728516 C -0.0098449033 23.880502 0.34232301 25.098548 1.4296875 25.910156 C 4.0559389 27.872529 6.5126683 31.066055 9.8886719 33.863281 C 13.264675 36.660508 17.677297 38.988281 23.986328 38.988281 C 30.295317 38.988281 34.709359 36.659833 38.087891 33.863281 C 41.466422 31.066729 43.928177 27.874797 46.564453 25.912109 C 47.588514 25.14979 47.958764 24.027164 47.984375 22.9375 A 1.50015 1.50015 0 0 0 47.896484 21.8125 C 47.656349 20.725065 46.983505 19.625992 45.701172 19.232422 C 43.331329 18.505074 41.304631 16.854068 38.992188 15.222656 C 36.679744 13.591244 33.989393 11.988281 30.453125 11.988281 C 27.061898 11.988281 25.101404 13.496143 23.988281 14.527344 C 22.875231 13.49613 20.912599 11.989134 17.521484 11.988281 z M 17.521484 14.988281 C 20.666653 14.989072 22.661314 17.270735 22.761719 17.386719 A 1.50015 1.50015 0 0 0 24.009766 18.005859 A 1.50015 1.50015 0 0 0 24.011719 18.005859 A 1.50015 1.50015 0 0 0 25.212891 17.386719 C 25.311751 17.272483 27.306846 14.988281 30.453125 14.988281 C 33.099857 14.988281 35.083865 16.13599 37.263672 17.673828 C 39.151877 19.005943 41.12145 20.635811 43.625 21.666016 C 39.902111 22.527389 32.357583 23.998047 24 23.998047 C 15.655747 23.998047 8.0953722 22.5208 4.3769531 21.660156 C 6.8709168 20.629482 8.8332241 19.002499 10.716797 17.671875 C 12.893197 16.134387 14.87418 14.988281 17.521484 14.988281 z M 4.8378906 24.839844 C 8.9944116 25.743368 16.153094 26.998047 24 26.998047 C 31.84136 26.998047 38.982571 25.754302 43.144531 24.851562 C 40.753694 26.975695 38.668743 29.487589 36.173828 31.552734 C 33.12886 34.073182 29.582339 35.988281 23.986328 35.988281 C 18.390359 35.988281 14.844481 34.073008 11.802734 31.552734 C 9.3064907 29.484443 7.225619 26.966231 4.8378906 24.839844 z"/></svg>