<svg fill="#000000" xmlns="http://www.w3.org/2000/svg"  viewBox="0 0 48 48" width="24px" height="24px"><path d="M 37.900391 5.8496094 C 34.707775 5.8985878 30.603831 6.538651 26.757812 7.1894531 C 21.629789 8.0571893 17.177734 9.0351562 17.177734 9.0351562 A 1.50015 1.50015 0 0 0 16.578125 9.3027344 C 8.7892328 11.627837 3 18.856688 3 27.501953 C 3 31.723286 4.4064231 35.824162 6.9980469 39.15625 L 9.2070312 41.994141 C 10.300426 43.402169 12.315203 43.759243 13.826172 42.814453 C 18.216407 40.070684 22.305838 36.872457 26.027344 33.273438 L 29.410156 30.001953 A 1.50015 1.50015 0 0 0 29.648438 29.992188 C 35.549881 29.402043 39.980684 23.918576 42.367188 18.615234 C 43.560439 15.963563 44.255536 13.319822 44.21875 11.039062 C 44.200357 9.8986838 44.004261 8.8230569 43.453125 7.8867188 C 42.901989 6.9503806 41.899316 6.2117349 40.746094 6.0195312 C 39.927797 5.8831998 38.964596 5.8332832 37.900391 5.8496094 z M 38.072266 8.8984375 C 38.992158 8.8717265 39.744203 8.8955502 40.253906 8.9804688 C 40.600684 9.0382647 40.691761 9.1121194 40.867188 9.4101562 C 41.042614 9.7081931 41.205893 10.288817 41.21875 11.085938 C 41.24446 12.680179 40.689561 15.036437 39.632812 17.384766 C 37.890036 21.257602 34.81642 25.00142 31.494141 26.427734 C 31.769302 25.213579 31.873698 23.861558 31.892578 22.480469 C 31.930418 19.712447 31.609463 16.864418 31.283203 15.132812 C 30.873002 12.958387 29.562863 11.208856 27.826172 10.060547 C 31.465001 9.4630353 35.447625 8.9746493 38.072266 8.8984375 z M 21.576172 11.519531 C 22.147721 11.506315 22.726653 11.523579 23.310547 11.572266 C 25.74482 11.774988 27.913059 13.445871 28.335938 15.6875 C 28.614677 17.166896 28.926737 19.940725 28.892578 22.439453 C 28.875498 23.688817 28.769688 24.877279 28.566406 25.771484 C 28.363124 26.66569 28.016982 27.199119 27.917969 27.279297 L 27.867188 27.320312 L 23.941406 31.117188 C 20.370912 34.570166 16.448093 37.639254 12.236328 40.271484 C 12.007297 40.414695 11.740777 40.366274 11.576172 40.154297 L 9.3671875 37.314453 C 7.1848113 34.508541 6 31.05662 6 27.501953 C 6 18.71348 13.002935 11.717768 21.576172 11.519531 z"/></svg>