<svg fill="#000000" xmlns="http://www.w3.org/2000/svg"  viewBox="0 0 48 48" width="24px" height="24px"><path d="M 23.925781 2.9648438 C 23.555469 2.9695313 23.200391 3.1003906 22.900391 3.4003906 C 22.700391 3.7003906 22.5 4.1 22.5 4.5 C 22.5 4.9 22.600391 5.2996094 22.900391 5.5996094 C 23.200391 5.7996094 23.6 6 24 6 L 24.300781 6 C 24.400781 6 24.499609 5.9003906 24.599609 5.9003906 C 24.699609 5.9003906 24.800391 5.8007812 24.900391 5.8007812 L 25.099609 5.5996094 C 25.299609 5.2996094 25.5 4.9 25.5 4.5 C 25.5 4.1 25.399609 3.7003906 25.099609 3.4003906 C 25.099609 3.3003906 25.000391 3.2992188 24.900391 3.1992188 C 24.800391 3.1992187 24.699609 3.0996094 24.599609 3.0996094 C 24.499609 2.9996094 24.400781 3 24.300781 3 C 24.175781 2.975 24.049219 2.9632813 23.925781 2.9648438 z M 23.925781 7.9648438 C 23.555469 7.9695313 23.200391 8.1003906 22.900391 8.4003906 C 22.700391 8.7003906 22.5 9.1 22.5 9.5 C 22.5 9.9 22.600391 10.299609 22.900391 10.599609 C 23.200391 10.799609 23.6 11 24 11 L 24.300781 11 C 24.400781 11 24.499609 10.900391 24.599609 10.900391 C 24.699609 10.900391 24.800391 10.800781 24.900391 10.800781 L 25.099609 10.599609 C 25.299609 10.299609 25.5 9.9 25.5 9.5 C 25.5 9.1 25.399609 8.7003906 25.099609 8.4003906 C 25.099609 8.3003906 25.000391 8.2992187 24.900391 8.1992188 C 24.800391 8.1992187 24.699609 8.0996094 24.599609 8.0996094 C 24.499609 7.9996094 24.400781 8 24.300781 8 C 24.175781 7.975 24.049219 7.9632812 23.925781 7.9648438 z M 16.400391 10 C 14.367057 10 12.414535 11.118196 11.458984 13.029297 L 1.5585938 32.830078 C 1.0797083 33.787849 1 34.756752 1 35.599609 C 1 40.215399 4.7846012 44 9.4003906 44 L 9.5 44 C 15.216327 44 20 39.32 20 33.5 L 20 31.800781 L 20 31.164062 C 20.586954 30.65256 21.482159 29.790189 22.517578 28.152344 C 23.061251 27.292353 23.532664 26.062885 24 24.861328 C 24.467336 26.062885 24.938749 27.292353 25.482422 28.152344 C 26.517841 29.790189 27.413046 30.65256 28 31.164062 C 28 31.164062 28 31.166016 28 31.166016 A 1.50015 1.50015 0 0 0 28 31.199219 L 28 31.599609 L 28 33.5 C 28 39.3 32.7 44 38.5 44 L 38.599609 44 C 43.215398 44 47 40.215399 47 35.599609 C 47 34.756752 46.92029 33.787849 46.441406 32.830078 L 36.541016 13.029297 C 35.585465 11.118196 33.632943 10 31.599609 10 C 29.649609 10 28 11.649609 28 13.599609 L 28 26.509766 C 26.764195 24.544183 25.5 21.490469 25.5 17 L 25.5 16.5 L 25.5 14.5 A 1.50015 1.50015 0 1 0 22.5 14.5 L 22.5 16.5 L 22.5 17 C 22.5 21.490469 21.235805 24.544183 20 26.509766 L 20 13.599609 C 20 11.649609 18.350391 10 16.400391 10 z M 16.400391 13 C 16.850391 13 17 13.149609 17 13.599609 L 17 30.294922 A 1.50015 1.50015 0 0 0 17 30.730469 L 17 31.800781 L 17 33.5 C 17 37.68 13.583673 41 9.5 41 L 9.4003906 41 C 6.4161801 41 4 38.58382 4 35.599609 C 4 35.042467 4.1210729 34.412151 4.2421875 34.169922 L 14.142578 14.371094 C 14.587027 13.482195 15.433724 13 16.400391 13 z M 31.599609 13 C 32.566276 13 33.412973 13.482195 33.857422 14.371094 L 43.757812 34.169922 C 43.878927 34.412151 44 35.042467 44 35.599609 C 44 38.58382 41.58382 41 38.599609 41 L 38.5 41 C 34.3 41 31 37.7 31 33.5 L 31 31.599609 L 31 31.199219 L 31 30.726562 A 1.50015 1.50015 0 0 0 31 30.296875 L 31 13.599609 C 31 13.149609 31.149609 13 31.599609 13 z"/></svg>