<svg fill="#000000" xmlns="http://www.w3.org/2000/svg"  viewBox="0 0 48 48" width="24px" height="24px"><path d="M 22.5 2 C 20.585045 2 19 3.5850452 19 5.5 L 19 13.5 A 1.50015 1.50015 0 0 0 20.5 15 L 22.5 15 L 22.5 19 L 20.5 19 C 17.480226 19 15 21.480226 15 24.5 L 15 27.039062 C 11.36945 29.776152 9 34.112206 9 39 L 9 44.5 A 1.50015 1.50015 0 1 0 12 44.5 L 12 39 C 12 35.95289 13.13704 33.190219 15 31.078125 L 15 37.5 C 15 41.624501 18.375499 45 22.5 45 L 25.5 45 C 29.624501 45 33 41.624501 33 37.5 L 33 31.09375 C 34.858267 33.205023 36 35.957121 36 39 L 36 44.5 A 1.50015 1.50015 0 1 0 39 44.5 L 39 39 C 39 34.105045 36.639209 29.743764 33 27.007812 L 33 24.5 C 33 21.480226 30.519774 19 27.5 19 L 25.5 19 L 25.5 15 L 27.5 15 A 1.50015 1.50015 0 0 0 29 13.5 L 29 5.5 C 29 3.5850452 27.414955 2 25.5 2 L 22.5 2 z M 22.5 5 L 25.5 5 C 25.795045 5 26 5.2049548 26 5.5 L 26 12 L 24.246094 12 A 1.50015 1.50015 0 0 0 23.759766 12 L 22 12 L 22 5.5 C 22 5.2049548 22.204955 5 22.5 5 z M 20.5 22 L 22.5 22 L 22.5 25.009766 L 22.496094 25.009766 L 21.019531 30.835938 C 20.917531 31.444938 21.387859 32 22.005859 32 L 26 32 C 26.618 32 27.088328 31.445938 26.986328 30.835938 L 25.5 25.009766 L 25.5 22 L 27.5 22 C 28.898226 22 30 23.101774 30 24.5 L 30 37.5 C 30 40.003499 28.003499 42 25.5 42 L 22.5 42 C 19.996501 42 18 40.003499 18 37.5 L 18 24.5 C 18 23.101774 19.101774 22 20.5 22 z"/></svg>