<svg fill="#000000" xmlns="http://www.w3.org/2000/svg"  viewBox="0 0 32 32" width="32px" height="32px"><path d="M 6.9882812 7.8984375 L 5.8613281 8.0605469 C 3.6862136 8.3721936 2 10.242389 2 12.5 C 2 14.147056 3.0151298 15.42344 4.34375 16.203125 C 4.2041248 16.627367 4 17.021134 4 17.5 C 4 19.973438 6.026562 22 8.5 22 C 9.1267927 22 9.6315611 21.687756 10.169922 21.453125 C 11.448755 23.02621 13.57449 24 16 24 C 18.42551 24 20.551245 23.02621 21.830078 21.453125 C 22.368439 21.687756 22.873207 22 23.5 22 C 25.973438 22 28 19.973438 28 17.5 C 28 17.021134 27.795875 16.627367 27.65625 16.203125 C 28.98487 15.42344 30 14.147056 30 12.5 C 30 10.242389 28.313786 8.3721936 26.138672 8.0605469 L 25.011719 7.8984375 L 24.996094 9.0351562 C 24.979757 10.157781 24.157813 11.377658 22.548828 12.355469 C 20.939843 13.333279 18.615974 14 16 14 C 13.384026 14 11.060157 13.333279 9.4511719 12.355469 C 7.842187 11.377658 7.0202431 10.157781 7.0039062 9.0351562 L 6.9882812 7.8984375 z M 5.4667969 10.404297 C 5.9508712 11.842822 6.8992019 13.14503 8.4121094 14.064453 C 10.398125 15.271392 13.049974 16 16 16 C 18.950026 16 21.601875 15.271392 23.587891 14.064453 C 25.100798 13.14503 26.049129 11.842822 26.533203 10.404297 C 27.355361 10.808631 28 11.513588 28 12.5 C 28 13.622821 27.264539 14.545258 26.25 14.867188 L 25.087891 15.236328 L 25.677734 16.304688 C 25.883613 16.677656 26 17.074275 26 17.5 C 26 18.892562 24.892562 20 23.5 20 C 22.960175 20 22.477263 19.826112 22.0625 19.525391 L 21.175781 18.882812 L 20.617188 19.822266 C 19.91181 21.004167 18.141942 22 16 22 C 13.858058 22 12.088189 21.004167 11.382812 19.822266 L 10.824219 18.882812 L 9.9375 19.525391 C 9.5227374 19.826112 9.0398246 20 8.5 20 C 7.107438 20 6 18.892562 6 17.5 C 6 17.074275 6.1163868 16.677656 6.3222656 16.304688 L 6.9121094 15.236328 L 5.75 14.867188 C 4.7354607 14.545258 4 13.622821 4 12.5 C 4 11.513588 4.6446388 10.808631 5.4667969 10.404297 z"/></svg>