<svg fill="#000000" xmlns="http://www.w3.org/2000/svg"  viewBox="0 0 48 48" width="24px" height="24px"><path d="M 13.476562 5.9785156 A 1.50015 1.50015 0 0 0 12 7.5 L 12 8 L 10 8 A 1.0001 1.0001 0 1 0 10 10 L 12 10 L 12 12 L 9 12 A 1.0001 1.0001 0 1 0 9 14 L 12 14 L 12 16 L 9 16 A 1.0001 1.0001 0 1 0 9 18 L 12 18 L 12 20 L 10 20 A 1.0001 1.0001 0 1 0 10 22 L 12 22 L 12 27 L 7.5 27 A 1.50015 1.50015 0 0 0 6 28.5 L 6 37.5 C 6 39.967501 8.0324991 42 10.5 42 L 16.5 42 C 18.967501 42 21 39.967501 21 37.5 L 21 28.5 A 1.50015 1.50015 0 0 0 19.5 27 L 15 27 L 15 22 L 17 22 A 1.0001 1.0001 0 1 0 17 20 L 15 20 L 15 18 L 18 18 A 1.0001 1.0001 0 1 0 18 16 L 15 16 L 15 14 L 18 14 A 1.0001 1.0001 0 1 0 18 12 L 15 12 L 15 10 L 17 10 A 1.0001 1.0001 0 1 0 17 8 L 15 8 L 15 7.5 A 1.50015 1.50015 0 0 0 13.476562 5.9785156 z M 30.5 7 A 1.50015 1.50015 0 0 0 29 8.5 L 29 12 L 28.5 12 A 1.50015 1.50015 0 0 0 27 13.5 L 27 37.5 C 27 39.967501 29.032499 42 31.5 42 L 37.5 42 C 39.967501 42 42 39.967501 42 37.5 L 42 13.5 A 1.50015 1.50015 0 0 0 40.5 12 L 40 12 L 40 8.5 A 1.50015 1.50015 0 0 0 38.5 7 L 30.5 7 z M 32 10 L 37 10 L 37 12 L 32 12 L 32 10 z M 30 15 L 30.5 15 L 38.5 15 L 39 15 L 39 37.5 C 39 38.346499 38.346499 39 37.5 39 L 31.5 39 C 30.653501 39 30 38.346499 30 37.5 L 30 15 z M 9 30 L 18 30 L 18 37.5 C 18 38.346499 17.346499 39 16.5 39 L 10.5 39 C 9.6535009 39 9 38.346499 9 37.5 L 9 30 z"/></svg>