<svg fill="#000000" xmlns="http://www.w3.org/2000/svg"  viewBox="0 0 48 48" width="24px" height="24px"><path d="M 32.476562 2.9785156 A 1.50015 1.50015 0 0 0 31 4.5 C 31 4.9166667 30.908979 5.0638245 30.753906 5.2382812 C 30.598834 5.412738 30.318739 5.590922 29.972656 5.7207031 C 29.280491 5.9802653 28.5 6 28.5 6 A 1.50015 1.50015 0 1 0 28.5 9 C 28.5 9 29.719509 9.019735 31.027344 8.5292969 C 31.681261 8.284078 32.401166 7.899762 32.996094 7.2304688 C 33.591021 6.5611755 34 5.5833333 34 4.5 A 1.50015 1.50015 0 0 0 32.476562 2.9785156 z M 23.572266 2.9804688 A 1.50015 1.50015 0 0 0 22.095703 3.9726562 C 22.095703 3.9726562 21.175249 6.2432547 21.650391 8.7773438 C 21.864846 9.9211071 22.492661 11.136868 23.564453 12.105469 C 21.337013 12.982157 19.391444 14.360023 17.832031 16.121094 C 17.393202 16.070238 16.965562 16 16.5 16 C 15.544638 16 14.623328 16.129429 13.728516 16.333984 C 13.459803 15.231695 13.054659 14.238156 12.412109 13.509766 C 11.415292 12.379779 10.135679 11.755428 8.9453125 11.404297 C 6.5645787 10.702035 4.3144531 11.011719 4.3144531 11.011719 A 1.50015 1.50015 0 1 0 4.6855469 13.988281 C 4.6855469 13.988281 6.4568902 13.797262 8.0976562 14.28125 C 8.9180394 14.523244 9.6508648 14.914596 10.162109 15.494141 C 10.55493 15.93944 10.805364 16.598993 10.927734 17.466797 C 6.9179682 19.510115 4.0849465 23.546509 4.0175781 28.326172 C 4.0097881 28.388742 3.5006336 32.535843 6.7167969 36.451172 C 9.9207901 40.351685 16.642256 43.892862 30.091797 43.972656 C 33.425158 44.690698 37.581707 44.755516 42.722656 43.984375 A 1.50015 1.50015 0 0 0 44 42.5 L 44 26.435547 C 44 18.507295 38.006855 11.572155 30.033203 11.035156 C 29.980243 11.031556 29.931766 11.047902 29.878906 11.044922 A 1.50015 1.50015 0 0 0 29.5 11 C 27.472222 11 26.329531 10.556224 25.673828 10.056641 C 25.018125 9.5570569 24.737039 8.9556117 24.599609 8.2226562 C 24.324751 6.7567454 24.904297 5.0273437 24.904297 5.0273438 A 1.50015 1.50015 0 0 0 23.572266 2.9804688 z M 15.5 5 C 13.5 5 12.087089 6.2223072 11.533203 7.3300781 C 10.979318 8.437849 11 9.5 11 9.5 A 1.50015 1.50015 0 1 0 14 9.5 C 14 9.5 14.02068 9.062151 14.216797 8.6699219 C 14.412911 8.2776928 14.5 8 15.5 8 A 1.50015 1.50015 0 1 0 15.5 5 z M 28.285156 14.019531 C 28.792065 13.989989 29.308812 13.992076 29.832031 14.027344 C 36.172379 14.454345 41 20.015798 41 26.435547 L 41 41.121094 C 36.924711 41.626456 33.614121 41.607786 31.070312 41.105469 A 1.50015 1.50015 0 0 0 30.587891 41.001953 C 27.872161 40.388226 25.92347 39.302376 24.560547 37.939453 C 21.74569 35.124596 21 30.833333 21 26.5 A 1.50015 1.50015 0 1 0 18 26.5 C 18 31.166667 18.75431 36.375404 22.439453 40.060547 C 22.608395 40.229488 22.860772 40.337267 23.041016 40.498047 C 15.07426 39.481145 10.997822 36.940539 9.0332031 34.548828 C 6.5236738 31.493749 6.984375 28.712891 6.984375 28.712891 A 1.50015 1.50015 0 0 0 7 28.5 C 7 24.551775 9.3827545 21.182195 12.794922 19.744141 C 12.801522 19.741341 12.809836 19.742934 12.816406 19.740234 A 1.50015 1.50015 0 0 0 12.892578 19.724609 C 14.005836 19.268936 15.218608 19 16.5 19 C 17.041124 19 17.58199 19.05545 18.132812 19.150391 A 1.50015 1.50015 0 0 0 19.568359 18.599609 C 21.631713 15.973878 24.736794 14.226328 28.285156 14.019531 z"/></svg>