<svg fill="#000000" xmlns="http://www.w3.org/2000/svg"  viewBox="0 0 48 48" width="24px" height="24px"><path d="M 24 2 C 15.716 2 9 8.716 9 17 C 9 18.027339 9.10402 19.03071 9.3007812 20 L 7.2148438 20 C 7.1189506 19.465137 7.0481694 18.921862 7.0039062 18.371094 C 6.9419062 17.596094 6.2917188 17 5.5117188 17 C 4.6297188 17 3.9338594 17.755813 4.0058594 18.632812 C 4.8016106 28.405513 12.679697 36.198346 22.5 36.927734 L 22.5 43 L 15.5 43 A 1.50015 1.50015 0 1 0 15.5 46 L 32.5 46 A 1.50015 1.50015 0 1 0 32.5 43 L 25.5 43 L 25.5 36.927734 C 35.320303 36.198346 43.198389 28.405513 43.994141 18.632812 C 44.065141 17.755812 43.370281 17 42.488281 17 C 41.708281 17 41.059094 17.596094 40.996094 18.371094 C 40.951831 18.921862 40.881049 19.465137 40.785156 20 L 38.699219 20 C 38.89598 19.03071 39 18.027339 39 17 C 39 8.716 32.284 2 24 2 z M 24 5 C 30.617 5 36 10.383 36 17 C 36 23.617 30.617 29 24 29 C 17.383 29 12 23.617 12 17 C 12 10.383 17.383 5 24 5 z M 8.046875 23 L 10.257812 23 C 12.573569 28.295285 17.85098 32 24 32 C 30.14902 32 35.426431 28.295285 37.742188 23 L 39.953125 23 C 37.515266 29.421198 31.284855 34 24 34 C 16.715145 34 10.484734 29.421198 8.046875 23 z"/></svg>