<svg fill="#000000" xmlns="http://www.w3.org/2000/svg"  viewBox="0 0 48 48" width="24px" height="24px"><path d="M 6.5 6 C 4.5850452 6 3 7.5850452 3 9.5 L 3 23.5 C 3 25.414955 4.5850452 27 6.5 27 L 14.783203 27 C 15.092403 29.853704 16.709886 32.323456 19.017578 33.804688 A 1.50015 1.50015 0 0 0 19 34.056641 L 19 44.498047 A 1.50015 1.50015 0 1 0 22 44.498047 L 22 35.048828 C 22.645376 35.1921 23.312873 35.273437 24 35.273438 C 24.687127 35.273438 25.354624 35.1921 26 35.048828 L 26 44.498047 A 1.50015 1.50015 0 1 0 29 44.498047 L 29 34.056641 A 1.50015 1.50015 0 0 0 28.980469 33.804688 C 31.289364 32.32362 32.907497 29.854634 33.216797 27 L 41.5 27 C 43.414955 27 45 25.414955 45 23.5 L 45 9.5 C 45 7.5850452 43.414955 6 41.5 6 L 6.5 6 z M 6.5 9 L 8 9 L 8 12 L 6 12 L 6 9.5 C 6 9.2049548 6.2049548 9 6.5 9 z M 11 9 L 37 9 L 37 12 L 11 12 L 11 9 z M 40 9 L 41.5 9 C 41.795045 9 42 9.2049548 42 9.5 L 42 12 L 40 12 L 40 9 z M 6 15 L 8 15 L 8 18 L 6 18 L 6 15 z M 11 15 L 37 15 L 37 18 L 11 18 L 11 15 z M 40 15 L 42 15 L 42 18 L 40 18 L 40 15 z M 6 21 L 8 21 L 8 24 L 6.5 24 C 6.2049548 24 6 23.795045 6 23.5 L 6 21 z M 11 21 L 37 21 L 37 24 L 11 24 L 11 21 z M 40 21 L 42 21 L 42 23.5 C 42 23.795045 41.795045 24 41.5 24 L 40 24 L 40 21 z M 17.8125 27 L 30.1875 27 C 29.712043 30.000445 27.140928 32.273437 24 32.273438 C 20.859072 32.273438 18.287957 30.000445 17.8125 27 z"/></svg>