<svg fill="#000000" xmlns="http://www.w3.org/2000/svg"  viewBox="0 0 32 32" width="32px" height="32px"><path d="M 7 6.9726562 C 6.0023316 6.9726563 4.7967493 7.2064286 3.7695312 7.9941406 C 2.7423134 8.7818526 2 10.158473 2 12 C 2 12.912217 2.2731497 13.872365 2.5175781 15.177734 C 2.7620065 16.483104 3 18.083333 3 20 C 3 20.715772 3.1393281 21.760686 3.5449219 22.785156 C 3.7477188 23.297391 4.0161686 23.804288 4.4375 24.232422 C 4.8588314 24.660556 5.4883241 25 6.1933594 25 C 6.898495 25 7.5446482 24.63743 7.9355469 24.181641 C 8.3264456 23.725852 8.535589 23.205163 8.6816406 22.689453 C 8.973744 21.658033 9 20.599004 9 20 C 9 18.388889 8.7351953 16.885686 8.4804688 15.644531 C 8.2257421 14.403376 8 13.361896 8 13 C 8.1145124 13 8.8155281 13.191515 9.5507812 13.445312 C 10.286035 13.699112 11.103411 14 12 14 C 13.64497 14 15 12.64497 15 11 C 15 9.3550302 13.64497 8 12 8 C 12.017285 8 11.64439 7.955058 11.232422 7.8632812 C 10.820454 7.7715046 10.312938 7.6444555 9.7949219 7.515625 C 8.7588892 7.257964 7.8344272 6.9726563 7 6.9726562 z M 25 6.9726562 C 24.165573 6.9726564 23.241111 7.257964 22.205078 7.515625 C 21.687062 7.6444555 21.179546 7.7715047 20.767578 7.8632812 C 20.35561 7.9550579 19.982715 8 20 8 C 18.35503 8 17 9.3550302 17 11 C 17 12.64497 18.35503 14 20 14 C 20.896589 14 21.713965 13.699112 22.449219 13.445312 C 23.184472 13.191515 23.885488 13 24 13 C 24 13.361896 23.774258 14.403376 23.519531 15.644531 C 23.264805 16.885686 23 18.388889 23 20 C 23 20.599004 23.02626 21.658033 23.318359 22.689453 C 23.464411 23.205163 23.673554 23.725852 24.064453 24.181641 C 24.455352 24.63743 25.101505 25 25.806641 25 C 26.511676 25 27.141169 24.660556 27.5625 24.232422 C 27.983831 23.804288 28.252281 23.297391 28.455078 22.785156 C 28.860672 21.760686 29 20.715772 29 20 C 29 18.083333 29.237993 16.483104 29.482422 15.177734 C 29.72685 13.872365 30 12.912217 30 12 C 30 10.158473 29.257687 8.7818526 28.230469 7.9941406 C 27.203251 7.2064286 25.997668 6.9726563 25 6.9726562 z M 7 8.9726562 C 7.1045728 8.9726562 8.2817827 9.2006922 9.3125 9.4570312 C 9.8278586 9.5852008 10.345577 9.715433 10.798828 9.8164062 C 11.252079 9.9173797 11.585715 10 12 10 C 12.56503 10 13 10.43497 13 11 C 13 11.56503 12.56503 12 12 12 C 11.629589 12 10.916372 11.800888 10.203125 11.554688 C 9.4898783 11.308485 8.8244876 11 8 11 C 7.8555 11 7.3936905 10.965417 6.8867188 11.261719 C 6.379747 11.55802 6 12.263 6 13 C 6 13.893104 6.2742578 14.85178 6.5195312 16.046875 C 6.7648047 17.24197 7 18.611111 7 20 C 7 20.511996 6.9534592 21.453701 6.7578125 22.144531 C 6.6599892 22.489946 6.5214138 22.760242 6.4179688 22.880859 C 6.3145236 23.001477 6.3187238 23 6.1933594 23 C 6.0678946 23 6.0090436 22.978194 5.8632812 22.830078 C 5.7175189 22.681962 5.542375 22.397593 5.4042969 22.048828 C 5.1281407 21.351298 5 20.396228 5 20 C 5 17.916667 4.7379935 16.175427 4.4824219 14.810547 C 4.2268503 13.445667 4 12.406783 4 12 C 4 10.646527 4.4287961 10.009569 4.9863281 9.5820312 C 5.5438602 9.1544934 6.3366684 8.9726562 7 8.9726562 z M 25 8.9726562 C 25.663332 8.9726562 26.45614 9.1544933 27.013672 9.5820312 C 27.571204 10.009569 28 10.646527 28 12 C 28 12.406783 27.77315 13.445667 27.517578 14.810547 C 27.262007 16.175427 27 17.916667 27 20 C 27 20.396228 26.871859 21.351298 26.595703 22.048828 C 26.457625 22.397593 26.282481 22.681962 26.136719 22.830078 C 25.990956 22.978194 25.932105 23 25.806641 23 C 25.681276 23 25.685476 23.0015 25.582031 22.880859 C 25.478586 22.760242 25.34001 22.489946 25.242188 22.144531 C 25.04654 21.453701 25 20.511996 25 20 C 25 18.611111 25.235195 17.24197 25.480469 16.046875 C 25.725742 14.85178 26 13.893104 26 13 C 26 12.263 25.620253 11.55802 25.113281 11.261719 C 24.60631 10.965417 24.1445 11 24 11 C 23.175512 11 22.510122 11.308485 21.796875 11.554688 C 21.083628 11.800888 20.370411 12 20 12 C 19.43497 12 19 11.56503 19 11 C 19 10.43497 19.43497 10 20 10 C 20.414285 10 20.747921 9.9173801 21.201172 9.8164062 C 21.654423 9.715433 22.172141 9.5852009 22.6875 9.4570312 C 23.718217 9.2006923 24.895427 8.9726562 25 8.9726562 z"/></svg>