<svg fill="#000000" xmlns="http://www.w3.org/2000/svg"  viewBox="0 0 32 32" width="32px" height="32px"><path d="M 11 10 C 6.445 10 2 13.9302 2 21 L 2 22 L 3.5664062 22 L 3.8671875 21.638672 C 3.8671875 21.638672 4.4412904 21.162537 5.2714844 20.697266 C 5.1085325 21.422174 5 22.196743 5 23 L 5 24 L 6.8847656 24 L 7.0429688 23.193359 C 7.0429688 23.193359 7.0824088 22.927015 7.4140625 22.476562 C 7.7457166 22.026111 8.3302698 21.473799 9.5136719 21.136719 L 9.4941406 21.140625 C 10.72378 20.817676 12.022191 19.991622 13.095703 18.775391 C 14.169215 17.559159 15 15.914025 15 14 C 15 13.522 15.037478 12.56081 14.484375 11.630859 C 13.931272 10.700909 12.727111 10 11 10 z M 21 10 C 19.272889 10 18.068728 10.700909 17.515625 11.630859 C 16.962522 12.56081 17 13.522 17 14 C 17 15.914025 17.830785 17.559159 18.904297 18.775391 C 19.977809 19.991622 21.27622 20.81767 22.505859 21.140625 L 22.486328 21.136719 C 23.66973 21.473799 24.254282 22.026111 24.585938 22.476562 C 24.917592 22.927015 24.957031 23.193359 24.957031 23.193359 L 25.115234 24 L 25.9375 24 L 27 24 L 27 23 C 27 22.196743 26.891468 21.422174 26.728516 20.697266 C 27.55871 21.162537 28.132813 21.638672 28.132812 21.638672 L 28.433594 22 L 30 22 L 30 21 C 30 13.9302 25.555 10 21 10 z M 11 12 C 12.272889 12 12.568728 12.321294 12.765625 12.652344 C 12.962522 12.983393 13 13.522 13 14 C 13 15.334975 12.419645 16.521856 11.597656 17.453125 C 10.775668 18.384394 9.6946891 19.020986 8.9863281 19.207031 L 8.9765625 19.208984 L 8.9667969 19.212891 C 8.4815993 19.351094 8.1477918 19.574127 7.7675781 19.773438 C 7.7844691 19.744048 7.7991701 19.601516 7.8144531 19.580078 L 9.1347656 17.730469 L 6.8769531 18.007812 C 5.836215 18.136031 5.0212035 18.489921 4.3203125 18.873047 C 5.0762652 14.221297 8.0072294 12 11 12 z M 21 12 C 23.992771 12 26.923734 14.221297 27.679688 18.873047 C 26.978796 18.489921 26.163785 18.136031 25.123047 18.007812 L 22.865234 17.730469 L 24.185547 19.580078 C 24.200827 19.601518 24.215532 19.744047 24.232422 19.773438 C 23.852208 19.574126 23.518401 19.351094 23.033203 19.212891 L 23.023438 19.208984 L 23.013672 19.207031 C 22.305385 19.021026 21.224332 18.384394 20.402344 17.453125 C 19.580355 16.521856 19 15.334975 19 14 C 19 13.522 19.037478 12.983393 19.234375 12.652344 C 19.431272 12.321294 19.727111 12 21 12 z"/></svg>