<svg fill="#000000" xmlns="http://www.w3.org/2000/svg"  viewBox="0 0 48 48" width="24px" height="24px"><path d="M 20 3 C 17.791 3 16 4.791 16 7 L 16 19 L 12 19 C 9.791 19 8 20.791 8 23 L 8 41 C 8 43.209 9.791 45 12 45 L 36 45 C 38.209 45 40 43.209 40 41 L 40 23 C 40 20.791 38.209 19 36 19 L 32 19 L 32 7 C 32 4.791 30.209 3 28 3 L 20 3 z M 20 6 L 28 6 C 28.551 6 29 6.449 29 7 L 29 19 L 19 19 L 19 7 C 19 6.449 19.449 6 20 6 z M 12 22 L 16 22 L 22.5 22 L 22.5 31 L 21.029297 35.757812 C 20.871297 36.389813 21.349 37 22 37 L 26 37 C 26.651 37 27.128703 36.389813 26.970703 35.757812 L 25.5 31 L 25.5 22 L 32 22 L 36 22 C 36.551 22 37 22.449 37 23 L 37 41 C 37 41.551 36.551 42 36 42 L 12 42 C 11.449 42 11 41.551 11 41 L 11 23 C 11 22.449 11.449 22 12 22 z"/></svg>