<svg fill="#000000" xmlns="http://www.w3.org/2000/svg"  viewBox="0 0 48 48" width="24px" height="24px"><path d="M 19.5 4 C 16.480226 4 14 6.4802259 14 9.5 L 14 14.605469 C 10.371535 17.538992 8 21.979943 8 27 L 8 44.5 A 1.50015 1.50015 0 1 0 11 44.5 L 11 27 C 11 23.846877 12.14091 20.98442 14 18.738281 L 14 27.5 C 14 31.624501 17.375499 35 21.5 35 L 26.5 35 C 30.624501 35 34 31.624501 34 27.5 L 34 18.740234 C 35.85876 20.986374 37 23.847676 37 27 L 37 44.5 A 1.50015 1.50015 0 1 0 40 44.5 L 40 27 C 40 21.980024 37.628511 17.538954 34 14.605469 L 34 9.5 C 34 6.4802259 31.519774 4 28.5 4 L 19.5 4 z M 19.5 7 L 28.5 7 C 29.898226 7 31 8.1017741 31 9.5 L 31 15.035156 A 1.50015 1.50015 0 0 0 31 15.439453 L 31 27.5 C 31 30.003499 29.003499 32 26.5 32 L 21.5 32 C 18.996501 32 17 30.003499 17 27.5 L 17 15.457031 A 1.50015 1.50015 0 0 0 17 15.017578 L 17 9.5 C 17 8.1017741 18.101774 7 19.5 7 z M 27.476562 8.9726562 A 1.50015 1.50015 0 0 0 26 10.494141 L 26 26.5 C 26 26.795045 25.795045 27 25.5 27 L 21.5 27 A 1.50015 1.50015 0 1 0 21.5 30 L 25.5 30 C 27.414955 30 29 28.414955 29 26.5 L 29 10.494141 A 1.50015 1.50015 0 0 0 27.476562 8.9726562 z"/></svg>