<svg id="Layer_1" data-name="Layer 1" xmlns="http://www.w3.org/2000/svg" viewBox="0 0 24 24"><path d="M11.72266,22.41675a.49994.49994,0,0,0,.55468,0l3-2a.50135.50135,0,0,0,.22266-.416v-6a.50132.50132,0,0,0-.22266-.416l-3-2a.50235.50235,0,0,0-.55468,0l-3,2a.50132.50132,0,0,0-.22266.416v6a.50135.50135,0,0,0,.22266.416ZM9.5,14.26831l2.5-1.667,2.5,1.667v5.46484l-2.5,1.667-2.5-1.667Zm7.5.75617V14.00073c0-.06128-.01678-.11914-.02228-.1795A6.28309,6.28309,0,0,0,19.5,8.88843,6.81649,6.81649,0,0,0,13.88867,2.488a.49986.49986,0,0,1,.22266-.97461A7.807,7.807,0,0,1,20.5,8.88843,7.359,7.359,0,0,1,17,15.02448ZM4.5,8.88843a6.283,6.283,0,0,0,2.52228,4.93286C7.01678,13.88165,7,13.93951,7,14.00073v1.02375A7.359,7.359,0,0,1,3.5,8.88843a7.807,7.807,0,0,1,6.38867-7.375.49986.49986,0,0,1,.22266.97461A6.81649,6.81649,0,0,0,4.5,8.88843Z"/></svg>