<svg id="Layer_1" data-name="Layer 1" xmlns="http://www.w3.org/2000/svg" viewBox="0 0 24 24"><path d="M8.88574,13.77637l-1.333,2.667a.49971.49971,0,0,0,.04688.52344l4,5.333a.50048.50048,0,0,0,.80078,0l4-5.333a.49971.49971,0,0,0,.04688-.52344l-1.333-2.667A.50108.50108,0,0,0,14.667,13.5H9.333A.50108.50108,0,0,0,8.88574,13.77637ZM14.3584,14.5,15.415,16.61426,12,21.167,8.585,16.61426,9.6416,14.5ZM19.5,8.8877a6.8165,6.8165,0,0,0-5.61133-6.4004.49986.49986,0,1,1,.22266-.9746A7.80694,7.80694,0,0,1,20.5,8.8877a7.37208,7.37208,0,0,1-3.192,5.92236l-.44995-.90027A6.35562,6.35562,0,0,0,19.5,8.8877Zm-9.0127-6.999a.49934.49934,0,0,1-.376.59863A6.8165,6.8165,0,0,0,4.5,8.8877a6.35536,6.35536,0,0,0,2.64209,5.02178L6.692,14.81A7.37334,7.37334,0,0,1,3.5,8.8877a7.80694,7.80694,0,0,1,6.38867-7.375A.495.495,0,0,1,10.4873,1.88867Z"/></svg>