<svg fill="#000000" xmlns="http://www.w3.org/2000/svg"  viewBox="0 0 32 32" width="32px" height="32px"><path d="M 16 11 C 12.472708 11 9.2266031 11.534605 6.6933594 12.777344 C 4.1601157 14.020082 2.3148339 16.094923 2.0058594 18.890625 L 1.8828125 20 L 11.259766 20 C 12.307698 20 13.553831 19.657605 14.693359 19.048828 C 15.177187 18.79035 15.607659 18.444441 16 18.056641 C 16.392341 18.444441 16.822813 18.79035 17.306641 19.048828 C 18.446169 19.657605 19.692302 20 20.740234 20 L 30.117188 20 L 29.994141 18.890625 C 29.685166 16.094923 27.839884 14.020082 25.306641 12.777344 C 22.773397 11.534605 19.527292 11 16 11 z M 16 13 C 19.319708 13 22.305275 13.532004 24.425781 14.572266 C 26.103465 15.39529 27.046258 16.56529 27.554688 18 L 20.740234 18 C 20.207166 18 19.083769 17.731629 18.248047 17.285156 C 17.830186 17.06192 17.479357 16.796981 17.269531 16.558594 C 17.059705 16.320207 17 16.148704 17 16 L 15 16 C 15 16.148704 14.9403 16.320207 14.730469 16.558594 C 14.520643 16.796981 14.169814 17.06192 13.751953 17.285156 C 12.916231 17.731629 11.792834 18 11.259766 18 L 4.4453125 18 C 4.953741 16.56529 5.8965351 15.39529 7.5742188 14.572266 C 9.694725 13.532004 12.680292 13 16 13 z"/></svg>