<svg id="Layer_1" data-name="Layer 1" xmlns="http://www.w3.org/2000/svg" viewBox="0 0 24 24"><path d="M3.5,4V20A2.50263,2.50263,0,0,0,6,22.5H8.36035a2.50529,2.50529,0,0,0,2.45117-2.00977L12,14.54932l1.18848,5.94043A2.50524,2.50524,0,0,0,15.63965,22.5H18A2.50263,2.50263,0,0,0,20.5,20V4A2.50263,2.50263,0,0,0,18,1.5H6A2.50263,2.50263,0,0,0,3.5,4Zm1,2.5H7.46484A3.5094,3.5094,0,0,1,4.5,9.46436ZM18,21.5H15.63965A1.50318,1.50318,0,0,1,14.169,20.294l-1.67872-8.39209a.49995.49995,0,0,0-.98046,0L9.83105,20.29443A1.50323,1.50323,0,0,1,8.36035,21.5H6A1.50164,1.50164,0,0,1,4.5,20V10.44946A4.47689,4.47689,0,0,0,8.44946,6.5H11.5V8a.5.5,0,0,0,1,0V6.5h3.05054A4.47689,4.47689,0,0,0,19.5,10.44946V20A1.50164,1.50164,0,0,1,18,21.5ZM19.5,9.46436A3.5094,3.5094,0,0,1,16.53516,6.5H19.5ZM19.5,4V5.5h-7v-3H18A1.50164,1.50164,0,0,1,19.5,4ZM6,2.5h5.5v3h-7V4A1.50164,1.50164,0,0,1,6,2.5Z"/></svg>