<svg id="Layer_1" data-name="Layer 1" xmlns="http://www.w3.org/2000/svg" viewBox="0 0 24 24"><path d="M5,2.5A2.50263,2.50263,0,0,0,2.5,5V19A2.50263,2.50263,0,0,0,5,21.5H8.43848a2.49728,2.49728,0,0,0,2.42578-1.894L12,15.06152,13.13574,19.606A2.49728,2.49728,0,0,0,15.56152,21.5H19A2.50263,2.50263,0,0,0,21.5,19V5A2.50263,2.50263,0,0,0,19,2.5Zm0,1h6.5v3h-8V5A1.50164,1.50164,0,0,1,5,3.5Zm-1.5,4H6.46484A3.5094,3.5094,0,0,1,3.5,10.46436ZM19,20.5H15.56152a1.49762,1.49762,0,0,1-1.45507-1.13623l-1.6211-6.48486a.5003.5003,0,0,0-.9707,0l-1.6211,6.48486A1.49762,1.49762,0,0,1,8.43848,20.5H5A1.50164,1.50164,0,0,1,3.5,19V11.44946A4.47689,4.47689,0,0,0,7.44946,7.5H11.5V9a.5.5,0,0,0,1,0V7.5h4.05054A4.47689,4.47689,0,0,0,20.5,11.44946V19A1.50164,1.50164,0,0,1,19,20.5Zm1.5-10.03564A3.5094,3.5094,0,0,1,17.53516,7.5H20.5ZM20.5,5V6.5h-8v-3H19A1.50164,1.50164,0,0,1,20.5,5Z"/></svg>