<svg fill="#000000" xmlns="http://www.w3.org/2000/svg"  viewBox="0 0 32 32" width="32px" height="32px"><path d="M 13 14 C 13 14.795167 12.869739 15.089249 12.373047 15.408203 C 11.876355 15.727157 10.797106 16 9 16 C 6.479056 16 4.8913156 16.254436 3.8886719 16.537109 C 3.38735 16.678446 3.0316051 16.827091 2.7832031 16.957031 C 2.5348012 17.086971 2.3261719 17.261719 2.3261719 17.261719 L 3.6738281 18.738281 C 3.6738281 18.738281 3.6009025 18.788019 3.7109375 18.730469 C 3.820973 18.672909 4.0462125 18.571554 4.4316406 18.462891 C 5.2024973 18.245552 6.614944 18 9 18 C 10.973894 18 12.39452 17.772843 13.455078 17.091797 C 14.515636 16.410751 15 15.204833 15 14 L 13 14 z M 17 14 C 17 15.204833 17.484364 16.410751 18.544922 17.091797 C 19.60548 17.772843 21.026106 18 23 18 C 25.385056 18 26.797503 18.245564 27.568359 18.462891 C 27.953788 18.571554 28.179027 18.672909 28.289062 18.730469 C 28.399099 18.788029 28.326172 18.738281 28.326172 18.738281 L 29.673828 17.261719 C 29.673828 17.261719 29.465199 17.086971 29.216797 16.957031 C 28.968395 16.827103 28.61265 16.678446 28.111328 16.537109 C 27.108684 16.254436 25.520944 16 23 16 C 21.202894 16 20.123645 15.727157 19.626953 15.408203 C 19.130261 15.089249 19 14.795167 19 14 L 17 14 z"/></svg>