<svg fill="#000000" xmlns="http://www.w3.org/2000/svg"  viewBox="0 0 48 48" width="24px" height="24px"><path d="M 18.5 4 A 1.50015 1.50015 0 0 0 17 5.5 L 17 14 L 11.5 14 C 8.4802259 14 6 16.480226 6 19.5 L 6 37.5 C 6 40.519774 8.4802259 43 11.5 43 L 36.5 43 C 39.519774 43 42 40.519774 42 37.5 L 42 19.5 C 42 16.480226 39.519774 14 36.5 14 L 30 14 L 30 5.5 A 1.50015 1.50015 0 0 0 28.5 4 L 18.5 4 z M 20 7 L 27 7 L 27 14 L 20 14 L 20 7 z M 11.5 17 L 36.5 17 C 37.898226 17 39 18.101774 39 19.5 L 39 27 L 33 27 L 33 24.5 C 33 23.136406 31.863594 22 30.5 22 L 17.5 22 C 16.136406 22 15 23.136406 15 24.5 L 15 27 L 9 27 L 9 19.5 C 9 18.101774 10.101774 17 11.5 17 z M 18 25 L 30 25 L 30 32 L 18 32 L 18 25 z M 9 30 L 15 30 L 15 32.5 C 15 33.863594 16.136406 35 17.5 35 L 30.5 35 C 31.863594 35 33 33.863594 33 32.5 L 33 30 L 39 30 L 39 37.5 C 39 38.898226 37.898226 40 36.5 40 L 11.5 40 C 10.101774 40 9 38.898226 9 37.5 L 9 30 z"/></svg>