<svg fill="#000000" xmlns="http://www.w3.org/2000/svg"  viewBox="0 0 48 48" width="24px" height="24px"><path d="M 39.632812 -0.013671875 C 36.420301 -0.013671875 33.436737 0.97281411 31.189453 2.1542969 C 30.065811 2.7450382 29.12644 3.3824317 28.408203 4.03125 C 28.05551 4.3498547 27.711071 4.6368093 27.447266 5 L 24.816406 5 C 24.403316 3.8371625 23.304625 3 22 3 C 20.343 3 19 4.343 19 6 L 19 9 C 19 9.552 19.448 10 20 10 L 20.5 10 L 20.5 12 L 19.5 12 C 17.57 12 16 13.57 16 15.5 L 16 20.503906 C 11.784764 22.740043 8.9130683 27.213947 9.0019531 32.234375 C 9.0732198 36.271424 11.042202 39.815041 14 42.150391 L 14 42.5 C 14 44.414955 15.585045 46 17.5 46 L 26.5 46 C 28.414955 46 30 44.414955 30 42.5 L 30 42.148438 C 33.013734 39.767758 35 36.130239 35 32 C 35 26.998187 32.160181 22.646386 28 20.474609 L 28 15.5 C 28 13.57 26.43 12 24.5 12 L 23.5 12 L 23.5 10 L 24 10 C 24.552 10 25 9.552 25 9 L 25 8 L 27.435547 8 C 27.700452 8.3695549 28.051227 8.6579943 28.408203 8.9804688 C 29.12644 9.6292871 30.065811 10.266681 31.189453 10.857422 C 33.436737 12.038905 36.4203 13.025391 39.632812 13.025391 C 43.170946 13.025391 46.035156 10.069706 46.035156 6.5058594 C 46.035156 2.9420123 43.170946 -0.013671875 39.632812 -0.013671875 z M 39.632812 2.9863281 C 41.51068 2.9863281 43.035156 4.5257064 43.035156 6.5058594 C 43.035156 8.4860123 41.51068 10.025391 39.632812 10.025391 C 37.050325 10.025391 34.459951 9.1874391 32.583984 8.2011719 C 31.646001 7.7080382 30.885717 7.1746818 30.419922 6.7539062 C 30.308932 6.6536437 30.295836 6.5954637 30.234375 6.5058594 C 30.295835 6.4162554 30.308935 6.3580751 30.419922 6.2578125 C 30.885717 5.8370371 31.646001 5.3036805 32.583984 4.8105469 C 34.459951 3.8242796 37.050325 2.9863281 39.632812 2.9863281 z M 19.5 15 L 24.5 15 C 24.775 15 25 15.224 25 15.5 L 25 20 L 19 20 L 19 15.5 C 19 15.224 19.225 15 19.5 15 z M 17.699219 23 L 20.429688 23 C 20.23563 24.405155 19.62357 25.177547 18.810547 26.234375 C 18.088079 27.173494 17.194217 28.362806 16.761719 30 L 12.214844 30 C 12.863052 26.953386 14.94323 24.350557 17.699219 23 z M 23.443359 23 L 26.365234 23 C 29.121631 24.339484 31.16612 26.906339 31.792969 30 L 19.888672 30 C 20.186001 29.341036 20.63543 28.784614 21.189453 28.064453 C 22.079097 26.908027 23.18857 25.33541 23.443359 23 z M 12.066406 33 L 16.552734 33 C 17.039617 37.595986 20.755859 39.802734 20.755859 39.802734 A 1.5002872 1.5002872 0 0 0 22.244141 37.197266 C 22.244141 37.197266 20.005018 35.984809 19.576172 33 L 31.9375 33 C 31.637943 36.012602 30.017348 38.62028 27.650391 40.246094 A 1.50015 1.50015 0 0 0 27 41.482422 L 27 42.5 C 27 42.795045 26.795045 43 26.5 43 L 17.5 43 C 17.204955 43 17 42.795045 17 42.5 L 17 41.482422 A 1.50015 1.50015 0 0 0 16.349609 40.246094 C 13.98342 38.621283 12.366403 36.011062 12.066406 33 z"/></svg>