<svg fill="#000000" xmlns="http://www.w3.org/2000/svg"  viewBox="0 0 48 48" width="24px" height="24px"><path d="M 18 7 C 16.517429 7 15.087737 7.2098264 13.716797 7.5664062 C 13.691123 7.5571544 13.668354 7.5422399 13.642578 7.5332031 L 13.623047 7.5898438 C 6.3594371 9.5235741 1 16.127291 1 24 C 1 31.910069 6.4103252 38.539384 13.726562 40.4375 C 13.727173 40.437658 13.727905 40.437342 13.728516 40.4375 C 15.095868 40.792081 16.521729 41 18 41 C 23.483815 41 28.342797 38.390126 31.449219 34.357422 C 32.668257 38.199019 36.273993 41 40.507812 41 L 45.5 41 A 1.50015 1.50015 0 1 0 45.5 38 L 40.507812 38 C 37.418363 38 34.858356 35.875349 34.185547 33 L 37.005859 33 A 1.50015 1.50015 0 1 0 37.005859 30 L 34.007812 30 L 34.007812 27.5 C 34.007813 26.136406 32.871407 25 31.507812 25 L 31.113281 25 C 30.176011 25 29.681992 24.124071 30.164062 23.320312 L 33.417969 17.896484 C 33.812707 17.238586 33.975802 16.541667 34.033203 15.90625 C 34.332579 12.589528 37.100449 10 40.507812 10 L 45.5 10 A 1.50015 1.50015 0 1 0 45.5 7 L 40.507812 7 C 36.281163 7 32.687292 9.786414 31.462891 13.621094 C 28.35342 9.5945093 23.480361 7 18 7 z M 18 10 C 23.292811 10 27.897412 12.958054 30.275391 17.302734 L 27.589844 21.777344 C 26.006095 24.417938 27.956297 27.88323 31.007812 27.970703 L 31.007812 29.099609 C 28.96443 34.300249 23.916639 38 18 38 C 17.812812 38 17.630738 37.979972 17.445312 37.972656 C 18.963388 36.343617 19.911724 34.183622 19.988281 31.808594 A 1.50015 1.50015 0 0 0 20 31.259766 L 20 27.96875 C 23.050033 27.87939 24.99932 24.417196 23.416016 21.777344 L 20.162109 16.353516 C 20.064848 16.191414 19.989536 15.953302 19.960938 15.636719 C 19.76566 13.47228 18.827789 11.530797 17.423828 10.029297 C 17.616377 10.021406 17.805547 10 18 10 z M 13.523438 10.748047 C 15.422202 11.747983 16.769908 13.65901 16.972656 15.90625 C 17.030056 16.541667 17.193152 17.238586 17.587891 17.896484 L 20.84375 23.320312 C 21.32582 24.124071 20.829848 25 19.892578 25 L 19.5 25 C 18.136406 25 17 26.136406 17 27.5 L 17 30 L 13.5 30 A 1.50015 1.50015 0 1 0 13.5 33 L 16.806641 33 C 16.368579 34.852313 15.155819 36.389867 13.517578 37.25 C 7.9923855 35.37533 4 30.150891 4 24 C 4 17.846936 7.9952049 12.621002 13.523438 10.748047 z M 12 18 A 2 2 0 0 0 12 22 A 2 2 0 0 0 12 18 z M 39 18 A 2 2 0 0 0 39 22 A 2 2 0 0 0 39 18 z"/></svg>