<svg id="Layer_1" data-name="Layer 1" xmlns="http://www.w3.org/2000/svg" viewBox="0 0 24 24"><path d="M20.5,14a8.50751,8.50751,0,0,0-5.05316-7.7627l.95306-1.2705a.49979.49979,0,0,0,.04737-.52344l-1.3335-2.667A.50108.50108,0,0,0,14.6665,1.5H9.3335a.50108.50108,0,0,0-.44727.27637l-1.3335,2.667a.49979.49979,0,0,0,.04737.52344l.95306,1.2705A8.49722,8.49722,0,1,0,20.5,14ZM8.58545,4.61426,9.64258,2.5h4.71484l1.05713,2.11426-.94141,1.25519a8.46246,8.46246,0,0,0-4.94628,0ZM12,21.5A7.5,7.5,0,1,1,19.5,14,7.5082,7.5082,0,0,1,12,21.5Zm0-13A5.5,5.5,0,1,0,17.5,14,5.50654,5.50654,0,0,0,12,8.5Zm0,10A4.5,4.5,0,1,1,16.5,14,4.50491,4.50491,0,0,1,12,18.5Z"/></svg>