<svg id="Layer_1" data-name="Layer 1" xmlns="http://www.w3.org/2000/svg" viewBox="0 0 24 24"><path d="M3.5,14A8.5,8.5,0,1,0,15.27716,6.15875,3.49368,3.49368,0,0,0,15.5,5a3.5,3.5,0,0,0-7,0,3.49226,3.49226,0,0,0,.22314,1.15857A8.51223,8.51223,0,0,0,3.5,14Zm6-9a2.5,2.5,0,0,1,5,0,2.46836,2.46836,0,0,1-.16113.8349,8.33419,8.33419,0,0,0-4.67682-.00024A2.49382,2.49382,0,0,1,9.5,5ZM12,6.5A7.5,7.5,0,1,1,4.5,14,7.5082,7.5082,0,0,1,12,6.5Zm0,13A5.5,5.5,0,1,0,6.5,14,5.50685,5.50685,0,0,0,12,19.5Zm0-10A4.5,4.5,0,1,1,7.5,14,4.50491,4.50491,0,0,1,12,9.5Z"/></svg>