<svg id="Layer_1" data-name="Layer 1" xmlns="http://www.w3.org/2000/svg" viewBox="0 0 24 24"><path d="M6.2002,22.5a4.22906,4.22906,0,0,0,4.1416-3.93506l.53466-5.64258A5.08224,5.08224,0,0,0,9.59766,9.0249a4.54781,4.54781,0,0,0-6.7959.00049,5.081,5.081,0,0,0-1.27783,3.89746l.53418,5.6416A4.2292,4.2292,0,0,0,6.2002,22.5ZM2.519,12.82812A4.08067,4.08067,0,0,1,3.5415,9.69824a3.54811,3.54811,0,0,1,5.31641-.00049,4.08243,4.08243,0,0,1,1.02344,3.13037L9.34668,18.4707A3.23469,3.23469,0,0,1,6.2002,21.5a3.23521,3.23521,0,0,1-3.147-3.02979ZM4.1001,15.5a.49971.49971,0,0,1-.5-.5,6.96954,6.96954,0,0,1,2.24658-4.55371.4998.4998,0,0,1,.707,0A6.97031,6.97031,0,0,1,8.7998,15a.5.5,0,0,1-1,.00244,5.93281,5.93281,0,0,0-1.60009-3.47265A5.829,5.829,0,0,0,4.6001,15,.49972.49972,0,0,1,4.1001,15.5Zm13.6997-14a4.55282,4.55282,0,0,0-3.39746,1.5249,5.08273,5.08273,0,0,0-1.2788,3.898l.53466,5.6416a4.14727,4.14727,0,0,0,8.28369.00049l.53418-5.64209a5.081,5.081,0,0,0-1.27783-3.89746A4.55438,4.55438,0,0,0,17.7998,1.5Zm3.147,10.9707a3.149,3.149,0,0,1-6.29346-.00049l-.53467-5.6416a4.08292,4.08292,0,0,1,1.02344-3.13086,3.54811,3.54811,0,0,1,5.31641.00049A4.08067,4.08067,0,0,1,21.481,6.82812ZM18.15332,4.44629A6.96954,6.96954,0,0,1,20.3999,9a.5.5,0,0,1-1,.00244,5.9349,5.9349,0,0,0-1.6001-3.47217,5.931,5.931,0,0,0-1.5996,3.47217.53557.53557,0,0,1-.50245.4961A.49888.49888,0,0,1,15.2002,9a6.97031,6.97031,0,0,1,2.24609-4.55371A.51466.51466,0,0,1,18.15332,4.44629Z"/></svg>