<svg id="Layer_1" data-name="Layer 1" xmlns="http://www.w3.org/2000/svg" viewBox="0 0 24 24"><path d="M12,1.5A6.29528,6.29528,0,0,0,7.30371,3.60889,7.04617,7.04617,0,0,0,5.53223,9.0127l.76367,8.05957A5.82941,5.82941,0,0,0,12,22.5a5.82941,5.82941,0,0,0,5.7041-5.42773l.76367-8.05957a7.04617,7.04617,0,0,0-1.77148-5.40381A6.29528,6.29528,0,0,0,12,1.5Zm5.47168,7.418L16.708,16.97754A4.83494,4.83494,0,0,1,12,21.5a4.83494,4.83494,0,0,1-4.708-4.52246L6.52832,8.918A6.04487,6.04487,0,0,1,8.044,4.28174a5.28274,5.28274,0,0,1,7.9121,0A6.04487,6.04487,0,0,1,17.47168,8.918ZM12.35352,5.64648A9.73265,9.73265,0,0,1,15.5,12a.49908.49908,0,0,1-.498.499H15a.50066.50066,0,0,1-.5-.49707A8.74832,8.74832,0,0,0,12,6.72266,8.74832,8.74832,0,0,0,9.5,12.002.501.501,0,0,1,9,12.499H8.998A.49908.49908,0,0,1,8.5,12a9.73265,9.73265,0,0,1,3.14648-6.35352A.49983.49983,0,0,1,12.35352,5.64648Z"/></svg>