<svg fill="#000000" xmlns="http://www.w3.org/2000/svg"  viewBox="0 0 48 48" width="24px" height="24px"><path d="M 26.5 2 C 22.75 2 19.752734 2.9740691 17.775391 5.1035156 C 15.798047 7.2329621 15 10.285714 15 14 A 1.50015 1.50015 0 0 0 15.027344 14.306641 C 13.818811 15.306523 13 16.758044 13 18.435547 L 13 41.548828 C 13 43.989258 15.010742 46 17.451172 46 L 30.548828 46 C 32.989258 46 35 43.989258 35 41.548828 L 35 18.435547 C 35 16.757465 34.179956 15.306516 32.970703 14.306641 A 1.50015 1.50015 0 0 0 33 14 C 33 12.514334 32.505813 11.192724 31.767578 10 L 33.5 10 A 1.50015 1.50015 0 0 0 35 8.5 L 35 3.5 A 1.50015 1.50015 0 0 0 33.5 2 L 26.5 2 z M 26.5 5 L 32 5 L 32 7 L 27.5 7 A 1.50015 1.50015 0 0 0 27.148438 9.9589844 C 27.148438 9.9589844 28.244907 10.31738 28.625 10.638672 C 29.416092 11.30752 29.719238 12.067341 29.857422 13.060547 C 29.755122 13.05471 29.668119 13 29.564453 13 L 18.435547 13 C 18.322326 13 18.226817 13.057503 18.115234 13.064453 C 18.254248 10.364461 18.845594 8.3623468 19.974609 7.1464844 C 21.247266 5.7759339 23.25 5 26.5 5 z M 18.435547 16 L 29.564453 16 C 30.926593 16 32 17.073407 32 18.435547 L 32 41.548828 C 32 42.368399 31.368399 43 30.548828 43 L 17.451172 43 C 16.631601 43 16 42.368399 16 41.548828 L 16 18.435547 C 16 17.073407 17.073407 16 18.435547 16 z"/></svg>