<svg id="Layer_1" data-name="Layer 1" xmlns="http://www.w3.org/2000/svg" viewBox="0 0 24 24"><path d="M16,2.5H8A6.50753,6.50753,0,0,0,1.5,9v6A2.50294,2.50294,0,0,0,4,17.5H5.5V19A2.50294,2.50294,0,0,0,8,21.5h8A2.50263,2.50263,0,0,0,18.5,19V17.5H20A2.50263,2.50263,0,0,0,22.5,15V9A6.50753,6.50753,0,0,0,16,2.5Zm-1.5498,1a2.50057,2.50057,0,0,1-4.89991,0ZM21.5,15A1.50164,1.50164,0,0,1,20,16.5H18.5V7a.5.5,0,0,0-1,0V19A1.50164,1.50164,0,0,1,16,20.5H8A1.50164,1.50164,0,0,1,6.5,19V7a.5.5,0,0,0-1,0v9.5H4A1.50164,1.50164,0,0,1,2.5,15V9A5.50623,5.50623,0,0,1,8,3.5h.55054a3.48313,3.48313,0,0,0,6.89892,0H16A5.50654,5.50654,0,0,1,21.5,9Z"/></svg>