<svg id="Layer_1" data-name="Layer 1" xmlns="http://www.w3.org/2000/svg" viewBox="0 0 24 24"><path d="M22.49823,8.96545A6.50651,6.50651,0,0,0,16,2.5H8A6.50651,6.50651,0,0,0,1.50177,8.96545l-.00031.00586L1.5,9v6A2.50263,2.50263,0,0,0,4,17.5H5.5V19A2.50263,2.50263,0,0,0,8,21.5h8A2.50263,2.50263,0,0,0,18.5,19V17.5H20A2.50263,2.50263,0,0,0,22.5,15V9l-.00146-.02869ZM18.5,11.30908l3-1.5v1.88184l-3,1.5ZM14.4502,3.5a2.50087,2.50087,0,0,1-4.9004,0ZM5.5,13.19092l-3-1.5V9.80908l3,1.5ZM4,16.5A1.50164,1.50164,0,0,1,2.5,15V12.80908l3,1.5V16.5ZM17.5,19A1.50164,1.50164,0,0,1,16,20.5H8A1.50164,1.50164,0,0,1,6.5,19V7a.5.5,0,0,0-1,0v3.19092L2.51526,8.69855A5.50252,5.50252,0,0,1,8,3.5h.55054a3.48313,3.48313,0,0,0,6.89892,0H16a5.50252,5.50252,0,0,1,5.48474,5.19855L18.5,10.19092V7a.5.5,0,0,0-1,0V19ZM20,16.5H18.5V14.30908l3-1.5V15A1.50164,1.50164,0,0,1,20,16.5Z"/></svg>