<svg id="Layer_1" data-name="Layer 1" xmlns="http://www.w3.org/2000/svg" viewBox="0 0 24 24"><path d="M18.35352,10.64648A6.28617,6.28617,0,0,1,16.5,6.17188V3a.5.5,0,0,0-1,0V5a3.5,3.5,0,0,1-7,0V3a.5.5,0,0,0-1,0V6.17188a6.28617,6.28617,0,0,1-1.85352,4.4746A.49965.49965,0,0,0,5.5,11v8A2.50263,2.50263,0,0,0,8,21.5h8A2.50263,2.50263,0,0,0,18.5,19V11A.49965.49965,0,0,0,18.35352,10.64648ZM6.5,11.20312A7.26807,7.26807,0,0,0,8.35449,7.63574a4.49648,4.49648,0,0,0,7.291,0A7.246,7.246,0,0,0,17.20142,10.84L6.5,16.19092ZM17.5,19A1.50164,1.50164,0,0,1,16,20.5H8.11816L17.5,15.80908Zm0-4.30908L6.88776,19.99707A1.48825,1.48825,0,0,1,6.5,19V17.30908l11-5.50024Z"/></svg>