<svg id="Layer_1" data-name="Layer 1" xmlns="http://www.w3.org/2000/svg" viewBox="0 0 24 24"><path d="M9.65723,14.5h4.68554a2.03406,2.03406,0,0,0,2.062-2V7.8252L16.5835,7.96a1.31032,1.31032,0,0,0,1.74072-.1582l1.35156-1.48438a1.22881,1.22881,0,0,0-.09961-1.75976L17.12988,2.41016A3.68808,3.68808,0,0,0,14.69238,1.5H14.25a.49971.49971,0,0,0-.5.5,1.75,1.75,0,0,1-3.5,0,.49971.49971,0,0,0-.5-.5H9.30762a3.68808,3.68808,0,0,0-2.4375.91016L4.42383,4.55762a1.22941,1.22941,0,0,0-.1001,1.75976l1.352,1.48438A1.31081,1.31081,0,0,0,7.417,7.96l.17822-.13476V12.5A2.03406,2.03406,0,0,0,9.65723,14.5ZM6.81494,7.16113a.30243.30243,0,0,1-.3999-.0332L5.0625,5.64355a.22821.22821,0,0,1-.062-.16894.23462.23462,0,0,1,.08349-.165L7.53027,3.16211A2.68316,2.68316,0,0,1,9.29541,2.5a2.75051,2.75051,0,0,0,5.40918,0,2.68316,2.68316,0,0,1,1.76514.66211L18.916,5.30957a.23462.23462,0,0,1,.08349.165.227.227,0,0,1-.0625.16894L17.585,7.12793a.3016.3016,0,0,1-.39941.0332l-.9795-.73925a.50038.50038,0,0,0-.80126.39941V12.5a1.03344,1.03344,0,0,1-1.062,1H9.65723a1.03344,1.03344,0,0,1-1.062-1V6.82129A.50036.50036,0,0,0,7.794,6.42188ZM22.35352,18.64648a.49983.49983,0,0,1,0,.707l-3,3a.5.5,0,0,1-.707-.707L20.793,19.5H3.207l2.14649,2.14648a.5.5,0,1,1-.707.707l-3-3a.49983.49983,0,0,1,0-.707l3-3a.5.5,0,0,1,.707.707L3.207,18.5H20.793l-2.14649-2.14648a.5.5,0,0,1,.707-.707Z"/></svg>