<svg id="Layer_1" data-name="Layer 1" xmlns="http://www.w3.org/2000/svg" viewBox="0 0 24 24"><path d="M16,2.5H8A6.50753,6.50753,0,0,0,1.5,9v6A2.50263,2.50263,0,0,0,4,17.5H5.5V19A2.50263,2.50263,0,0,0,8,21.5h8A2.50263,2.50263,0,0,0,18.5,19V17.5H20A2.50263,2.50263,0,0,0,22.5,15V9A6.50753,6.50753,0,0,0,16,2.5Zm-1.8891,1L12.43066,6.26123a.50777.50777,0,0,1-.86132,0L9.8891,3.5ZM21.5,15A1.50164,1.50164,0,0,1,20,16.5H18.5V7a.5.5,0,0,0-1,0V19A1.50164,1.50164,0,0,1,16,20.5H8A1.50164,1.50164,0,0,1,6.5,19V7a.5.5,0,0,0-1,0v9.5H4A1.50164,1.50164,0,0,1,2.5,15V9A5.50654,5.50654,0,0,1,8,3.5h.71942l1.9964,3.28076a1.50605,1.50605,0,0,0,2.56836,0L15.28058,3.5H16A5.50654,5.50654,0,0,1,21.5,9Z"/></svg>