<svg id="Layer_1" data-name="Layer 1" xmlns="http://www.w3.org/2000/svg" viewBox="0 0 24 24"><path d="M18.73,4.67188A4.75648,4.75648,0,0,0,15.58936,3.5H8.41064A4.75447,4.75447,0,0,0,5.27,4.67236L2.00879,7.53564a1.47226,1.47226,0,0,0-.12061,2.10889l1.80274,1.978a1.57576,1.57576,0,0,0,2.09765.19043l.50489-.38086V18A2.54531,2.54531,0,0,0,8.876,20.5h6.248A2.54531,2.54531,0,0,0,17.70654,18V11.43213l.50537.38135a1.57736,1.57736,0,0,0,2.09717-.19043l1.80274-1.97852a1.47226,1.47226,0,0,0-.12061-2.10889V7.53516ZM14.44971,4.5a2.50027,2.50027,0,0,1-4.89942,0Zm6.92285,4.4707-1.80274,1.979a.57582.57582,0,0,1-.75586.06543l-1.30615-.98535a.49969.49969,0,0,0-.80127.39892V18A1.54467,1.54467,0,0,1,15.124,19.5H8.876A1.54467,1.54467,0,0,1,7.29346,18V10.42871a.49988.49988,0,0,0-.80127-.39892l-1.30567.98486a.57362.57362,0,0,1-.75634-.06543L2.62744,8.9707A.47081.47081,0,0,1,2.501,8.624a.4794.4794,0,0,1,.168-.33691L5.93018,5.42383A3.75182,3.75182,0,0,1,8.41064,4.5h.1399a3.48313,3.48313,0,0,0,6.89892,0h.1399a3.75182,3.75182,0,0,1,2.48046.92383l3.26123,2.86328a.48033.48033,0,0,1,.168.33691A.47081.47081,0,0,1,21.37256,8.9707Z"/></svg>