<svg id="Layer_1" data-name="Layer 1" xmlns="http://www.w3.org/2000/svg" viewBox="0 0 24 24"><path d="M8,2.5a.49971.49971,0,0,0-.5.5V6.17139a6.28728,6.28728,0,0,1-1.85352,4.47509A.49965.49965,0,0,0,5.5,11v8A2.50294,2.50294,0,0,0,8,21.5h8A2.50263,2.50263,0,0,0,18.5,19V11a.49965.49965,0,0,0-.14648-.35352A6.289,6.289,0,0,1,16.5,6.17139V3a.5.5,0,0,0-1,0V5a3.5,3.5,0,0,1-7,0V3A.49971.49971,0,0,0,8,2.5Zm4,7a4.49654,4.49654,0,0,0,3.64551-1.86426A7.27219,7.27219,0,0,0,17.5,11.20312V19A1.50164,1.50164,0,0,1,16,20.5H8A1.50164,1.50164,0,0,1,6.5,19V11.20312A7.26807,7.26807,0,0,0,8.35449,7.63574,4.49654,4.49654,0,0,0,12,9.5Z"/></svg>