<svg id="Layer_1" data-name="Layer 1" xmlns="http://www.w3.org/2000/svg" viewBox="0 0 24 24"><path d="M17.17676,10.31738a1.22988,1.22988,0,0,0-.10059-1.75976L14.62988,6.41113A3.68217,3.68217,0,0,0,12.19238,5.5H11.75a.49971.49971,0,0,0-.5.5,1.75,1.75,0,0,1-3.5,0,.49971.49971,0,0,0-.5-.5H6.80762a3.68622,3.68622,0,0,0-2.4375.91016L1.92383,8.55762a1.22988,1.22988,0,0,0-.10059,1.75976l1.35254,1.48438A1.30974,1.30974,0,0,0,4.916,11.96l.17871-.13476V16.5a2.03417,2.03417,0,0,0,2.0625,2h4.68554a2.03417,2.03417,0,0,0,2.0625-2V11.8252L14.084,11.96a1.30774,1.30774,0,0,0,1.74122-.1582Zm-2.49121.84375-.9795-.73925a.5003.5003,0,0,0-.80078.39941V16.5a1.03356,1.03356,0,0,1-1.0625,1H7.15723a1.03356,1.03356,0,0,1-1.0625-1V10.82129a.5.5,0,0,0-.80078-.39941l-.9795.73925a.30028.30028,0,0,1-.39941-.0332L2.56348,9.64355a.223.223,0,0,1-.0625-.16894.231.231,0,0,1,.083-.165L5.03027,7.16113A2.68668,2.68668,0,0,1,6.7959,6.5a2.74992,2.74992,0,0,0,5.4082,0,2.68253,2.68253,0,0,1,1.76563.66211L16.416,9.30957a.231.231,0,0,1,.083.165.223.223,0,0,1-.0625.16894l-1.35058,1.48438A.30156.30156,0,0,1,14.68555,11.16113ZM19.5,3.207V20.793l2.14648-2.14649a.5.5,0,0,1,.707.707l-3,3a.49984.49984,0,0,1-.707,0l-3-3a.5.5,0,0,1,.707-.707L18.5,20.793V3.207L16.35352,5.35352a.5.5,0,0,1-.707-.707l3-3a.49983.49983,0,0,1,.707,0l3,3a.5.5,0,1,1-.707.707Z"/></svg>