<svg id="Layer_1" data-name="Layer 1" xmlns="http://www.w3.org/2000/svg" viewBox="0 0 24 24"><path d="M16.12793,8.501,9.01074,4.666a1.47563,1.47563,0,0,0-1.83789.39941A2.81929,2.81929,0,0,1,5,6.2666a2.383,2.383,0,0,1-1.21582-.33887A1.511,1.511,0,0,0,2.24805,5.9082,1.48869,1.48869,0,0,0,1.5,7.21875V17A2.50231,2.50231,0,0,0,4,19.5H20A2.50231,2.50231,0,0,0,22.5,17V15A6.42919,6.42919,0,0,0,16.12793,8.501ZM21.5,17A1.50164,1.50164,0,0,1,20,18.5H4A1.50164,1.50164,0,0,1,2.5,17V15.5h19Zm-19-2.5V7.21875a.49117.49117,0,0,1,.24512-.44238A.52089.52089,0,0,1,3.27734,6.79,3.36838,3.36838,0,0,0,5,7.2666a3.78036,3.78036,0,0,0,2.96-1.584.46751.46751,0,0,1,.584-.13184L15.7627,9.44043A.50312.50312,0,0,0,16,9.5a5.4351,5.4351,0,0,1,5.47852,5Z"/></svg>