<svg fill="#000000" xmlns="http://www.w3.org/2000/svg"  viewBox="0 0 48 48" width="24px" height="24px"><path d="M 24 3 C 12.913714 3 5 9.7342196 5 18.25 C 5 22.175653 6.0714936 25.870007 7.9238281 29 C 7.9809579 29.096465 8 29.179861 8 29.251953 L 8 33.5 C 8 36.519774 10.480226 39 13.5 39 L 14.423828 39 C 14.748534 39 15.003336 39.244253 15.001953 39.462891 C 14.982824 42.497613 17.469706 45 20.501953 45 L 27.220703 45 C 30.23 45 33.027346 42.666438 33 39.505859 A 1.50015 1.50015 0 0 0 33 39.503906 C 32.997322 39.205887 33.205535 39 33.501953 39 L 34.501953 39 C 37.521727 39 40.001953 36.519774 40.001953 33.5 L 40.001953 29.251953 C 40.001953 29.179863 40.020995 29.096465 40.078125 29 C 41.929291 25.870164 43 22.175653 43 18.25 C 43 9.7342196 35.086286 3 24 3 z M 24 6 C 33.913714 6 40 11.57778 40 18.25 C 40 21.629704 39.078377 24.794862 37.496094 27.470703 C 37.187224 27.992238 37.001953 28.606045 37.001953 29.251953 L 37.001953 33.5 C 37.001953 34.898226 35.900179 36 34.501953 36 L 33.501953 36 C 31.576372 36 29.984631 37.603316 30.001953 39.53125 C 30.012607 40.762671 28.603406 42 27.220703 42 L 20.501953 42 C 19.0982 42 17.991129 40.8897 18 39.482422 C 18.012617 37.48706 16.313123 36 14.423828 36 L 13.5 36 C 12.101774 36 11 34.898226 11 33.5 L 11 29.251953 C 11 28.606045 10.812776 27.992238 10.503906 27.470703 C 8.9210296 24.795156 8 21.629431 8 18.25 C 8 11.57778 14.086286 6 24 6 z M 18.5 26 A 3.5 3.5 0 1 0 18.5 33 A 3.5 3.5 0 1 0 18.5 26 z M 29.5 26 A 3.5 3.5 0 1 0 29.5 33 A 3.5 3.5 0 1 0 29.5 26 z M 24.007812 34 A 1.0001 1.0001 0 0 0 23.105469 34.552734 L 22.105469 36.552734 A 1.0001163 1.0001163 0 1 0 23.894531 37.447266 L 24 37.236328 L 24.105469 37.447266 A 1.0001163 1.0001163 0 1 0 25.894531 36.552734 L 24.894531 34.552734 A 1.0001 1.0001 0 0 0 24.007812 34 z"/></svg>