<svg id="Layer_1" data-name="Layer 1" xmlns="http://www.w3.org/2000/svg" viewBox="0 0 24 24"><path d="M20.49878,5V3a1.50164,1.50164,0,0,0-1.5-1.5h-12a1.50164,1.50164,0,0,0-1.5,1.5V5a1.50164,1.50164,0,0,0,1.5,1.5h12A1.50164,1.50164,0,0,0,20.49878,5Zm-14,0V3a.50034.50034,0,0,1,.5-.5h12a.50034.50034,0,0,1,.5.5V5a.50034.50034,0,0,1-.5.5h-12A.50034.50034,0,0,1,6.49878,5Zm-.68213,8.81787a4.50021,4.50021,0,0,0,6.36426,6.36426l4-4A4.473,4.473,0,0,0,17.49878,13V8h1v5a5.46613,5.46613,0,0,1-1.61084,3.88916l-4,4a5.5001,5.5001,0,0,1-7.77832-7.77832l2.38916-2.38916V8h1v2.92871a.49966.49966,0,0,1-.14649.35352Z"/></svg>