<svg id="Layer_1" data-name="Layer 1" xmlns="http://www.w3.org/2000/svg" viewBox="0 0 24 24"><path d="M2.91357,21.33594a4.5014,4.5014,0,0,0,6.20313-.15381l3.99951-3.99951A4.47168,4.47168,0,0,0,14.43457,14V4a2.50294,2.50294,0,0,0-2.5-2.5h-4a2.50294,2.50294,0,0,0-2.5,2.5v8.13623L2.90527,14.665a4.83127,4.83127,0,0,0-1.40381,3.52051A4.34436,4.34436,0,0,0,2.91357,21.33594ZM6.43457,4a1.50164,1.50164,0,0,1,1.5-1.5h4a1.50164,1.50164,0,0,1,1.5,1.5V5.5h-7ZM3.6123,15.37207l2.67579-2.67529a.49965.49965,0,0,0,.14648-.35352V6.5h7V14a3.47854,3.47854,0,0,1-1.02539,2.47559L8.40967,20.4751a3.58544,3.58544,0,0,1-4.82422.11963,3.35118,3.35118,0,0,1-1.084-2.4336A3.82563,3.82563,0,0,1,3.6123,15.37207ZM22.5,4V14a4.47168,4.47168,0,0,1-1.31836,3.18262l-3.99951,3.99951a4.48932,4.48932,0,0,1-6.14313.19879l.7124-.7124a3.58282,3.58282,0,0,0,4.7237-.19342l3.99951-3.99951A3.47854,3.47854,0,0,0,21.5,14V6.5H15.93457v-1H21.5V4A1.50164,1.50164,0,0,0,20,2.5H16a1.486,1.486,0,0,0-.34894.04517,3.97736,3.97736,0,0,0-.491-.88953A2.4699,2.4699,0,0,1,16,1.5h4A2.50294,2.50294,0,0,1,22.5,4Z"/></svg>