<svg fill="#000000" xmlns="http://www.w3.org/2000/svg"  viewBox="0 0 48 48" width="24px" height="24px"><path d="M 24 5 C 19.55281 5 15.834398 8.3711884 15.015625 12.634766 C 10.707863 12.095792 6.3528444 14.591031 4.9785156 18.820312 C 3.6200352 23.000824 5.507139 27.670987 9.2226562 29.802734 C 7.4710139 33.71069 8.6886373 38.596085 12.244141 41.179688 C 15.842016 43.794079 20.83138 43.253212 24 40.285156 C 27.16862 43.253212 32.157984 43.794079 35.755859 41.179688 C 39.353761 38.565275 40.381369 33.653333 38.537109 29.722656 C 42.338695 27.626313 44.395568 23.049915 43.021484 18.820312 C 41.86044 15.24738 38.570666 12.777589 34.980469 12.421875 C 34.369876 12.361378 33.75137 12.363336 33.132812 12.429688 C 32.253491 8.2372646 28.395848 5 24 5 z M 24 8 C 27.122287 8 30.032095 10.710988 30.296875 13.783203 L 24.576172 21.654297 C 25.160339 20.203569 26 18.033746 26 17.177734 C 26 15.975734 25.105 15 24 15 C 22.895 15 22 15.974734 22 17.177734 C 22 18.033746 22.839661 20.203569 23.423828 21.654297 L 17.761719 13.861328 C 17.989955 10.761991 20.85532 8 24 8 z M 13.828125 15.410156 C 14.335301 15.413833 14.839951 15.503102 15.335938 15.625 L 21.001953 23.421875 C 19.804264 22.419237 17.993351 20.946859 17.177734 20.681641 C 16.034734 20.309641 14.829281 20.859156 14.488281 21.910156 C 14.147281 22.961156 14.797406 24.112375 15.941406 24.484375 C 16.754881 24.748896 19.075793 24.622978 20.636719 24.515625 L 11.478516 27.492188 C 11.477969 27.491964 11.477109 27.492411 11.476562 27.492188 C 8.5999729 26.317187 6.8603222 22.736377 7.8320312 19.746094 C 8.5910399 17.410363 10.905643 15.715388 13.320312 15.4375 C 13.489695 15.418007 13.659066 15.408931 13.828125 15.410156 z M 34.171875 15.410156 C 34.340937 15.408931 34.510285 15.418003 34.679688 15.4375 C 37.094645 15.715442 39.409013 17.410527 40.167969 19.746094 C 41.140022 22.738196 39.400208 26.317823 36.521484 27.492188 L 27.363281 24.515625 C 28.924207 24.622978 31.245119 24.748896 32.058594 24.484375 C 33.201594 24.112375 33.852719 22.961156 33.511719 21.910156 C 33.169719 20.860156 31.966266 20.309641 30.822266 20.681641 C 30.006385 20.946231 28.195473 22.421139 26.998047 23.423828 L 32.664062 15.625 C 33.160053 15.50311 33.664688 15.413833 34.171875 15.410156 z M 21.564453 27.369141 C 20.238608 28.200038 18.285898 29.460516 17.783203 30.152344 C 17.076203 31.124344 17.227094 32.440844 18.121094 33.089844 C 19.015094 33.738844 20.312531 33.476906 21.019531 32.503906 C 21.522913 31.811134 22.12011 29.559558 22.5 28.042969 L 22.5 37.677734 C 20.493335 40.051542 16.552166 40.602758 14.007812 38.753906 C 11.463069 36.904771 10.767734 32.985378 12.40625 30.34375 L 19.794922 27.943359 L 21.564453 27.369141 z M 26.435547 27.369141 L 35.59375 30.34375 C 37.232266 32.985378 36.536932 36.904771 33.992188 38.753906 C 31.447834 40.602758 27.506665 40.051542 25.5 37.677734 L 25.5 28.042969 C 25.87989 29.559558 26.477087 31.811134 26.980469 32.503906 C 27.686469 33.476906 28.984906 33.739844 29.878906 33.089844 C 30.772906 32.440844 30.923797 31.125344 30.216797 30.152344 C 29.714102 29.460516 27.761392 28.200038 26.435547 27.369141 z"/></svg>