<svg fill="#000000" xmlns="http://www.w3.org/2000/svg"  viewBox="0 0 48 48" width="24px" height="24px"><path d="M 24 2.0058594 C 23.335 2.0058594 22.669453 2.2717344 22.189453 2.8027344 C 19.829453 5.4107344 16 11.000578 16 15.267578 C 16 19.042139 18.800068 22.179789 22.5 22.859375 L 22.5 26 L 17.541016 26 C 16.703016 26 15.873422 26.175625 15.107422 26.515625 L 8.3789062 29.945312 C 6.9329063 30.586313 6 32.020563 6 33.601562 L 6 40 C 6 42.209 7.791 44 10 44 L 38 44 C 40.209 44 42 42.209 42 40 L 42 33.583984 C 42 32.010984 41.078531 30.5845 39.644531 29.9375 L 33.085938 26.529297 C 32.310938 26.181297 31.469141 26 30.619141 26 L 25.5 26 L 25.5 22.859375 C 29.199932 22.179789 32 19.042139 32 15.267578 C 32 11.000578 28.170547 5.4107344 25.810547 2.8027344 C 25.330547 2.2727344 24.665 2.0058594 24 2.0058594 z M 24 5.2871094 C 26.203 7.8791094 29 12.370578 29 15.267578 C 29 17.877578 26.757 20 24 20 C 21.243 20 19 17.877578 19 15.267578 C 19 12.370578 21.797 7.8801094 24 5.2871094 z M 24 20 C 25.657 20 27 18.657 27 17 C 27 15.343 24 11 24 11 C 24 11 21 15.343 21 17 C 21 18.657 22.343 20 24 20 z M 17.541016 29 L 30.619141 29 C 31.024141 29 31.417062 29.079328 31.789062 29.236328 L 38.261719 32.599609 L 38.335938 32.638672 L 38.410156 32.671875 C 38.768156 32.833875 39 33.191984 39 33.583984 L 39 40 C 39 40.551 38.551 41 38 41 L 10 41 C 9.449 41 9 40.551 9 40 L 9 33.601562 C 9 33.206562 9.23275 32.8475 9.59375 32.6875 L 9.6679688 32.654297 L 9.7402344 32.617188 L 16.386719 29.230469 C 16.753719 29.078469 17.141016 29 17.541016 29 z"/></svg>