<svg fill="#000000" xmlns="http://www.w3.org/2000/svg"  viewBox="0 0 32 32" width="32px" height="32px"><path d="M 16 10 C 11.306223 10 8.6988071 11.361932 7.1484375 12.90625 C 6.3732527 13.678409 5.8616036 14.468613 5.453125 15.064453 C 5.0462631 15.657935 4.7389503 16.00439 4.5410156 16.109375 C 3.9201178 16.411783 3.4097323 16.529496 3.0722656 16.572266 C 2.730739 16.615546 2.6347656 16.595703 2.6347656 16.595703 L 0.71875 16.335938 L 1.6132812 18.048828 C 2.2563262 19.279051 3.2686962 20.29963 4.625 20.748047 C 5.9813038 21.196464 7.5992559 21.046963 9.3574219 20.248047 L 9.359375 20.248047 C 11.148791 19.430417 11.415045 19 16 19 C 20.584955 19 20.851212 19.430417 22.640625 20.248047 L 22.642578 20.248047 C 24.40078 21.046979 26.018578 21.196451 27.375 20.748047 C 28.731422 20.299643 29.744116 19.279319 30.386719 18.048828 L 31.28125 16.335938 L 29.365234 16.595703 C 29.365234 16.595703 29.269264 16.615556 28.927734 16.572266 C 28.590268 16.529496 28.079882 16.411783 27.458984 16.109375 C 27.261003 16.004393 26.953737 15.657935 26.546875 15.064453 C 26.138396 14.468613 25.626747 13.678409 24.851562 12.90625 C 23.301194 11.361932 20.693777 10 16 10 z M 16 12 C 20.326223 12 22.235823 13.125287 23.439453 14.324219 C 24.041268 14.923685 24.467713 15.569873 24.896484 16.195312 C 25.325256 16.820753 25.752934 17.476664 26.537109 17.886719 L 26.546875 17.892578 L 26.558594 17.896484 C 27.025243 18.126166 27.346082 18.15598 27.732422 18.261719 C 27.438341 18.520462 27.11668 18.727747 26.748047 18.849609 C 25.957098 19.11108 24.904405 19.077899 23.472656 18.427734 C 21.826034 17.67533 20.743045 17 16 17 C 11.256955 17 10.173931 17.675365 8.5273438 18.427734 C 7.0955591 19.077915 6.044724 19.111067 5.2539062 18.849609 C 4.885298 18.727741 4.5617555 18.520547 4.2675781 18.261719 C 4.653918 18.15598 4.9747571 18.126166 5.4414062 17.896484 L 5.453125 17.892578 L 5.4628906 17.886719 C 6.2470618 17.476699 6.6747443 16.820753 7.1035156 16.195312 C 7.532287 15.569872 7.9587317 14.923685 8.5605469 14.324219 C 9.7641773 13.125287 11.673777 12 16 12 z"/></svg>