<svg fill="#000000" xmlns="http://www.w3.org/2000/svg"  viewBox="0 0 48 48" width="24px" height="24px"><path d="M 17.515625 1.9785156 A 1.50015 1.50015 0 0 0 16.011719 3.3144531 C 16.011719 3.3144531 15.709321 5.5208781 16.294922 7.8632812 C 16.587722 9.0344829 17.111788 10.295382 18.126953 11.310547 C 18.77923 11.962824 19.697103 12.38563 20.716797 12.667969 C 20.405521 13.389215 20.111133 14.119066 19.882812 14.898438 C 18.109171 14.770765 16.828817 14.234878 15.896484 13.369141 C 14.844979 12.392743 14.13193 11.015687 13.683594 9.5585938 C 12.786921 6.6444079 12.996094 3.6152344 12.996094 3.6152344 A 1.5005253 1.5005253 0 1 0 10.003906 3.3847656 C 10.003906 3.3847656 9.713079 6.8555923 10.816406 10.441406 C 11.36807 12.234313 12.280021 14.107257 13.853516 15.568359 C 15.165678 16.786796 17.046683 17.519448 19.240234 17.777344 C 19.088296 18.822822 19 19.898221 19 21 L 19 27.263672 C 19 28.86591 18.58595 29.22974 18.138672 29.494141 C 17.691394 29.758541 16.927009 29.817663 16.386719 29.763672 A 1.50015 1.50015 0 0 0 16.384766 29.763672 C 15.572375 29.682772 14.637722 29.652193 13.65625 29.939453 C 11.78763 30.485901 10.273352 31.724503 9.3398438 33.398438 C 8.4063826 35.072372 8 37.132589 8 39.5 L 8 44.5 A 1.50015 1.50015 0 1 0 11 44.5 L 11 39.5 C 11 37.483411 11.363492 35.927191 11.958984 34.859375 C 12.554476 33.791559 13.326667 33.162864 14.498047 32.820312 A 1.50015 1.50015 0 0 0 14.5 32.820312 C 14.912528 32.699573 15.454281 32.684954 16.087891 32.748047 C 16.9686 32.836057 18.335091 32.861771 19.664062 32.076172 C 20.992988 31.290578 22 29.589434 22 27.263672 L 22 21 C 22 17.020759 23.208671 13.4454 25.072266 10.933594 C 26.93586 8.421787 29.370871 7 32 7 C 37.256527 7 42.403575 13.066 42.001953 20.923828 A 1.50015 1.50015 0 0 0 42 21.001953 C 42 22.328753 42.07516 26.003067 40.841797 29.802734 C 39.60843 33.602401 37.217407 37.347301 32.025391 39.078125 C 25.491944 41.255333 20.61433 38.075381 17.878906 36.263672 C 16.286117 35.207401 14 36.442195 14 38.349609 L 14 44.5 A 1.50015 1.50015 0 1 0 17 44.5 L 17 39.236328 C 20.022434 41.181283 25.722736 44.340446 32.974609 41.923828 C 39.166593 39.859652 42.274679 35.105099 43.695312 30.728516 C 45.101174 26.397439 45.000264 22.300656 44.998047 21.078125 L 44.998047 21.070312 C 45.46655 11.831599 39.44333 4 32 4 C 28.278129 4 24.962718 6.0482909 22.664062 9.1464844 C 22.481229 9.3929136 22.344632 9.6875513 22.173828 9.9472656 C 21.257393 9.8814407 20.675617 9.6170229 20.248047 9.1894531 C 19.763212 8.7046182 19.412278 7.965517 19.205078 7.1367188 C 18.790679 5.479122 18.988281 3.6855469 18.988281 3.6855469 A 1.50015 1.50015 0 0 0 17.515625 1.9785156 z"/></svg>