<svg fill="#000000" xmlns="http://www.w3.org/2000/svg"  viewBox="0 0 48 48" width="24px" height="24px"><path d="M 21.5 2 C 19.012195 2 16.73537 2.6779038 14.994141 3.875 C 13.252911 5.0720962 12 6.891647 12 9 C 12 11.108353 13.252911 12.927904 14.994141 14.125 C 15.238181 14.292778 15.495577 14.446806 15.759766 14.59375 C 15.298004 14.794937 14.847927 15.006879 14.427734 15.242188 C 11.881887 16.667862 10 18.843201 10 21.5 C 10 24.156799 11.881887 26.332137 14.427734 27.757812 C 14.627406 27.869629 14.841472 27.969997 15.050781 28.074219 C 13.581464 28.453655 12.21826 28.922489 11.001953 29.478516 C 9.2873251 30.262346 7.8439874 31.210127 6.7734375 32.367188 C 5.7028876 33.524247 5 34.952102 5 36.5 C 5 38.047898 5.7028876 39.475753 6.7734375 40.632812 C 7.8439874 41.789873 9.2873251 42.737654 11.001953 43.521484 C 14.431209 45.089146 18.982212 46 24 46 C 29.017788 46 33.568791 45.089146 36.998047 43.521484 C 38.712675 42.737654 40.156014 41.789873 41.226562 40.632812 C 42.297112 39.475753 43 38.047898 43 36.5 C 43 34.952102 42.297112 33.524247 41.226562 32.367188 C 40.156014 31.210128 38.712675 30.262346 36.998047 29.478516 C 35.78174 28.922489 34.418536 28.453655 32.949219 28.074219 C 33.158528 27.969997 33.372594 27.869629 33.572266 27.757812 C 36.118113 26.332137 38 24.156799 38 21.5 C 38 18.843201 36.118113 16.667862 33.572266 15.242188 C 32.191718 14.46908 30.570018 13.88178 28.792969 13.5 C 30.108923 12.334128 31 10.771849 31 9 C 31 6.891647 29.747089 5.0720962 28.005859 3.875 C 26.26463 2.6779038 23.987805 2 21.5 2 z M 21.5 5 C 23.430476 5 25.152442 5.554144 26.306641 6.3476562 C 27.460839 7.1411685 28 8.070787 28 9 C 28 9.929213 27.460839 10.858832 26.306641 11.652344 C 25.152442 12.445856 23.430476 13 21.5 13 C 19.569524 13 17.847558 12.445856 16.693359 11.652344 C 15.539161 10.858832 15 9.929213 15 9 C 15 8.070787 15.539161 7.1411685 16.693359 6.3476562 C 17.847558 5.554144 19.569524 5 21.5 5 z M 21.5 7 C 20.09918 7 18.79488 7.3361052 17.792969 7.875 A 1.50015 1.50015 0 1 0 19.212891 10.517578 C 19.50498 10.360473 20.74482 10 21.5 10 A 1.50015 1.50015 0 1 0 21.5 7 z M 24 16 C 27.224797 16 30.12721 16.751549 32.105469 17.859375 C 34.083728 18.967201 35 20.290806 35 21.5 C 35 22.709194 34.083728 24.032799 32.105469 25.140625 C 30.12721 26.248451 27.224797 27 24 27 C 20.775203 27 17.87279 26.248451 15.894531 25.140625 C 13.916272 24.032799 13 22.709194 13 21.5 C 13 20.290806 13.916272 18.967201 15.894531 17.859375 C 17.87279 16.751549 20.775203 16 24 16 z M 23.458984 18.007812 C 21.511743 18.060353 19.833175 18.395688 18.498047 18.833984 C 17.162919 19.27228 16.203784 19.754594 15.501953 20.378906 A 1.50015 1.50015 0 1 0 17.494141 22.621094 C 17.63431 22.496406 18.377472 22.030298 19.433594 21.683594 C 20.489716 21.33689 21.891304 21.050319 23.539062 21.005859 A 1.50015 1.50015 0 1 0 23.458984 18.007812 z M 24 30 C 28.647201 30 32.845508 30.879262 35.75 32.207031 C 37.202246 32.870916 38.322893 33.647143 39.023438 34.404297 C 39.723982 35.161451 40 35.83876 40 36.5 C 40 37.16124 39.723982 37.838549 39.023438 38.595703 C 38.322893 39.352857 37.202246 40.129084 35.75 40.792969 C 32.845508 42.120738 28.647201 43 24 43 C 19.352799 43 15.154492 42.120738 12.25 40.792969 C 10.797754 40.129084 9.6771065 39.352857 8.9765625 38.595703 C 8.2760185 37.838549 8 37.16124 8 36.5 C 8 35.83876 8.2760185 35.161451 8.9765625 34.404297 C 9.6771065 33.647143 10.797754 32.870916 12.25 32.207031 C 15.154492 30.879262 19.352799 30 24 30 z M 23.474609 32.003906 C 20.17501 32.051886 17.377302 32.540578 15.199219 33.177734 C 13.021135 33.814891 11.510752 34.52586 10.53125 35.355469 A 1.50015 1.50015 0 1 0 12.46875 37.644531 C 12.809248 37.35614 14.134302 36.614984 16.042969 36.056641 C 17.951635 35.498297 20.492131 35.047927 23.519531 35.003906 A 1.5001682 1.5001682 0 1 0 23.474609 32.003906 z"/></svg>