<svg fill="#000000" xmlns="http://www.w3.org/2000/svg"  viewBox="0 0 48 48" width="24px" height="24px"><path d="M 11.037109 4.0195312 C 10.395756 4.0188896 9.7552722 4.2567736 9.2734375 4.7265625 A 1.50015 1.50015 0 0 0 9.2578125 4.7402344 L 8.0507812 5.9511719 A 1.50015 1.50015 0 0 0 8.0507812 5.953125 C 5.4111959 8.6029266 5.4218278 12.937153 8.0742188 15.574219 L 18.841797 26.273438 C 19.81218 27.241689 21.411316 27.241074 22.380859 26.271484 L 26.25 22.402344 L 31.632812 27.777344 L 7.7636719 33.044922 C 5.3540522 33.576587 3.8062577 36.000683 4.3378906 38.410156 L 4.7695312 40.361328 C 5.3011964 42.770948 7.7233395 44.318742 10.132812 43.787109 L 40.267578 37.136719 C 40.46298 37.093605 40.642754 37.018158 40.826172 36.951172 L 42.939453 39.0625 A 1.5012216 1.5012216 0 1 0 45.060547 36.9375 L 43.150391 35.03125 C 43.716895 34.079664 43.948166 32.926324 43.693359 31.771484 L 43.261719 29.818359 C 42.86297 28.011145 41.400571 26.688882 39.677734 26.365234 C 39.103455 26.257352 38.500806 26.26162 37.898438 26.394531 L 35.111328 27.009766 L 12.800781 4.7402344 C 12.320219 4.259672 11.678463 4.0201729 11.037109 4.0195312 z M 11.03125 7.2128906 L 24.125 20.283203 L 20.607422 23.800781 L 10.189453 13.445312 C 8.6878437 11.95238 8.6813669 9.5705109 10.175781 8.0703125 L 11.03125 7.2128906 z M 38.851562 29.287109 C 39.556725 29.27129 40.172488 29.74176 40.332031 30.464844 L 40.763672 32.417969 C 40.946039 33.244495 40.447474 34.024696 39.621094 34.207031 L 9.4863281 40.857422 C 8.6598016 41.039789 7.8815535 40.541224 7.6992188 39.714844 L 7.2675781 37.763672 C 7.085211 36.937145 7.5837759 36.156944 8.4101562 35.974609 L 38.544922 29.324219 C 38.648238 29.301423 38.750825 29.289369 38.851562 29.287109 z"/></svg>