<svg id="Layer_1" data-name="Layer 1" xmlns="http://www.w3.org/2000/svg" viewBox="0 0 24 24"><path d="M15.99707,10.4209A1.50355,1.50355,0,0,0,17.5,8.919V5A2.50263,2.50263,0,0,0,15,2.5H9A2.50263,2.50263,0,0,0,6.5,5V8.919a1.49994,1.49994,0,0,0,2.437,1.17187L12,7.64062l3.06348,2.4502A1.49456,1.49456,0,0,0,15.99707,10.4209ZM8.3125,9.30957A.49979.49979,0,0,1,7.5,8.919V5a1.4849,1.4849,0,0,1,.22479-.77972L11.19928,7Zm.21716-5.72668A1.47909,1.47909,0,0,1,9,3.5h6a1.47909,1.47909,0,0,1,.47034.08289L12,6.35938Zm7.74555.63739A1.4849,1.4849,0,0,1,16.5,5V8.919a.49116.49116,0,0,1-.2832.45117.4862.4862,0,0,1-.52881-.06055L12.80078,7ZM13,12a1,1,0,1,1-1-1A1,1,0,0,1,13,12Zm0,5a1,1,0,1,1-1-1A1,1,0,0,1,13,17Zm8.5-8V19A2.50263,2.50263,0,0,1,19,21.5H5A2.50263,2.50263,0,0,1,2.5,19V9A2.50263,2.50263,0,0,1,5,6.5v1A1.50164,1.50164,0,0,0,3.5,9V19A1.50164,1.50164,0,0,0,5,20.5H19A1.50164,1.50164,0,0,0,20.5,19V9A1.50164,1.50164,0,0,0,19,7.5v-1A2.50263,2.50263,0,0,1,21.5,9Z"/></svg>