<svg id="Layer_1" data-name="Layer 1" xmlns="http://www.w3.org/2000/svg" viewBox="0 0 24 24"><path d="M15.06348,10.09082A1.49967,1.49967,0,0,0,17.5,8.919V5A2.50263,2.50263,0,0,0,15,2.5H9A2.50263,2.50263,0,0,0,6.5,5V8.919a1.49994,1.49994,0,0,0,2.437,1.17187l.80377-.643.72077.72077-.95178,4.73279a.50119.50119,0,0,0,.13671.45215l2,2a.49984.49984,0,0,0,.707,0l2-2a.49858.49858,0,0,0,.13671-.45215L13.536,10.171l.72333-.72333ZM9,3.5h6a1.47909,1.47909,0,0,1,.47034.08289L12,6.35938,8.52966,3.58289A1.47909,1.47909,0,0,1,9,3.5ZM8.3125,9.30957A.49979.49979,0,0,1,7.5,8.919V5a1.4849,1.4849,0,0,1,.22479-.77972L11.19928,7ZM12,16.293l-1.457-1.457.76794-3.818.33557.33558a.49984.49984,0,0,0,.707,0l.33355-.33356.77,3.816Zm0-6L10.52643,8.8194,12,7.64062l1.47369,1.17865ZM12.80078,7l3.47443-2.77972A1.4849,1.4849,0,0,1,16.5,5V8.919a.49952.49952,0,0,1-.812.39062ZM21.5,9V19A2.50263,2.50263,0,0,1,19,21.5H5A2.50263,2.50263,0,0,1,2.5,19V9A2.50263,2.50263,0,0,1,5,6.5v1A1.50164,1.50164,0,0,0,3.5,9V19A1.50164,1.50164,0,0,0,5,20.5H19A1.50164,1.50164,0,0,0,20.5,19V9A1.50164,1.50164,0,0,0,19,7.5v-1A2.50263,2.50263,0,0,1,21.5,9Z"/></svg>