<svg id="Layer_1" data-name="Layer 1" xmlns="http://www.w3.org/2000/svg" viewBox="0 0 24 24"><path d="M22.47852,13.85645,19.90625,5.28174A2.48426,2.48426,0,0,0,17.51172,3.5H16a.5.5,0,0,0,0,1h1.51172a1.492,1.492,0,0,1,1.4375,1.06885l2.30762,7.69256a12.32032,12.32032,0,0,0-6.76172.74005h-.001A1.49415,1.49415,0,0,0,13.5,15.41553v.42657a2.48865,2.48865,0,0,0-3-.00018v-.42639a1.49415,1.49415,0,0,0-.99414-1.41407h-.001a12.31944,12.31944,0,0,0-6.76165-.74023L5.05078,5.56885A1.492,1.492,0,0,1,6.48828,4.5H8a.5.5,0,0,0,0-1H6.48828A2.48426,2.48426,0,0,0,4.09375,5.28174L1.52148,13.85645a.47693.47693,0,0,0-.01013.10723c-.001.01313-.01135.023-.01135.03632v4A2.50263,2.50263,0,0,0,4,20.5H8A2.50263,2.50263,0,0,0,10.5,18v-.793l.43945-.43945a1.503,1.503,0,0,1,2.1211,0L13.5,17.207V18A2.50263,2.50263,0,0,0,16,20.5h4A2.50263,2.50263,0,0,0,22.5,18V14c0-.01331-.01031-.02319-.01135-.03632A.47693.47693,0,0,0,22.47852,13.85645Zm-16.55561.28942L2.5,17.56842V14.356A7.98188,7.98188,0,0,1,5.92291,14.14587ZM2.717,18.76538,7.127,14.356a18.71416,18.71416,0,0,1,2.00916.57678L4.56885,19.5H4A1.49543,1.49543,0,0,1,2.717,18.76538ZM9.5,18A1.50164,1.50164,0,0,1,8,19.5H5.98291L9.5,15.98291Zm5-2.58447a.49352.49352,0,0,1,.32324-.46973,16.67963,16.67963,0,0,1,3.07782-.77808L14.5,17.56842Zm.217,3.34985L19.429,14.05389A7.04918,7.04918,0,0,1,21.5,14.356v.21289L16.56836,19.5H16A1.49543,1.49543,0,0,1,14.717,18.76538ZM20,19.5H17.98248L21.5,15.98285V18A1.50164,1.50164,0,0,1,20,19.5Z"/></svg>