<svg id="Layer_1" data-name="Layer 1" xmlns="http://www.w3.org/2000/svg" viewBox="0 0 24 24"><path d="M6,20.5a4.494,4.494,0,0,0,4.47675-4.26971l.4627-.46271a1.503,1.503,0,0,1,2.1211,0l.4627.46271A4.49111,4.49111,0,0,0,22.5,16a4.44384,4.44384,0,0,0-.49689-2.01257.46959.46959,0,0,0-.00213-.048L19.86426,5.394A2.49728,2.49728,0,0,0,17.43848,3.5H16a.5.5,0,0,0,0,1h1.43848a1.49762,1.49762,0,0,1,1.45507,1.13623L20.562,12.309a4.47816,4.47816,0,0,0-6.92645,2.64374,2.48755,2.48755,0,0,0-3.27112.00006A4.47815,4.47815,0,0,0,3.438,12.309L5.10645,5.63623A1.49762,1.49762,0,0,1,6.56152,4.5H8a.5.5,0,0,0,0-1H6.56152A2.49728,2.49728,0,0,0,4.13574,5.394L1.999,13.93945a.46959.46959,0,0,0-.00213.048A4.44384,4.44384,0,0,0,1.5,16,4.50491,4.50491,0,0,0,6,20.5Zm12-1a3.4949,3.4949,0,0,1-.71735-.07526l4.14191-4.14264A3.49559,3.49559,0,0,1,18,19.5Zm3.02344-5.2309-4.75379,4.75464a3.5014,3.5014,0,0,1-1.29321-1.29315l4.75385-4.75433A3.50085,3.50085,0,0,1,21.02344,14.2691ZM18,12.5a3.49439,3.49439,0,0,1,.71729.07526l-4.142,4.14233A3.49582,3.49582,0,0,1,18,12.5Zm-12,7a3.49365,3.49365,0,0,1-.71765-.07532l4.14233-4.14233A3.49588,3.49588,0,0,1,6,19.5Zm3.02356-5.23059L4.26941,19.02356a3.50124,3.50124,0,0,1-1.293-1.293l4.75446-4.754A3.50142,3.50142,0,0,1,9.02356,14.26941ZM6,12.5a3.49737,3.49737,0,0,1,.718.07544L2.57538,16.71765A3.49562,3.49562,0,0,1,6,12.5Z"/></svg>