<svg fill="#000000" xmlns="http://www.w3.org/2000/svg"  viewBox="0 0 48 48" width="24px" height="24px"><path d="M 10.474609 1.9785156 A 1.50015 1.50015 0 0 0 8.9980469 3.5019531 L 9.0058594 8 L 4.4980469 8 A 1.50015 1.50015 0 1 0 4.4980469 11 L 9.84375 11 L 10.847656 12 L 8.4980469 12 A 1.50015 1.50015 0 1 0 8.4980469 15 L 13.857422 15 L 14.771484 15.910156 L 14.775391 15.916016 L 14.777344 15.916016 L 19.439453 20.5625 A 1.5005319 1.5005319 0 1 0 21.558594 18.4375 L 15.998047 12.896484 L 15.998047 7.5 A 1.50015 1.50015 0 1 0 12.998047 7.5 L 12.998047 9.9082031 L 12.007812 8.9199219 L 11.998047 3.4980469 A 1.50015 1.50015 0 0 0 10.474609 1.9785156 z M 20.0625 9.3417969 L 18.896484 9.8964844 L 18.59375 11.152344 L 19.378906 12.175781 L 20.0625 12.341797 L 21.226562 11.785156 L 21.529297 10.53125 L 20.744141 9.5058594 L 20.0625 9.3417969 z M 25.861328 9.5527344 L 24.695312 10.109375 L 24.392578 11.363281 L 25.177734 12.388672 L 25.861328 12.552734 L 27.025391 11.998047 L 27.328125 10.744141 L 26.544922 9.71875 L 25.861328 9.5527344 z M 29.527344 14.087891 L 28.363281 14.644531 L 28.060547 15.898438 L 28.84375 16.923828 L 29.527344 17.087891 L 30.693359 16.533203 L 30.996094 15.277344 L 30.210938 14.251953 L 29.527344 14.087891 z M 12.607422 18.333984 L 11.443359 18.890625 L 11.140625 20.144531 L 11.925781 21.169922 L 12.607422 21.333984 L 13.773438 20.779297 L 14.076172 19.525391 L 13.291016 18.5 L 12.607422 18.333984 z M 35.183594 19.412109 L 34.017578 19.96875 L 33.714844 21.222656 L 34.5 22.248047 L 35.183594 22.412109 L 36.347656 21.857422 L 36.650391 20.601562 L 35.865234 19.578125 L 35.183594 19.412109 z M 29.292969 19.484375 L 28.126953 20.041016 L 27.824219 21.294922 L 28.609375 22.320312 L 29.292969 22.484375 L 30.457031 21.929688 L 30.759766 20.673828 L 29.974609 19.650391 L 29.292969 19.484375 z M 39.4375 23.390625 L 38.273438 23.945312 L 37.970703 25.199219 L 38.755859 26.224609 L 39.4375 26.390625 L 40.603516 25.833984 L 40.90625 24.580078 L 40.121094 23.554688 L 39.4375 23.390625 z M 11.365234 24.175781 L 10.201172 24.732422 L 9.8984375 25.986328 L 10.681641 27.011719 L 11.365234 27.175781 L 12.53125 26.621094 L 12.833984 25.367188 L 12.048828 24.341797 L 11.365234 24.175781 z M 39.230469 29.193359 L 38.064453 29.748047 L 37.761719 31.001953 L 38.546875 32.027344 L 39.230469 32.193359 L 40.394531 31.636719 L 40.697266 30.382812 L 39.912109 29.357422 L 39.230469 29.193359 z M 11.480469 30.167969 L 10.314453 30.722656 L 10.011719 31.978516 L 10.796875 33.003906 L 11.480469 33.167969 L 12.644531 32.611328 L 12.947266 31.357422 L 12.162109 30.332031 L 11.480469 30.167969 z M 34.501953 32.792969 A 1.50015 1.50015 0 0 0 33.425781 35.355469 L 39.904297 42 L 36.490234 42 A 1.50015 1.50015 0 1 0 36.490234 45 L 43.498047 45 A 1.50015 1.50015 0 0 0 44.998047 43.5 L 44.998047 36.5 A 1.50015 1.50015 0 1 0 41.998047 36.5 L 41.998047 39.851562 L 35.572266 33.261719 A 1.50015 1.50015 0 0 0 34.501953 32.792969 z M 12.375 36.097656 L 11.210938 36.652344 L 10.908203 37.908203 L 11.691406 38.933594 L 12.375 39.097656 L 13.541016 38.542969 L 13.84375 37.287109 L 13.058594 36.261719 L 12.375 36.097656 z M 29.951172 36.341797 L 28.787109 36.896484 L 28.484375 38.152344 L 29.269531 39.177734 L 29.951172 39.341797 L 31.117188 38.787109 L 31.419922 37.53125 L 30.634766 36.505859 L 29.951172 36.341797 z M 18.091797 37.240234 L 16.927734 37.794922 L 16.625 39.050781 L 17.408203 40.074219 L 18.091797 40.240234 L 19.257812 39.683594 L 19.560547 38.429688 L 18.775391 37.404297 L 18.091797 37.240234 z M 24.082031 37.445312 L 22.916016 38 L 22.613281 39.255859 L 23.398438 40.28125 L 24.082031 40.445312 L 25.246094 39.890625 L 25.548828 38.634766 L 24.763672 37.609375 L 24.082031 37.445312 z"/></svg>