<svg fill="#000000" xmlns="http://www.w3.org/2000/svg"  viewBox="0 0 48 48" width="24px" height="24px"><path d="M 36.984375 3.984375 A 1.50015 1.50015 0 0 0 35.939453 6.5605469 L 39.716797 10.337891 C 40.094899 10.715993 40.094899 11.282054 39.716797 11.660156 L 36.759766 14.619141 L 28.570312 6.4296875 A 1.50015 1.50015 0 0 0 27.494141 5.9746094 A 1.50015 1.50015 0 0 0 26.449219 8.5507812 L 35.490234 17.591797 A 1.50015 1.50015 0 0 0 35.912109 18.013672 A 1.50015 1.50015 0 0 0 35.919922 18.019531 L 38.025391 20.126953 C 39.343152 21.444714 39.343152 23.535754 38.025391 24.853516 L 29.863281 33.015625 C 28.54552 34.333386 26.45448 34.333386 25.136719 33.015625 L 13.560547 21.439453 A 1.50015 1.50015 0 1 0 11.439453 23.560547 L 13.689453 25.810547 L 7.5859375 31.914062 C 6.8161866 32.683813 6.8186346 33.970963 7.5839844 34.740234 L 7.5859375 34.742188 L 8.9648438 36.121094 L 6.2929688 38.792969 C 6.2309687 38.855969 6.1768125 38.926906 6.1328125 39.003906 L 4.1328125 42.503906 C 3.9088125 42.895906 3.9739687 43.388031 4.2929688 43.707031 C 4.4849688 43.900031 4.741 44 5 44 C 5.17 44 5.3410938 43.956187 5.4960938 43.867188 L 8.9960938 41.867188 C 9.0730937 41.823188 9.1440312 41.770031 9.2070312 41.707031 L 11.878906 39.035156 L 13.259766 40.416016 L 13.261719 40.417969 C 13.746956 40.899369 14.352238 41 14.673828 41 C 14.995418 41 15.5987 40.899462 16.083984 40.417969 L 16.099609 40.402344 L 22.027344 34.148438 L 23.015625 35.136719 C 25.479864 37.600958 29.520136 37.600958 31.984375 35.136719 L 40.146484 26.974609 C 42.610723 24.510371 42.610723 20.470098 40.146484 18.005859 L 38.880859 16.740234 L 41.837891 13.78125 C 43.361788 12.257352 43.361788 9.7406946 41.837891 8.2167969 L 38.060547 4.4394531 A 1.50015 1.50015 0 0 0 36.984375 3.984375 z M 25.5 12.5 C 25.11625 12.5 24.732453 12.646453 24.439453 12.939453 L 17.939453 19.439453 C 17.353453 20.024453 17.353453 20.975547 17.939453 21.560547 L 19.939453 23.560547 C 20.231453 23.854547 20.616 24 21 24 C 21.384 24 21.767547 23.853547 22.060547 23.560547 L 28.560547 17.060547 C 29.145547 16.474547 29.145547 15.525453 28.560547 14.939453 L 26.560547 12.939453 C 26.267547 12.646453 25.88375 12.5 25.5 12.5 z M 32 19 C 31.61625 19 31.232453 19.146453 30.939453 19.439453 L 24.439453 25.939453 C 23.853453 26.524453 23.853453 27.475547 24.439453 28.060547 L 26.439453 30.060547 C 26.732453 30.353547 27.117953 30.498047 27.501953 30.498047 C 27.885953 30.498047 28.2695 30.353547 28.5625 30.060547 L 35.0625 23.560547 C 35.6465 22.975547 35.645547 22.025453 35.060547 21.439453 L 33.060547 19.439453 C 32.767547 19.146453 32.38375 19 32 19 z M 15.810547 27.931641 L 19.908203 32.029297 L 14.654297 37.568359 L 10.414062 33.328125 L 15.810547 27.931641 z"/></svg>