<svg id="Layer_1" data-name="Layer 1" xmlns="http://www.w3.org/2000/svg" viewBox="0 0 24 24"><path d="M16.49121,17.90625,14.345,6.638l2.904-3.40851a1.03239,1.03239,0,0,0,.15332-1.11426A1.05235,1.05235,0,0,0,16.43457,1.5H7.56543a1.05235,1.05235,0,0,0-.96777.61523A1.03239,1.03239,0,0,0,6.751,3.22949L9.65521,6.63831,7.50879,17.90625a.499.499,0,0,0,.13769.44727l4,4a.49984.49984,0,0,0,.707,0l4-4A.499.499,0,0,0,16.49121,17.90625ZM16.43457,2.5l.05273.081-4.002,4.69727a.66073.66073,0,0,1-.9707,0L7.56543,2.5ZM12,21.293,8.541,17.834,10.4873,7.615l.26563.31177a1.64311,1.64311,0,0,0,2.49414,0l.26587-.31207L15.459,17.834Z"/></svg>