<svg id="Layer_1" data-name="Layer 1" xmlns="http://www.w3.org/2000/svg" viewBox="0 0 24 24"><path d="M20,2.5H4A2.50263,2.50263,0,0,0,1.5,5v5.02832a2.48273,2.48273,0,0,0,.92822,1.94336c1.63135,1.31836,5.5542,4.69531,6.7417,7.582a2.996,2.996,0,0,0,2.81494,1.94336,3.04991,3.04991,0,0,0,2.82959-1.9043c1.167-2.89453,5.11914-6.29687,6.7627-7.625A2.4761,2.4761,0,0,0,22.5,10.02832V5A2.50231,2.50231,0,0,0,20,2.5ZM4,3.5H20A1.50164,1.50164,0,0,1,21.5,5V6.5H2.5V5A1.50164,1.50164,0,0,1,4,3.5ZM2.5,10.02832V7.5H7.461a5.51885,5.51885,0,0,1-3.3595,4.56659c-.39892-.3432-.75824-.64117-1.04535-.87323A1.487,1.487,0,0,1,2.5,10.02832Zm11.38672,9.19043A2.02719,2.02719,0,0,1,11.439,20.42383a2.09742,2.09742,0,0,1-1.34423-1.251c-.92011-2.23614-3.293-4.68316-5.18018-6.38867A6.51809,6.51809,0,0,0,8.461,7.5h7.0766a6.42629,6.42629,0,0,0,3.54693,5.285C17.18323,14.503,14.79327,16.9704,13.88672,19.21875Zm7.0625-8.0293c-.28919.23358-.65112.53351-1.05267.87891A5.44752,5.44752,0,0,1,16.5376,7.5H21.5v2.52832A1.48042,1.48042,0,0,1,20.94922,11.18945Z"/></svg>