<svg fill="#000000" xmlns="http://www.w3.org/2000/svg"  viewBox="0 0 48 48" width="24px" height="24px"><path d="M 24 6 C 21.305556 6 19.308095 7.2370804 17.904297 8.3066406 C 17.202398 8.8414207 16.620312 9.3393684 16.181641 9.6445312 C 15.742969 9.9496942 15.5 10 15.5 10 C 15.062366 10 14.812489 9.931166 14.513672 9.7460938 C 14.507174 9.7414705 14.502623 9.7350658 14.496094 9.7304688 A 1.50015 1.50015 0 0 0 14.341797 9.6347656 C 14.246521 9.5667971 14.151027 9.4954624 14.033203 9.4023438 C 13.440865 8.9342073 12.629252 8.1050879 11.388672 7.1914062 C 9.3183305 5.6670313 6.7114457 5.7228843 4.8027344 6.8398438 C 2.8940231 7.9568032 1.6139707 10.311584 2.2441406 12.859375 C 2.6407351 14.46354 3.7016249 15.642296 4.8945312 16.25 C 6.0422819 16.8347 7.2599513 16.985283 8.3671875 16.996094 A 2.5 2.5 0 0 0 8.5 17 A 2.5 2.5 0 0 0 8.5 12 A 2.5 2.5 0 0 0 6.1933594 13.539062 C 5.6769687 13.263479 5.3531687 12.937132 5.15625 12.140625 C 4.8334199 10.835416 5.3756176 9.9782749 6.3164062 9.4277344 C 7.257195 8.8771939 8.5266694 8.8087968 9.6113281 9.6074219 C 10.647748 10.37074 11.335416 11.093246 12.173828 11.755859 C 12.310971 11.864246 12.468546 11.964549 12.621094 12.066406 A 1.50015 1.50015 0 0 0 12.769531 12.183594 C 14.343688 13.29186 15.461665 15.358749 16.125 17.583984 C 16.788335 19.80922 17 22.146667 17 23.5 C 17 23.961638 17.14037 24.312242 17.214844 24.716797 C 17.214844 24.716797 17.214844 24.71875 17.214844 24.71875 A 1.50015 1.50015 0 0 0 17.058594 25.087891 C 15.9316 29.032369 16.786643 32.856024 17.826172 35.974609 C 18.345936 37.533902 18.918631 38.933438 19.341797 40.082031 C 19.764963 41.230577 20 42.166667 20 42.5 A 1.50015 1.50015 0 1 0 23 42.5 C 23 41.333333 22.610037 40.269376 22.158203 39.042969 C 21.706369 37.816562 21.154064 36.466098 20.673828 35.025391 C 19.983921 32.95567 19.67796 30.735691 19.759766 28.515625 C 20.336995 28.811496 20.931838 29 21.5 29 C 22.580732 29 23.374717 28.53353 24 28.005859 C 24.625283 28.53353 25.419268 29 26.5 29 C 27.068162 29 27.663005 28.811496 28.240234 28.515625 C 28.322044 30.735691 28.016079 32.95567 27.326172 35.025391 C 26.845936 36.466098 26.293631 37.816562 25.841797 39.042969 C 25.389963 40.269376 25 41.333333 25 42.5 A 1.50015 1.50015 0 1 0 28 42.5 C 28 42.166667 28.235037 41.230624 28.658203 40.082031 C 29.081369 38.933438 29.654064 37.533902 30.173828 35.974609 C 31.213357 32.856024 32.0684 29.032369 30.941406 25.087891 A 1.50015 1.50015 0 0 0 30.785156 24.720703 C 30.860075 24.315068 31 23.963075 31 23.5 C 31 22.146667 31.211665 19.80922 31.875 17.583984 C 32.538335 15.358749 33.656312 13.29186 35.230469 12.183594 A 1.50015 1.50015 0 0 0 35.380859 12.064453 C 35.532571 11.963061 35.689714 11.863705 35.826172 11.755859 C 36.664584 11.093246 37.352252 10.37074 38.388672 9.6074219 C 39.473331 8.8087968 40.742805 8.8771939 41.683594 9.4277344 C 42.624382 9.9782749 43.16658 10.835416 42.84375 12.140625 C 42.646635 12.937923 42.321984 13.263309 41.804688 13.539062 A 2.5 2.5 0 0 0 39.5 12 A 2.5 2.5 0 0 0 39.5 17 C 40.64125 17 41.912562 16.857704 43.105469 16.25 C 44.298375 15.642296 45.359265 14.46354 45.755859 12.859375 C 46.386029 10.311584 45.105977 7.9568031 43.197266 6.8398438 C 41.288554 5.7228842 38.681669 5.6670313 36.611328 7.1914062 C 35.370748 8.1050879 34.559135 8.9342073 33.966797 9.4023438 C 33.846828 9.4971572 33.749052 9.5699013 33.652344 9.6386719 A 1.50015 1.50015 0 0 0 33.503906 9.7304688 C 33.497377 9.7350658 33.492826 9.7414705 33.486328 9.7460938 C 33.187511 9.931166 32.937634 10 32.5 10 C 32.5 10 32.257031 9.9496942 31.818359 9.6445312 C 31.379688 9.3393685 30.797602 8.8414207 30.095703 8.3066406 C 28.691905 7.2370804 26.694444 6 24 6 z M 24 9 C 25.805556 9 27.058095 9.76292 28.279297 10.693359 C 28.663238 10.985886 29.03755 11.287667 29.417969 11.585938 C 28.120098 12.124474 25.767161 13 24 13 C 22.232839 13 19.879902 12.124474 18.582031 11.585938 C 18.96245 11.287667 19.336762 10.985886 19.720703 10.693359 C 20.941905 9.76292 22.194444 9 24 9 z M 18.380859 15.277344 C 19.78926 15.542258 20.85342 15.974962 21.416016 16.5625 C 22.215091 17.397001 22.5 18.487851 22.5 19.5 L 22.5 25.222656 C 22.47968 25.283546 22.44987 25.400821 22.300781 25.599609 C 22.117781 25.843609 22 26 21.5 26 C 21.276454 26 20 25.872667 20 23.5 C 20 21.853333 19.773415 19.32303 19 16.728516 C 18.853706 16.237756 18.56975 15.768386 18.380859 15.277344 z M 29.619141 15.277344 C 29.43025 15.768386 29.146294 16.237756 29 16.728516 C 28.226585 19.32303 28 21.853333 28 23.5 C 28 25.872667 26.723546 26 26.5 26 C 26 26 25.882219 25.843609 25.699219 25.599609 C 25.550128 25.400821 25.520317 25.283548 25.5 25.222656 L 25.5 19.5 C 25.5 18.487851 25.784909 17.397001 26.583984 16.5625 C 27.14658 15.974962 28.21074 15.542258 29.619141 15.277344 z"/></svg>