<svg fill="#000000" xmlns="http://www.w3.org/2000/svg"  viewBox="0 0 48 48" width="24px" height="24px"><path d="M 23.976562 3.9785156 A 1.50015 1.50015 0 0 0 22.498047 5.5 L 22.498047 23.5 A 1.50015 1.50015 0 1 0 25.498047 23.5 L 25.498047 5.5 A 1.50015 1.50015 0 0 0 23.976562 3.9785156 z M 7.5058594 3.9804688 A 1.50015 1.50015 0 0 0 6.1035156 6.0488281 C 8.7857398 12.864237 9.9224657 18.492973 10.431641 23.679688 C 5.6249363 30.80783 2.9571897 36.922683 2.9980469 44.507812 A 1.50015 1.50015 0 1 0 5.9980469 44.492188 C 5.9822534 41.560127 6.3884921 38.911661 7.2109375 36.306641 A 1.50015 1.50015 0 0 0 7.7167969 36.388672 C 14.343797 36.388672 19.866553 38.664535 22.621094 45.091797 A 1.50015 1.50015 0 0 0 25.376953 45.091797 C 26.775532 41.828445 28.611799 39.770439 31.019531 38.4375 C 33.427263 37.104561 36.494141 36.5 40.337891 36.5 A 1.50015 1.50015 0 0 0 40.820312 36.425781 C 41.617393 38.992615 42.0136 41.604681 41.998047 44.492188 A 1.50015 1.50015 0 1 0 44.998047 44.507812 C 45.038905 36.922557 42.372141 30.807712 37.566406 23.679688 C 38.074661 18.49317 39.211381 12.864164 41.894531 6.0488281 A 1.50015 1.50015 0 0 0 40.447266 3.9804688 A 1.50015 1.50015 0 0 0 39.103516 4.9511719 C 36.243665 12.215334 35.012711 18.320617 34.505859 23.863281 A 1.50015 1.50015 0 0 0 34.761719 24.847656 C 35.507631 25.937454 36.17509 26.978285 36.804688 28 L 11.193359 28 C 11.823097 26.978298 12.490278 25.937436 13.236328 24.847656 A 1.50015 1.50015 0 0 0 13.492188 23.863281 C 12.984332 18.320823 11.753334 12.215259 8.8945312 4.9511719 A 1.50015 1.50015 0 0 0 7.5058594 3.9804688 z M 9.4824219 31 L 38.515625 31 C 38.959023 31.843847 39.386569 32.684132 39.744141 33.511719 C 35.840053 33.57202 32.431908 34.226136 29.566406 35.8125 C 27.31041 37.061437 25.569987 39.080299 24.097656 41.488281 C 20.600629 35.884882 14.610871 33.538313 8.3007812 33.402344 C 8.6463879 32.610611 9.0583204 31.806905 9.4824219 31 z"/></svg>