<svg fill="#000000" xmlns="http://www.w3.org/2000/svg"  viewBox="0 0 32 32" width="32px" height="32px"><path d="M 16 8 C 11.993965 8 8.5258713 9.0706814 6.0195312 10.998047 C 3.5131912 12.925412 2 15.750341 2 18.996094 C 2 21.01141 2.3574761 22.593123 3.2480469 23.800781 L 3.2480469 23.802734 C 3.7658848 24.502882 4.5404479 25 5.4257812 25 L 5.4335938 25 L 5.4375 25 C 6.1992018 24.9947 6.908075 24.578659 7.3457031 23.974609 L 7.3457031 23.972656 C 8.4338901 22.4628 9.1406989 21.809984 10.064453 21.447266 C 10.988207 21.084547 12.315434 21 14.556641 21 C 15.141331 21 15.610705 20.757302 16 20.458984 C 16.38919 20.75723 16.858822 21 17.443359 21 C 19.68464 21 21.010737 21.08486 21.933594 21.447266 C 22.856451 21.809667 23.562109 22.460671 24.650391 23.970703 L 24.650391 23.972656 L 24.652344 23.972656 C 25.089854 24.578084 25.797405 24.994481 26.560547 24.998047 L 26.564453 24.998047 L 26.572266 24.998047 C 27.456877 24.998047 28.228944 24.502696 28.746094 23.802734 C 29.641544 22.5959 30 21.012348 30 18.996094 C 30 15.750341 28.486809 12.925412 25.980469 10.998047 C 23.474129 9.0706814 20.006035 8 16 8 z M 16 10 C 19.647965 10 22.679606 10.98435 24.759766 12.583984 C 26.839926 14.183619 28 16.355846 28 18.996094 C 28 20.777839 27.689146 21.872116 27.140625 22.611328 L 27.138672 22.613281 C 26.913826 22.918127 26.688701 22.998047 26.572266 22.998047 L 26.570312 22.998047 C 26.477452 22.997613 26.403926 22.981357 26.273438 22.800781 C 25.099213 21.171553 24.054316 20.131882 22.664062 19.585938 C 21.273419 19.039839 19.721079 19 17.443359 19 C 17.20552 19 17.192486 18.953678 17.117188 18.853516 C 17.041889 18.753353 17 18.52628 17 18.574219 L 17 17 L 15 17 L 15 18.574219 C 15 18.527029 14.95985 18.753589 14.884766 18.853516 C 14.809685 18.953442 14.79526 19 14.556641 19 C 12.278847 19 10.72523 19.039656 9.3339844 19.585938 C 7.9431282 20.132065 6.8990192 21.17147 5.7246094 22.800781 C 5.5948259 22.979919 5.5194958 22.999182 5.4257812 23 C 5.3111146 23 5.083584 22.919086 4.8574219 22.613281 C 4.3105781 21.870962 4 20.775757 4 18.996094 C 4 16.355846 5.1600744 14.183619 7.2402344 12.583984 C 9.3203943 10.98435 12.352035 10 16 10 z"/></svg>