<svg fill="#000000" xmlns="http://www.w3.org/2000/svg"  viewBox="0 0 32 32" width="32px" height="32px"><path d="M 24.820312 9.1816406 L 22.017578 12.445312 L 19.664062 9.5800781 L 16.003906 12.685547 L 12.378906 9.5800781 L 10 12.4375 L 7.2890625 9.1855469 L 5.6113281 12.539062 L 1.484375 9.7871094 L 4.53125 23.503906 L 7.2167969 19.476562 L 9.4824219 21.34375 L 11.931641 19.345703 L 13.941406 21.355469 L 16 19.626953 L 18.058594 21.355469 L 20.068359 19.345703 L 22.517578 21.34375 L 24.783203 19.476562 L 27.46875 23.503906 L 30.515625 9.7871094 L 26.408203 12.525391 L 24.820312 9.1816406 z M 12.619141 12.419922 L 15.996094 15.314453 L 19.408203 12.419922 L 21.982422 15.554688 L 24.333984 12.818359 L 25.591797 15.474609 L 27.484375 14.212891 L 26.53125 18.494141 L 25.21875 16.523438 L 22.509766 18.755859 L 19.931641 16.654297 L 17.941406 18.644531 L 16 17.017578 L 15.357422 17.556641 L 14.058594 18.644531 L 12.068359 16.654297 L 9.4902344 18.755859 L 6.78125 16.523438 L 5.46875 18.494141 L 4.515625 14.212891 L 6.3886719 15.460938 L 7.7109375 12.814453 L 10 15.5625 L 12.619141 12.419922 z"/></svg>