<svg id="Layer_1" data-name="Layer 1" xmlns="http://www.w3.org/2000/svg" viewBox="0 0 24 24"><path d="M5.5,7v8A2.50263,2.50263,0,0,0,8,17.5h8A2.50263,2.50263,0,0,0,18.5,15V7A2.50263,2.50263,0,0,0,16,4.5H8A2.50263,2.50263,0,0,0,5.5,7Zm1,0A1.50164,1.50164,0,0,1,8,5.5h8A1.50164,1.50164,0,0,1,17.5,7v8A1.50164,1.50164,0,0,1,16,16.5H8A1.50164,1.50164,0,0,1,6.5,15Zm2,4a.49971.49971,0,0,1,.5-.5h2a.5.5,0,0,1,0,1H9A.49971.49971,0,0,1,8.5,11Zm4,0a.49971.49971,0,0,1,.5-.5h2a.5.5,0,0,1,0,1H13A.49971.49971,0,0,1,12.5,11Zm-4,8v1A1.50164,1.50164,0,0,0,10,21.5h4A1.50164,1.50164,0,0,0,15.5,20V19H16a3.9272,3.9272,0,0,0,.5-.05054V20A2.50263,2.50263,0,0,1,14,22.5H10A2.50263,2.50263,0,0,1,7.5,20V18.94946A3.9272,3.9272,0,0,0,8,19ZM8,3c-.10419,0-.202.02289-.3042.03076A2.50341,2.50341,0,0,1,10,1.5h4a2.50341,2.50341,0,0,1,2.3042,1.53076C16.202,3.02289,16.10419,3,16,3h-.89014A1.491,1.491,0,0,0,14,2.5H10A1.491,1.491,0,0,0,8.89014,3Z"/></svg>