<svg id="Layer_1" data-name="Layer 1" xmlns="http://www.w3.org/2000/svg" viewBox="0 0 24 24"><path d="M5.5,11A6.5,6.5,0,1,0,12,4.5,6.50753,6.50753,0,0,0,5.5,11ZM12,5.5A5.5,5.5,0,1,1,6.5,11,5.50654,5.50654,0,0,1,12,5.5ZM9.584,8.27734a.5.5,0,1,1,.832-.55468L12.26758,10.5H14a.5.5,0,0,1,0,1H12a.50135.50135,0,0,1-.416-.22266ZM8.5,18.18262V20A1.50164,1.50164,0,0,0,10,21.5h4A1.50164,1.50164,0,0,0,15.5,20V18.18262a7.99318,7.99318,0,0,0,1-.57343V20A2.50263,2.50263,0,0,1,14,22.5H10A2.50263,2.50263,0,0,1,7.5,20V17.60919A7.99318,7.99318,0,0,0,8.5,18.18262ZM8.51941,3.808A8.00622,8.00622,0,0,0,7.5,4.39081V4A2.50263,2.50263,0,0,1,10,1.5h4A2.50263,2.50263,0,0,1,16.5,4v.39081A8.00622,8.00622,0,0,0,15.48059,3.808,1.497,1.497,0,0,0,14,2.5H10A1.497,1.497,0,0,0,8.51941,3.808Z"/></svg>