<svg fill="#000000" xmlns="http://www.w3.org/2000/svg"  viewBox="0 0 48 48" width="24px" height="24px"><path d="M 24 2 C 14.671743 2 7.5374413 9.3501162 7.046875 18.5 L 7 18.5 L 7 19.5 L 7 31.5 C 7 32.784668 6.7166999 33.750606 6.3613281 34.279297 C 6.0059563 34.807988 5.6968364 35 4.9960938 35 C 4.2621221 35 3.7658425 34.822433 3.4511719 34.664062 C 3.1365012 34.505693 3.0996094 34.447266 3.0996094 34.447266 A 1.50015 1.50015 0 0 0 0.94140625 34.480469 C 0.94140625 34.480469 0.7428806 34.718701 0.63671875 34.912109 C 0.5305569 35.105521 0.42595367 35.351544 0.33203125 35.664062 C 0.1441864 36.289102 0 37.178802 0 38.5 C 0 40.529058 0.78605767 42.472084 2.2851562 43.847656 C 3.784255 45.223229 5.9367936 46 8.5 46 C 10.45875 46 12.54699 45.421255 14.208984 44.021484 C 15.870978 42.621714 17 40.3686 17 37.5 L 17 21.912109 C 17.708251 21.851419 18.514367 21.769395 19.541016 21.476562 C 21.566532 20.898824 24.19657 19.452849 26.939453 17.148438 C 28.247321 19.852618 29.905677 20.890672 31 21.353516 L 31 37.5 C 31 40.3686 32.129022 42.621714 33.791016 44.021484 C 35.45301 45.421255 37.54125 46 39.5 46 C 42.063206 46 44.215745 45.223229 45.714844 43.847656 C 47.213942 42.472084 48 40.529058 48 38.5 C 48 37.178802 47.855814 36.289102 47.667969 35.664062 C 47.574049 35.351543 47.469443 35.105518 47.363281 34.912109 C 47.257119 34.718701 47.058594 34.480469 47.058594 34.480469 A 1.50015 1.50015 0 0 0 44.900391 34.447266 C 44.900391 34.447266 44.863501 34.505696 44.548828 34.664062 C 44.234157 34.82243 43.737878 35 43.003906 35 C 42.303163 35 42.060242 34.863972 41.6875 34.230469 C 41.314758 33.596965 41 32.336034 41 30.5 L 41 21 L 41 20 L 40.986328 20 C 40.95685 17.419056 40.778215 14.748549 39.755859 12.339844 C 38.670384 9.7824253 36.426215 7.6699729 32.939453 6.7402344 C 32.166709 5.2257125 30.957571 4.0266901 29.501953 3.2871094 C 27.779015 2.4117067 25.830536 2 24 2 z M 24 5 C 25.360464 5 26.913267 5.3382933 28.142578 5.9628906 C 29.37189 6.5874879 30.233132 7.4454883 30.576172 8.4746094 A 1.50015 1.50015 0 0 0 31.691406 9.4667969 C 34.805733 10.123663 36.148044 11.520238 36.994141 13.513672 C 37.840237 15.507106 38 18.20876 38 21 L 38 30.5 C 38 32.641966 38.294304 34.379956 39.101562 35.751953 C 39.908822 37.12395 41.418649 38 43.003906 38 C 43.816527 38 44.324925 37.758425 44.902344 37.568359 C 44.940071 37.883928 45 37.980543 45 38.5 C 45 39.784942 44.552948 40.840791 43.685547 41.636719 C 42.818146 42.432646 41.470794 43 39.5 43 C 38.14475 43 36.732162 42.578745 35.722656 41.728516 C 34.71315 40.878286 34 39.6314 34 37.5 L 34 20.5 A 1.50015 1.50015 0 0 0 32.863281 19.044922 C 32.863281 19.044922 29.817381 18.44506 29.017578 14.486328 A 1.50015 1.50015 0 0 0 27.503906 13.283203 A 1.50015 1.50015 0 0 0 26.486328 13.722656 C 23.470664 16.73832 20.703715 18.025625 18.71875 18.591797 C 16.733785 19.157969 15.675781 19.009766 15.675781 19.009766 A 1.50015 1.50015 0 0 0 14 20.5 L 14 37.5 C 14 39.6314 13.28685 40.878286 12.277344 41.728516 C 11.267838 42.578745 9.8552498 43 8.5 43 C 6.5292064 43 5.1818545 42.432646 4.3144531 41.636719 C 3.4470518 40.840791 3 39.784942 3 38.5 C 3 37.980543 3.0599286 37.883928 3.0976562 37.568359 C 3.6750755 37.758425 4.1834729 38 4.9960938 38 C 6.581351 38 8.0269343 37.179934 8.8515625 35.953125 C 9.6761907 34.726316 10 33.193332 10 31.5 L 10 19.5 C 10 11.387041 15.943462 5 24 5 z"/></svg>